<svg width="85" height="85" viewBox="0 0 85 85" fill="none" xmlns="http://www.w3.org/2000/svg">
<path d="M37.4 24.9C40.3 24.5 43.3 24.9 45.9 26C48.5 27 49.6 30.3 51.5 30.5C58.6 31.1 65.3 30.5 65.8 32.9C66.1 34.3 65.8 35.8 64.9 37.1C65 41.9 63.6 45.4 60.6 46.5C53.5 49.1 50.1 47.3 45.7 50.3C42 52.7 40.3 58.8 40.1 60.1C39.3 65.8 42.7 71.8 42.9 79C43 80.9 42.8 83 42.4 84.9H60.6C61.9 84.9 62.8 83.9 62.9 82.7V64.5C62.9 63.4 63.9 62.3 65.1 62.3H82.8C83.9 62.3 84.8 61.4 84.8 60.3V23.6C84.8 22.5 83.9 21.6 82.8 21.6H65.1C64 21.6 62.9 20.6 62.9 19.4V2.20001C62.9 0.900012 61.9 0 60.6 0H24.4C23.3 0 22.2 1.00001 22.1 2.20001V19.3C22.1 20.4 21.1 21.5 19.9 21.5H2.2C1.1 21.6 0 22.5 0 23.8V56.4C5.7 54.4 16.8 53.1 20.8 40.2C21.6 37.4 22.6 32.3 24.6 29.7C26.6 27.1 27.8 26.9 27.9 26.1C28.8 21.9 34.5 18.3 35.9 15.9C37.9 13.1 40.1 17.6 37.4 24.9ZM27.5 36.9C27.5 36.3 27.6 35.4 28.3 35.4C28.7 35.4 29.1 36 29.2 36.3C29.6 36.9 30.5 39.1 31.1 39.2C32.2 38.8 33.4 38.7 34.5 38.7C36 38.8 37.6 39.5 38.7 40.5C39.2 40.9 39.7 41 40.2 41C40.7 41.1 41.6 41.1 42 41.5C42.9 42.9 43 44.7 42.5 46.2C41.9 47.9 40.8 48.2 39.2 49C37.8 49.6 37.2 50.4 36.6 52.4C35.8 55.3 37 58.9 37.2 62.1C37.7 69.1 37.3 76.6 33.5 82.8C33.2 83.2 32.5 84.2 32 84.8H24.2C22.9 84.8 21.9 83.8 22 82.5V64.9C22.1 63.6 21.2 62.5 20 62.3C19.9 62.3 19.9 62.3 19.7 62.3H2C1.4 62.3 0.899998 61.9 0.599998 61.4C1.7 60 3.3 58.8 5.1 58.1C7.7 57.1 10.5 56.4 13.3 56.2C15.9 55.9 18.9 56.3 21.1 54.8C23.1 53.1 24.3 50.7 24.2 48C24.2 47.1 24.2 46.9 24.2 46.5C24.2 45.9 24.6 45.6 24.5 45C24.4 42.7 24.2 40.3 24.4 38C24.4 37.1 24.7 36.2 25 35.4C25.4 35.1 25.8 35.1 26 35.4C26.3 36 27 36.3 27.5 36.9Z" fill="#FFA884"/>
</svg>
