<svg width="372" height="112" viewBox="0 0 372 112" fill="none" xmlns="http://www.w3.org/2000/svg">
<path d="M37.6002 39.2001C40.5002 38.8001 43.5002 39.2 46.1002 40.3C48.7002 41.3 49.8002 44.6 51.7002 44.8C58.8002 45.4 65.5002 44.8001 66.0002 47.2001C66.3002 48.6001 66.0002 50.1001 65.1002 51.4001C65.2002 56.2001 63.8002 59.7 60.8002 60.8C53.7002 63.4 50.3002 61.6001 45.9002 64.6001C42.2002 67.0001 40.5002 73.1001 40.3002 74.4001C39.5002 80.1001 42.9002 86.1 43.1002 93.3C43.2002 95.2 43.0002 97.3001 42.6002 99.2001H60.8002C62.1002 99.2001 63.0002 98.2001 63.1002 97.0001V78.8C63.1002 77.7 64.1002 76.6001 65.3002 76.6001H83.0002C84.1002 76.6001 85.0002 75.7001 85.0002 74.6001V37.9001C85.0002 36.8001 84.1002 35.9001 83.0002 35.9001H65.3002C64.2002 35.9001 63.1002 34.9001 63.1002 33.7001V16.5001C63.1002 15.2001 62.1002 14.3 60.8002 14.3H24.6002C23.5002 14.3 22.4002 15.3001 22.3002 16.5001V33.6001C22.3002 34.7001 21.3002 35.8 20.1002 35.8H2.40019C1.30019 35.9 0.200195 36.8001 0.200195 38.1001V70.7001C5.9002 68.7001 17.0002 67.4001 21.0002 54.5001C21.8002 51.7001 22.8002 46.6001 24.8002 44.0001C26.8002 41.4001 28.0002 41.2001 28.1002 40.4001C29.0002 36.2001 34.7002 32.6001 36.1002 30.2001C38.1002 27.4001 40.3002 31.9001 37.6002 39.2001ZM27.7002 51.2001C27.7002 50.6001 27.8002 49.7001 28.5002 49.7001C28.9002 49.7001 29.3002 50.3001 29.4002 50.6001C29.8002 51.2001 30.7002 53.4001 31.3002 53.5001C32.4002 53.1001 33.6002 53.0001 34.7002 53.0001C36.2002 53.1001 37.8002 53.8 38.9002 54.8C39.4002 55.2 39.9002 55.3 40.4002 55.3C40.9002 55.4 41.8002 55.4 42.2002 55.8C43.1002 57.2 43.2002 59.0001 42.7002 60.5001C42.1002 62.2001 41.0002 62.5 39.4002 63.3C38.0002 63.9 37.4002 64.7001 36.8002 66.7001C36.0002 69.6001 37.2002 73.2001 37.4002 76.4001C37.9002 83.4001 37.5002 90.9001 33.7002 97.1001C33.4002 97.5001 32.7002 98.5001 32.2002 99.1001H24.4002C23.1002 99.1001 22.1002 98.1 22.2002 96.8V79.2001C22.3002 77.9001 21.4002 76.8001 20.2002 76.6001C20.1002 76.6001 20.1002 76.6001 19.9002 76.6001H2.2002C1.6002 76.6001 1.10019 76.2001 0.800194 75.7001C1.90019 74.3001 3.50019 73.1001 5.30019 72.4001C7.90019 71.4001 10.7002 70.7001 13.5002 70.5001C16.1002 70.2001 19.1002 70.6001 21.3002 69.1001C23.3002 67.4001 24.5002 65 24.4002 62.3C24.4002 61.4 24.4002 61.2 24.4002 60.8C24.4002 60.2 24.8002 59.9 24.7002 59.3C24.6002 57 24.4002 54.6 24.6002 52.3C24.6002 51.4 24.9002 50.5001 25.2002 49.7001C25.6002 49.4001 26.0002 49.4001 26.2002 49.7001C26.5002 50.3001 27.2002 50.6001 27.7002 51.2001Z" fill="#FFA884"/>
<path d="M128.062 53.875C128.062 49.9167 128.021 47.4583 127.938 46.5C127.854 45.5208 127.729 44.8229 127.562 44.4062C127.417 43.9896 127.167 43.6979 126.812 43.5312C126.479 43.3438 126.052 43.25 125.531 43.25C125.156 42.5417 124.969 41.8438 124.969 41.1562C124.969 40.3438 125.146 39.7708 125.5 39.4375C125.875 39.1042 126.51 38.9375 127.406 38.9375H134.219C135.615 38.9375 136.552 39.1667 137.031 39.625C137.51 40.0833 137.75 41.0104 137.75 42.4062V48.9375C137.75 51.6875 137.854 55.2708 138.062 59.6875C136.917 59.8958 135.531 60 133.906 60C133.469 60 132.667 59.2708 131.5 57.8125C127.667 59.6875 123.74 60.625 119.719 60.625C113.281 60.625 108.635 59.0521 105.781 55.9062C102.927 52.7604 101.5 47.6771 101.5 40.6562C101.5 32.5312 103.385 26.5104 107.156 22.5938C110.948 18.6771 116.417 16.7188 123.562 16.7188C128.042 16.7188 131.125 17.0417 132.812 17.6875C134.5 18.3125 135.344 19.4583 135.344 21.125C135.344 22.7292 134.698 24.3438 133.406 25.9688C129.26 23.8021 125.229 22.7188 121.312 22.7188C118.417 22.7188 116.177 23.75 114.594 25.8125C113.031 27.875 112.25 31.7708 112.25 37.5C112.25 44.2083 113.021 48.7396 114.562 51.0938C116.104 53.4479 118.781 54.625 122.594 54.625C124.427 54.625 126.25 54.375 128.062 53.875ZM158.906 55.2188C160.594 55.2188 161.844 54.5521 162.656 53.2188C163.49 51.8646 163.906 49.25 163.906 45.375C163.906 41.1458 163.448 38.125 162.531 36.3125C161.635 34.5 160.208 33.5938 158.25 33.5938C156.562 33.5938 155.302 34.2708 154.469 35.625C153.656 36.9583 153.25 39.5625 153.25 43.4375C153.25 47.6667 153.698 50.6875 154.594 52.5C155.51 54.3125 156.948 55.2188 158.906 55.2188ZM157.438 60.625C152.771 60.625 149.25 59.4062 146.875 56.9688C144.521 54.5312 143.344 51 143.344 46.375C143.344 40.6042 144.771 36.1354 147.625 32.9688C150.5 29.7812 154.531 28.1875 159.719 28.1875C164.385 28.1875 167.896 29.4062 170.25 31.8438C172.604 34.2812 173.781 37.8125 173.781 42.4375C173.781 48.2083 172.354 52.6875 169.5 55.875C166.646 59.0417 162.625 60.625 157.438 60.625ZM193.656 55.2188C195.344 55.2188 196.594 54.5521 197.406 53.2188C198.24 51.8646 198.656 49.25 198.656 45.375C198.656 41.1458 198.198 38.125 197.281 36.3125C196.385 34.5 194.958 33.5938 193 33.5938C191.312 33.5938 190.052 34.2708 189.219 35.625C188.406 36.9583 188 39.5625 188 43.4375C188 47.6667 188.448 50.6875 189.344 52.5C190.26 54.3125 191.698 55.2188 193.656 55.2188ZM192.188 60.625C187.521 60.625 184 59.4062 181.625 56.9688C179.271 54.5312 178.094 51 178.094 46.375C178.094 40.6042 179.521 36.1354 182.375 32.9688C185.25 29.7812 189.281 28.1875 194.469 28.1875C199.135 28.1875 202.646 29.4062 205 31.8438C207.354 34.2812 208.531 37.8125 208.531 42.4375C208.531 48.2083 207.104 52.6875 204.25 55.875C201.396 59.0417 197.375 60.625 192.188 60.625ZM228.188 33.5938C226.417 33.5938 225.062 34.2604 224.125 35.5938C223.208 36.9271 222.75 39.8333 222.75 44.3125C222.75 47.9792 223.156 50.7188 223.969 52.5312C224.781 54.3229 226.135 55.2188 228.031 55.2188C229.198 55.2188 230.177 54.9896 230.969 54.5312C231.781 54.0521 232.323 53.4375 232.594 52.6875C232.885 51.9167 233.031 50.2083 233.031 47.5625V34.9375C232.344 34.5625 231.594 34.25 230.781 34C229.969 33.7292 229.104 33.5938 228.188 33.5938ZM234.625 57.5938C232.417 58.7604 230.49 59.5625 228.844 60C227.198 60.4167 225.552 60.625 223.906 60.625C220.365 60.625 217.635 59.5729 215.719 57.4688C213.802 55.3438 212.844 51.6771 212.844 46.4688C212.844 40.2604 214.292 35.6667 217.188 32.6875C220.104 29.6875 224.062 28.1875 229.062 28.1875C229.979 28.1875 230.708 28.2083 231.25 28.25C231.792 28.2917 232.385 28.3438 233.031 28.4062C233.031 27.5938 232.99 26.5729 232.906 25.3438C232.823 24.1146 232.667 23.0625 232.438 22.1875C232.208 21.2917 231.802 20.7188 231.219 20.4688C230.656 20.1979 229.917 20.0625 229 20.0625C228.625 19.2083 228.438 18.3542 228.438 17.5C228.438 16.625 228.76 16.0729 229.406 15.8438C230.073 15.5938 232.177 15.4688 235.719 15.4688C237.927 15.4688 239.438 15.5625 240.25 15.75C241.062 15.9167 241.521 16.2396 241.625 16.7188C241.75 17.1979 241.812 17.875 241.812 18.75V40.9062C241.812 48.1979 242.01 52.5417 242.406 53.9375C242.802 55.3125 243.458 55.9062 244.375 55.7188C244.792 56.3229 245 56.9271 245 57.5312C245 58.3021 244.094 59.0104 242.281 59.6562C240.49 60.3021 239.062 60.625 238 60.625C237.354 60.625 236.823 60.4583 236.406 60.125C236.01 59.7917 235.417 58.9479 234.625 57.5938ZM308.938 17.3438C309.312 18.1146 309.5 18.8854 309.5 19.6562C309.5 20.4062 309.365 20.9271 309.094 21.2188C308.823 21.4896 308.385 21.625 307.781 21.625H306.281C305.115 26.0625 303.448 32.8542 301.281 42C299.115 51.1458 297.573 56.5312 296.656 58.1562C295.74 59.7812 293.719 60.5938 290.594 60.5938C286.906 60.5938 284.875 60.4792 284.5 60.25C284.146 60.0208 283.135 54.8646 281.469 44.7812C279.823 34.6771 278.948 29.625 278.844 29.625C278.74 29.625 277.896 33.9792 276.312 42.6875C274.75 51.375 273.51 56.5312 272.594 58.1562C271.677 59.7812 269.656 60.5938 266.531 60.5938C263.219 60.5938 261.385 60.4792 261.031 60.25C260.677 60.0208 259.292 54.6562 256.875 44.1562C254.479 33.6354 252.562 26.125 251.125 21.625H248.5C248.146 20.7083 247.969 19.8333 247.969 19C247.969 18.4167 248.125 18 248.438 17.75C248.75 17.4792 249.208 17.3438 249.812 17.3438H265.344C265.698 18.1146 265.875 18.8854 265.875 19.6562C265.875 20.4062 265.74 20.9271 265.469 21.2188C265.198 21.4896 264.76 21.625 264.156 21.625H262.625C262.854 24.2917 263.75 29.9583 265.312 38.625C266.875 47.2708 267.854 51.5938 268.25 51.5938C268.646 51.5938 269.812 46 271.75 34.8125C273.688 23.625 274.823 17.9167 275.156 17.6875C275.51 17.4583 277.906 17.3438 282.344 17.3438C283.906 17.3438 284.979 17.6562 285.562 18.2812C286.167 18.8854 287.396 24.5938 289.25 35.4062C291.104 46.1979 292.219 51.5938 292.594 51.5938C292.99 51.5938 293.906 47.3125 295.344 38.75C296.781 30.1875 297.573 24.4792 297.719 21.625H295.094C294.719 20.7083 294.531 19.8333 294.531 19C294.531 18.4167 294.688 18 295 17.75C295.312 17.4792 295.771 17.3438 296.375 17.3438H308.938ZM319.25 24.4688C317.375 24.4688 316.021 24.1146 315.188 23.4062C314.354 22.6771 313.938 21.6562 313.938 20.3438C313.938 18.9688 314.469 17.8438 315.531 16.9688C316.594 16.0729 318.104 15.625 320.062 15.625C322.062 15.625 323.479 16.0104 324.312 16.7812C325.146 17.5312 325.562 18.5208 325.562 19.75C325.562 21.1042 325.062 22.2292 324.062 23.125C323.062 24.0208 321.458 24.4688 319.25 24.4688ZM328.656 55.7188C329.01 56.4062 329.188 57.1771 329.188 58.0312C329.188 58.7604 329.031 59.2708 328.719 59.5625C328.427 59.8542 327.844 60 326.969 60H311.969C311.615 59.125 311.438 58.3021 311.438 57.5312C311.438 56.8854 311.583 56.4271 311.875 56.1562C312.167 55.8646 312.635 55.7188 313.281 55.7188H315.844C315.948 53.0521 316 50.2083 316 47.1875C316 42.5833 315.958 39.5312 315.875 38.0312C315.812 36.5104 315.656 35.4062 315.406 34.7188C315.156 34.0104 314.771 33.5729 314.25 33.4062C313.729 33.2188 312.969 33.125 311.969 33.125C311.615 32.5417 311.438 31.8646 311.438 31.0938C311.438 29.9271 311.917 29.2083 312.875 28.9375C313.833 28.6667 315.781 28.5312 318.719 28.5312C320.927 28.5312 322.427 28.6146 323.219 28.7812C324.031 28.9479 324.49 29.2812 324.594 29.7812C324.719 30.2604 324.781 30.9375 324.781 31.8125V47.1875C324.802 50.2083 324.865 53.0521 324.969 55.7188H328.656ZM336.438 44.9375C336.438 35.4792 336.396 29.5417 336.312 27.125C336.229 24.7083 336.073 23.0625 335.844 22.1875C335.615 21.2917 335.208 20.7188 334.625 20.4688C334.062 20.1979 333.323 20.0625 332.406 20.0625C332.031 19.2083 331.844 18.3542 331.844 17.5C331.844 16.625 332.167 16.0729 332.812 15.8438C333.479 15.5938 335.583 15.4688 339.125 15.4688C341.333 15.4688 342.844 15.5625 343.656 15.75C344.469 15.9167 344.927 16.2396 345.031 16.7188C345.156 17.1979 345.219 17.875 345.219 18.75V42.7812C345.219 48.7396 345.271 53.0521 345.375 55.7188H349.375C349.729 56.4062 349.906 57.1771 349.906 58.0312C349.906 58.7604 349.75 59.2708 349.438 59.5625C349.146 59.8542 348.562 60 347.688 60H332.406C332.031 59.125 331.844 58.3021 331.844 57.5312C331.844 56.8854 331.99 56.4271 332.281 56.1562C332.573 55.8646 333.042 55.7188 333.688 55.7188H336.25C336.375 53.0521 336.438 49.4583 336.438 44.9375ZM356.875 44.9375C356.875 35.4792 356.833 29.5417 356.75 27.125C356.667 24.7083 356.51 23.0625 356.281 22.1875C356.052 21.2917 355.646 20.7188 355.062 20.4688C354.5 20.1979 353.76 20.0625 352.844 20.0625C352.469 19.2083 352.281 18.3542 352.281 17.5C352.281 16.625 352.604 16.0729 353.25 15.8438C353.917 15.5938 356.021 15.4688 359.562 15.4688C361.771 15.4688 363.281 15.5625 364.094 15.75C364.906 15.9167 365.365 16.2396 365.469 16.7188C365.594 17.1979 365.656 17.875 365.656 18.75V42.7812C365.656 48.7396 365.708 53.0521 365.812 55.7188H369.812C370.167 56.4062 370.344 57.1771 370.344 58.0312C370.344 58.7604 370.188 59.2708 369.875 59.5625C369.583 59.8542 369 60 368.125 60H352.844C352.469 59.125 352.281 58.3021 352.281 57.5312C352.281 56.8854 352.427 56.4271 352.719 56.1562C353.01 55.8646 353.479 55.7188 354.125 55.7188H356.688C356.812 53.0521 356.875 49.4583 356.875 44.9375Z" fill="white"/>
<path d="M105.44 76.632H115.296C117.899 76.632 119.979 77.3147 121.536 78.68C123.093 80.0453 123.872 81.9547 123.872 84.408C123.872 86.9253 123.093 88.8773 121.536 90.264C120 91.6293 117.92 92.312 115.296 92.312H111.104V99H105.44V76.632ZM114.4 87.544C115.531 87.544 116.416 87.3093 117.056 86.84C117.717 86.3707 118.048 85.56 118.048 84.408C118.048 83.256 117.728 82.4667 117.088 82.04C116.448 81.6133 115.552 81.4 114.4 81.4H111.104V87.544H114.4ZM129.944 76.632H145.816V81.4H135.608V85.592H143.064V90.04H135.608V94.232H145.816V99H129.944V76.632ZM157.413 81.4H151.109V76.632H169.413V81.4H163.077V99H157.413V81.4ZM190.361 76.632H196.025V85.272H204.793V76.632H210.457V99H204.793V89.976H196.025V99H190.361V76.632ZM228.882 99.48C226.621 99.48 224.573 98.9893 222.738 98.008C220.925 97.0267 219.485 95.6613 218.418 93.912C217.373 92.1413 216.85 90.1147 216.85 87.832C216.85 85.5493 217.373 83.5227 218.418 81.752C219.485 79.9813 220.925 78.6053 222.738 77.624C224.573 76.6427 226.621 76.152 228.882 76.152C231.122 76.152 233.149 76.6427 234.962 77.624C236.797 78.6053 238.237 79.9813 239.282 81.752C240.327 83.5227 240.85 85.5493 240.85 87.832C240.85 90.1147 240.327 92.1413 239.282 93.912C238.237 95.6613 236.797 97.0267 234.962 98.008C233.149 98.9893 231.122 99.48 228.882 99.48ZM228.882 94.168C230.013 94.168 231.047 93.912 231.986 93.4C232.925 92.888 233.671 92.152 234.226 91.192C234.781 90.232 235.058 89.112 235.058 87.832C235.058 86.552 234.781 85.4427 234.226 84.504C233.693 83.544 232.957 82.808 232.018 82.296C231.079 81.7627 230.034 81.496 228.882 81.496C227.709 81.496 226.653 81.7627 225.714 82.296C224.775 82.808 224.029 83.544 223.474 84.504C222.941 85.4427 222.674 86.552 222.674 87.832C222.674 89.112 222.941 90.232 223.474 91.192C224.029 92.152 224.775 92.888 225.714 93.4C226.674 93.912 227.73 94.168 228.882 94.168ZM253.407 99.48C251.999 99.48 250.602 99.3413 249.215 99.064C247.829 98.808 246.687 98.4453 245.791 97.976V92.888C246.943 93.4853 248.138 93.9333 249.375 94.232C250.634 94.5307 251.829 94.68 252.959 94.68C254.005 94.68 254.794 94.52 255.327 94.2C255.861 93.88 256.127 93.4213 256.127 92.824C256.127 92.376 255.978 91.992 255.679 91.672C255.402 91.3307 254.986 91.0213 254.431 90.744C253.877 90.4667 253.013 90.0827 251.839 89.592C249.77 88.7173 248.266 87.7467 247.327 86.68C246.389 85.6133 245.919 84.3013 245.919 82.744C245.919 81.464 246.271 80.3227 246.975 79.32C247.701 78.3173 248.703 77.5387 249.983 76.984C251.263 76.4293 252.735 76.152 254.399 76.152C255.765 76.152 256.981 76.2587 258.047 76.472C259.114 76.6853 260.138 77.0267 261.119 77.496V82.456C259.242 81.4747 257.354 80.984 255.455 80.984C254.431 80.984 253.61 81.1547 252.991 81.496C252.394 81.816 252.095 82.2853 252.095 82.904C252.095 83.5227 252.405 84.024 253.023 84.408C253.642 84.792 254.783 85.3147 256.447 85.976C257.962 86.5947 259.135 87.2027 259.967 87.8C260.821 88.3973 261.439 89.0907 261.823 89.88C262.207 90.6693 262.399 91.672 262.399 92.888C262.399 94.9573 261.642 96.5787 260.127 97.752C258.634 98.904 256.394 99.48 253.407 99.48ZM268.81 76.632H278.666C281.269 76.632 283.349 77.3147 284.906 78.68C286.463 80.0453 287.242 81.9547 287.242 84.408C287.242 86.9253 286.463 88.8773 284.906 90.264C283.37 91.6293 281.29 92.312 278.666 92.312H274.474V99H268.81V76.632ZM277.77 87.544C278.901 87.544 279.786 87.3093 280.426 86.84C281.087 86.3707 281.418 85.56 281.418 84.408C281.418 83.256 281.098 82.4667 280.458 82.04C279.818 81.6133 278.922 81.4 277.77 81.4H274.474V87.544H277.77ZM293.314 76.632H298.978V99H293.314V76.632ZM311.189 81.4H304.885V76.632H323.189V81.4H316.853V99H311.189V81.4ZM333.423 76.632H338.991L347.919 99H342.127L340.335 94.392H332.079L330.287 99H324.463L333.423 76.632ZM338.927 90.04L336.207 82.52L333.455 90.04H338.927ZM354.325 76.632H359.989V94.232H369.717V99H354.325V76.632Z" fill="white"/>
</svg>
