<svg width="151" height="54" viewBox="0 0 151 54" fill="none" xmlns="http://www.w3.org/2000/svg">
<path d="M126.072 21.1851L132.788 39C130.81 38.7163 128.831 38.3622 126.815 38.0424L123.032 28.1979L119.143 37.2292C117.234 36.9111 115.358 36.8029 113.45 36.5553L120.274 20.9719L114.087 5H119.814L123.279 13.9247L126.992 5H132.788L126.072 21.1851ZM109.562 5H104.364V35.883C106.061 35.9896 107.829 36.0601 109.562 36.2716V5ZM99.8741 35.5288C95.1376 35.2091 90.3995 34.9271 85.5564 34.8205V5H90.8589V29.7917C93.8989 29.8622 96.939 30.1098 99.8741 30.2508V35.5288ZM79.8995 17.0777V22.3886H72.6529V34.4663H67.4193V5H82.2686V10.3125H72.6529V17.0777H79.8995ZM58.509 10.3125V34.75C56.7421 34.75 54.939 34.75 53.2065 34.8205V10.3125H47.7268V5H64.0248V10.3125H58.509ZM41.9994 22.6723C39.6664 22.6723 36.9086 22.6723 34.9283 22.7788V30.6771C38.0389 30.4639 41.1512 30.2163 44.2963 30.1098V35.2091L29.6242 36.3798V5H44.2963V10.3125H34.9283V17.4663C36.9791 17.4663 40.1258 17.3598 41.9994 17.3598V22.6723ZM12.6191 19.6979V38.2556C10.7111 38.4687 9.01301 38.7163 7.20996 39V5H12.2664L19.1603 24.3021V5H24.4628V36.8029C22.5892 37.1226 20.6811 37.2292 18.6648 37.5112L12.6191 19.6979Z" fill="#E50914"/>
</svg>
