<svg width="126" height="34" viewBox="0 0 126 34" fill="none" xmlns="http://www.w3.org/2000/svg">
<path d="M119.072 16.1851L125.788 34C123.81 33.7163 121.831 33.3622 119.815 33.0424L116.032 23.1979L112.143 32.2292C110.234 31.9111 108.358 31.8029 106.45 31.5553L113.274 15.9719L107.087 0H112.814L116.279 8.9247L119.992 0H125.788L119.072 16.1851ZM102.562 0H97.364V30.883C99.061 30.9896 100.829 31.0601 102.562 31.2716V0ZM92.8741 30.5288C88.1376 30.2091 83.3995 29.9271 78.5564 29.8205V0H83.8589V24.7917C86.8989 24.8622 89.939 25.1098 92.8741 25.2508V30.5288ZM72.8995 12.0777V17.3886H65.6529V29.4663H60.4193V0H75.2686V5.3125H65.6529V12.0777H72.8995ZM51.509 5.3125V29.75C49.7421 29.75 47.939 29.75 46.2065 29.8205V5.3125H40.7268V0H57.0248V5.3125H51.509ZM34.9994 17.6723C32.6664 17.6723 29.9086 17.6723 27.9283 17.7788V25.6771C31.0389 25.4639 34.1512 25.2163 37.2963 25.1098V30.2091L22.6242 31.3798V0H37.2963V5.3125H27.9283V12.4663C29.9791 12.4663 33.1258 12.3598 34.9994 12.3598V17.6723ZM5.6191 14.6979V33.2556C3.7111 33.4687 2.01301 33.7163 0.209961 34V0H5.2664L12.1603 19.3021V0H17.4628V31.8029C15.5892 32.1226 13.6811 32.2292 11.6648 32.5112L5.6191 14.6979Z" fill="#E50914"/>
</svg>
