<svg width="372" height="112" viewBox="0 0 372 112" fill="none" xmlns="http://www.w3.org/2000/svg">
<path d="M37.4 39.2001C40.3 38.8001 43.3 39.2 45.9 40.3C48.5 41.3 49.6 44.6 51.5 44.8C58.6 45.4 65.3 44.8001 65.8 47.2001C66.1 48.6001 65.8 50.1001 64.9 51.4001C65 56.2001 63.6 59.7 60.6 60.8C53.5 63.4 50.1 61.6001 45.7 64.6001C42 67.0001 40.3 73.1001 40.1 74.4001C39.3 80.1001 42.7 86.1 42.9 93.3C43 95.2 42.8 97.3001 42.4 99.2001H60.6C61.9 99.2001 62.8 98.2001 62.9 97.0001V78.8C62.9 77.7 63.9 76.6001 65.1 76.6001H82.8C83.9 76.6001 84.8 75.7001 84.8 74.6001V37.9001C84.8 36.8001 83.9 35.9001 82.8 35.9001H65.1C64 35.9001 62.9 34.9001 62.9 33.7001V16.5001C62.9 15.2001 61.9 14.3 60.6 14.3H24.4C23.3 14.3 22.2 15.3001 22.1 16.5001V33.6001C22.1 34.7001 21.1 35.8 19.9 35.8H2.2C1.1 35.9 0 36.8001 0 38.1001V70.7001C5.7 68.7001 16.8 67.4001 20.8 54.5001C21.6 51.7001 22.6 46.6001 24.6 44.0001C26.6 41.4001 27.8 41.2001 27.9 40.4001C28.8 36.2001 34.5 32.6001 35.9 30.2001C37.9 27.4001 40.1 31.9001 37.4 39.2001ZM27.5 51.2001C27.5 50.6001 27.6 49.7001 28.3 49.7001C28.7 49.7001 29.1 50.3001 29.2 50.6001C29.6 51.2001 30.5 53.4001 31.1 53.5001C32.2 53.1001 33.4 53.0001 34.5 53.0001C36 53.1001 37.6 53.8 38.7 54.8C39.2 55.2 39.7 55.3 40.2 55.3C40.7 55.4 41.6 55.4 42 55.8C42.9 57.2 43 59.0001 42.5 60.5001C41.9 62.2001 40.8 62.5 39.2 63.3C37.8 63.9 37.2 64.7001 36.6 66.7001C35.8 69.6001 37 73.2001 37.2 76.4001C37.7 83.4001 37.3 90.9001 33.5 97.1001C33.2 97.5001 32.5 98.5001 32 99.1001H24.2C22.9 99.1001 21.9 98.1 22 96.8V79.2001C22.1 77.9001 21.2 76.8001 20 76.6001C19.9 76.6001 19.9 76.6001 19.7 76.6001H2C1.4 76.6001 0.899998 76.2001 0.599998 75.7001C1.7 74.3001 3.3 73.1001 5.1 72.4001C7.7 71.4001 10.5 70.7001 13.3 70.5001C15.9 70.2001 18.9 70.6001 21.1 69.1001C23.1 67.4001 24.3 65 24.2 62.3C24.2 61.4 24.2 61.2 24.2 60.8C24.2 60.2 24.6 59.9 24.5 59.3C24.4 57 24.2 54.6 24.4 52.3C24.4 51.4 24.7 50.5001 25 49.7001C25.4 49.4001 25.8 49.4001 26 49.7001C26.3 50.3001 27 50.6001 27.5 51.2001Z" fill="#F0DC87"/>
<path d="M127.862 53.875C127.862 49.9167 127.821 47.4583 127.737 46.5C127.654 45.5208 127.529 44.8229 127.362 44.4062C127.216 43.9896 126.966 43.6979 126.612 43.5312C126.279 43.3438 125.852 43.25 125.331 43.25C124.956 42.5417 124.769 41.8438 124.769 41.1562C124.769 40.3438 124.946 39.7708 125.3 39.4375C125.675 39.1042 126.31 38.9375 127.206 38.9375H134.019C135.414 38.9375 136.352 39.1667 136.831 39.625C137.31 40.0833 137.55 41.0104 137.55 42.4062V48.9375C137.55 51.6875 137.654 55.2708 137.862 59.6875C136.716 59.8958 135.331 60 133.706 60C133.269 60 132.466 59.2708 131.3 57.8125C127.466 59.6875 123.539 60.625 119.519 60.625C113.081 60.625 108.435 59.0521 105.581 55.9062C102.727 52.7604 101.3 47.6771 101.3 40.6562C101.3 32.5312 103.185 26.5104 106.956 22.5938C110.748 18.6771 116.216 16.7188 123.362 16.7188C127.841 16.7188 130.925 17.0417 132.612 17.6875C134.3 18.3125 135.144 19.4583 135.144 21.125C135.144 22.7292 134.498 24.3438 133.206 25.9688C129.06 23.8021 125.029 22.7188 121.112 22.7188C118.216 22.7188 115.977 23.75 114.394 25.8125C112.831 27.875 112.05 31.7708 112.05 37.5C112.05 44.2083 112.821 48.7396 114.362 51.0938C115.904 53.4479 118.581 54.625 122.394 54.625C124.227 54.625 126.05 54.375 127.862 53.875ZM158.706 55.2188C160.394 55.2188 161.644 54.5521 162.456 53.2188C163.289 51.8646 163.706 49.25 163.706 45.375C163.706 41.1458 163.248 38.125 162.331 36.3125C161.435 34.5 160.008 33.5938 158.05 33.5938C156.362 33.5938 155.102 34.2708 154.269 35.625C153.456 36.9583 153.05 39.5625 153.05 43.4375C153.05 47.6667 153.498 50.6875 154.394 52.5C155.31 54.3125 156.748 55.2188 158.706 55.2188ZM157.237 60.625C152.571 60.625 149.05 59.4062 146.675 56.9688C144.321 54.5312 143.144 51 143.144 46.375C143.144 40.6042 144.571 36.1354 147.425 32.9688C150.3 29.7812 154.331 28.1875 159.519 28.1875C164.185 28.1875 167.696 29.4062 170.05 31.8438C172.404 34.2812 173.581 37.8125 173.581 42.4375C173.581 48.2083 172.154 52.6875 169.3 55.875C166.446 59.0417 162.425 60.625 157.237 60.625ZM193.456 55.2188C195.144 55.2188 196.394 54.5521 197.206 53.2188C198.039 51.8646 198.456 49.25 198.456 45.375C198.456 41.1458 197.998 38.125 197.081 36.3125C196.185 34.5 194.758 33.5938 192.8 33.5938C191.112 33.5938 189.852 34.2708 189.019 35.625C188.206 36.9583 187.8 39.5625 187.8 43.4375C187.8 47.6667 188.248 50.6875 189.144 52.5C190.06 54.3125 191.498 55.2188 193.456 55.2188ZM191.987 60.625C187.321 60.625 183.8 59.4062 181.425 56.9688C179.071 54.5312 177.894 51 177.894 46.375C177.894 40.6042 179.321 36.1354 182.175 32.9688C185.05 29.7812 189.081 28.1875 194.269 28.1875C198.935 28.1875 202.446 29.4062 204.8 31.8438C207.154 34.2812 208.331 37.8125 208.331 42.4375C208.331 48.2083 206.904 52.6875 204.05 55.875C201.196 59.0417 197.175 60.625 191.987 60.625ZM227.987 33.5938C226.216 33.5938 224.862 34.2604 223.925 35.5938C223.008 36.9271 222.55 39.8333 222.55 44.3125C222.55 47.9792 222.956 50.7188 223.769 52.5312C224.581 54.3229 225.935 55.2188 227.831 55.2188C228.998 55.2188 229.977 54.9896 230.769 54.5312C231.581 54.0521 232.123 53.4375 232.394 52.6875C232.685 51.9167 232.831 50.2083 232.831 47.5625V34.9375C232.144 34.5625 231.394 34.25 230.581 34C229.769 33.7292 228.904 33.5938 227.987 33.5938ZM234.425 57.5938C232.216 58.7604 230.289 59.5625 228.644 60C226.998 60.4167 225.352 60.625 223.706 60.625C220.164 60.625 217.435 59.5729 215.519 57.4688C213.602 55.3438 212.644 51.6771 212.644 46.4688C212.644 40.2604 214.091 35.6667 216.987 32.6875C219.904 29.6875 223.862 28.1875 228.862 28.1875C229.779 28.1875 230.508 28.2083 231.05 28.25C231.591 28.2917 232.185 28.3438 232.831 28.4062C232.831 27.5938 232.789 26.5729 232.706 25.3438C232.623 24.1146 232.466 23.0625 232.237 22.1875C232.008 21.2917 231.602 20.7188 231.019 20.4688C230.456 20.1979 229.716 20.0625 228.8 20.0625C228.425 19.2083 228.237 18.3542 228.237 17.5C228.237 16.625 228.56 16.0729 229.206 15.8438C229.873 15.5938 231.977 15.4688 235.519 15.4688C237.727 15.4688 239.237 15.5625 240.05 15.75C240.862 15.9167 241.321 16.2396 241.425 16.7188C241.55 17.1979 241.612 17.875 241.612 18.75V40.9062C241.612 48.1979 241.81 52.5417 242.206 53.9375C242.602 55.3125 243.258 55.9062 244.175 55.7188C244.591 56.3229 244.8 56.9271 244.8 57.5312C244.8 58.3021 243.894 59.0104 242.081 59.6562C240.289 60.3021 238.862 60.625 237.8 60.625C237.154 60.625 236.623 60.4583 236.206 60.125C235.81 59.7917 235.216 58.9479 234.425 57.5938ZM308.737 17.3438C309.112 18.1146 309.3 18.8854 309.3 19.6562C309.3 20.4062 309.164 20.9271 308.894 21.2188C308.623 21.4896 308.185 21.625 307.581 21.625H306.081C304.914 26.0625 303.248 32.8542 301.081 42C298.914 51.1458 297.373 56.5312 296.456 58.1562C295.539 59.7812 293.519 60.5938 290.394 60.5938C286.706 60.5938 284.675 60.4792 284.3 60.25C283.946 60.0208 282.935 54.8646 281.269 44.7812C279.623 34.6771 278.748 29.625 278.644 29.625C278.539 29.625 277.696 33.9792 276.112 42.6875C274.55 51.375 273.31 56.5312 272.394 58.1562C271.477 59.7812 269.456 60.5938 266.331 60.5938C263.019 60.5938 261.185 60.4792 260.831 60.25C260.477 60.0208 259.091 54.6562 256.675 44.1562C254.279 33.6354 252.362 26.125 250.925 21.625H248.3C247.946 20.7083 247.769 19.8333 247.769 19C247.769 18.4167 247.925 18 248.237 17.75C248.55 17.4792 249.008 17.3438 249.612 17.3438H265.144C265.498 18.1146 265.675 18.8854 265.675 19.6562C265.675 20.4062 265.539 20.9271 265.269 21.2188C264.998 21.4896 264.56 21.625 263.956 21.625H262.425C262.654 24.2917 263.55 29.9583 265.112 38.625C266.675 47.2708 267.654 51.5938 268.05 51.5938C268.446 51.5938 269.612 46 271.55 34.8125C273.487 23.625 274.623 17.9167 274.956 17.6875C275.31 17.4583 277.706 17.3438 282.144 17.3438C283.706 17.3438 284.779 17.6562 285.362 18.2812C285.966 18.8854 287.196 24.5938 289.05 35.4062C290.904 46.1979 292.019 51.5938 292.394 51.5938C292.789 51.5938 293.706 47.3125 295.144 38.75C296.581 30.1875 297.373 24.4792 297.519 21.625H294.894C294.519 20.7083 294.331 19.8333 294.331 19C294.331 18.4167 294.487 18 294.8 17.75C295.112 17.4792 295.571 17.3438 296.175 17.3438H308.737ZM319.05 24.4688C317.175 24.4688 315.821 24.1146 314.987 23.4062C314.154 22.6771 313.737 21.6562 313.737 20.3438C313.737 18.9688 314.269 17.8438 315.331 16.9688C316.394 16.0729 317.904 15.625 319.862 15.625C321.862 15.625 323.279 16.0104 324.112 16.7812C324.946 17.5312 325.362 18.5208 325.362 19.75C325.362 21.1042 324.862 22.2292 323.862 23.125C322.862 24.0208 321.258 24.4688 319.05 24.4688ZM328.456 55.7188C328.81 56.4062 328.987 57.1771 328.987 58.0312C328.987 58.7604 328.831 59.2708 328.519 59.5625C328.227 59.8542 327.644 60 326.769 60H311.769C311.414 59.125 311.237 58.3021 311.237 57.5312C311.237 56.8854 311.383 56.4271 311.675 56.1562C311.966 55.8646 312.435 55.7188 313.081 55.7188H315.644C315.748 53.0521 315.8 50.2083 315.8 47.1875C315.8 42.5833 315.758 39.5312 315.675 38.0312C315.612 36.5104 315.456 35.4062 315.206 34.7188C314.956 34.0104 314.571 33.5729 314.05 33.4062C313.529 33.2188 312.769 33.125 311.769 33.125C311.414 32.5417 311.237 31.8646 311.237 31.0938C311.237 29.9271 311.716 29.2083 312.675 28.9375C313.633 28.6667 315.581 28.5312 318.519 28.5312C320.727 28.5312 322.227 28.6146 323.019 28.7812C323.831 28.9479 324.289 29.2812 324.394 29.7812C324.519 30.2604 324.581 30.9375 324.581 31.8125V47.1875C324.602 50.2083 324.664 53.0521 324.769 55.7188H328.456ZM336.237 44.9375C336.237 35.4792 336.196 29.5417 336.112 27.125C336.029 24.7083 335.873 23.0625 335.644 22.1875C335.414 21.2917 335.008 20.7188 334.425 20.4688C333.862 20.1979 333.123 20.0625 332.206 20.0625C331.831 19.2083 331.644 18.3542 331.644 17.5C331.644 16.625 331.966 16.0729 332.612 15.8438C333.279 15.5938 335.383 15.4688 338.925 15.4688C341.133 15.4688 342.644 15.5625 343.456 15.75C344.269 15.9167 344.727 16.2396 344.831 16.7188C344.956 17.1979 345.019 17.875 345.019 18.75V42.7812C345.019 48.7396 345.071 53.0521 345.175 55.7188H349.175C349.529 56.4062 349.706 57.1771 349.706 58.0312C349.706 58.7604 349.55 59.2708 349.237 59.5625C348.946 59.8542 348.362 60 347.487 60H332.206C331.831 59.125 331.644 58.3021 331.644 57.5312C331.644 56.8854 331.789 56.4271 332.081 56.1562C332.373 55.8646 332.841 55.7188 333.487 55.7188H336.05C336.175 53.0521 336.237 49.4583 336.237 44.9375ZM356.675 44.9375C356.675 35.4792 356.633 29.5417 356.55 27.125C356.466 24.7083 356.31 23.0625 356.081 22.1875C355.852 21.2917 355.446 20.7188 354.862 20.4688C354.3 20.1979 353.56 20.0625 352.644 20.0625C352.269 19.2083 352.081 18.3542 352.081 17.5C352.081 16.625 352.404 16.0729 353.05 15.8438C353.716 15.5938 355.821 15.4688 359.362 15.4688C361.571 15.4688 363.081 15.5625 363.894 15.75C364.706 15.9167 365.164 16.2396 365.269 16.7188C365.394 17.1979 365.456 17.875 365.456 18.75V42.7812C365.456 48.7396 365.508 53.0521 365.612 55.7188H369.612C369.966 56.4062 370.144 57.1771 370.144 58.0312C370.144 58.7604 369.987 59.2708 369.675 59.5625C369.383 59.8542 368.8 60 367.925 60H352.644C352.269 59.125 352.081 58.3021 352.081 57.5312C352.081 56.8854 352.227 56.4271 352.519 56.1562C352.81 55.8646 353.279 55.7188 353.925 55.7188H356.487C356.612 53.0521 356.675 49.4583 356.675 44.9375Z" fill="#F0DC87"/>
<path d="M105.24 76.632H115.096C117.698 76.632 119.778 77.3147 121.336 78.68C122.893 80.0453 123.672 81.9547 123.672 84.408C123.672 86.9253 122.893 88.8773 121.336 90.264C119.8 91.6293 117.72 92.312 115.096 92.312H110.904V99H105.24V76.632ZM114.2 87.544C115.33 87.544 116.216 87.3093 116.856 86.84C117.517 86.3707 117.848 85.56 117.848 84.408C117.848 83.256 117.528 82.4667 116.888 82.04C116.248 81.6133 115.352 81.4 114.2 81.4H110.904V87.544H114.2ZM129.744 76.632H145.616V81.4H135.408V85.592H142.864V90.04H135.408V94.232H145.616V99H129.744V76.632ZM157.213 81.4H150.909V76.632H169.213V81.4H162.877V99H157.213V81.4ZM190.161 76.632H195.825V85.272H204.593V76.632H210.257V99H204.593V89.976H195.825V99H190.161V76.632ZM228.682 99.48C226.42 99.48 224.372 98.9893 222.538 98.008C220.724 97.0267 219.284 95.6613 218.218 93.912C217.172 92.1413 216.65 90.1147 216.65 87.832C216.65 85.5493 217.172 83.5227 218.218 81.752C219.284 79.9813 220.724 78.6053 222.538 77.624C224.372 76.6427 226.42 76.152 228.682 76.152C230.922 76.152 232.948 76.6427 234.762 77.624C236.596 78.6053 238.036 79.9813 239.082 81.752C240.127 83.5227 240.65 85.5493 240.65 87.832C240.65 90.1147 240.127 92.1413 239.082 93.912C238.036 95.6613 236.596 97.0267 234.762 98.008C232.948 98.9893 230.922 99.48 228.682 99.48ZM228.682 94.168C229.812 94.168 230.847 93.912 231.786 93.4C232.724 92.888 233.471 92.152 234.026 91.192C234.58 90.232 234.858 89.112 234.858 87.832C234.858 86.552 234.58 85.4427 234.026 84.504C233.492 83.544 232.756 82.808 231.818 82.296C230.879 81.7627 229.834 81.496 228.682 81.496C227.508 81.496 226.452 81.7627 225.514 82.296C224.575 82.808 223.828 83.544 223.274 84.504C222.74 85.4427 222.474 86.552 222.474 87.832C222.474 89.112 222.74 90.232 223.274 91.192C223.828 92.152 224.575 92.888 225.514 93.4C226.474 93.912 227.53 94.168 228.682 94.168ZM253.207 99.48C251.799 99.48 250.402 99.3413 249.015 99.064C247.628 98.808 246.487 98.4453 245.591 97.976V92.888C246.743 93.4853 247.938 93.9333 249.175 94.232C250.434 94.5307 251.628 94.68 252.759 94.68C253.804 94.68 254.594 94.52 255.127 94.2C255.66 93.88 255.927 93.4213 255.927 92.824C255.927 92.376 255.778 91.992 255.479 91.672C255.202 91.3307 254.786 91.0213 254.231 90.744C253.676 90.4667 252.812 90.0827 251.639 89.592C249.57 88.7173 248.066 87.7467 247.127 86.68C246.188 85.6133 245.719 84.3013 245.719 82.744C245.719 81.464 246.071 80.3227 246.775 79.32C247.5 78.3173 248.503 77.5387 249.783 76.984C251.063 76.4293 252.535 76.152 254.199 76.152C255.564 76.152 256.78 76.2587 257.847 76.472C258.914 76.6853 259.938 77.0267 260.919 77.496V82.456C259.042 81.4747 257.154 80.984 255.255 80.984C254.231 80.984 253.41 81.1547 252.791 81.496C252.194 81.816 251.895 82.2853 251.895 82.904C251.895 83.5227 252.204 84.024 252.823 84.408C253.442 84.792 254.583 85.3147 256.247 85.976C257.762 86.5947 258.935 87.2027 259.767 87.8C260.62 88.3973 261.239 89.0907 261.623 89.88C262.007 90.6693 262.199 91.672 262.199 92.888C262.199 94.9573 261.442 96.5787 259.927 97.752C258.434 98.904 256.194 99.48 253.207 99.48ZM268.61 76.632H278.466C281.068 76.632 283.148 77.3147 284.706 78.68C286.263 80.0453 287.042 81.9547 287.042 84.408C287.042 86.9253 286.263 88.8773 284.706 90.264C283.17 91.6293 281.09 92.312 278.466 92.312H274.274V99H268.61V76.632ZM277.57 87.544C278.7 87.544 279.586 87.3093 280.226 86.84C280.887 86.3707 281.218 85.56 281.218 84.408C281.218 83.256 280.898 82.4667 280.258 82.04C279.618 81.6133 278.722 81.4 277.57 81.4H274.274V87.544H277.57ZM293.114 76.632H298.778V99H293.114V76.632ZM310.989 81.4H304.685V76.632H322.989V81.4H316.653V99H310.989V81.4ZM333.222 76.632H338.79L347.718 99H341.926L340.134 94.392H331.878L330.086 99H324.262L333.222 76.632ZM338.726 90.04L336.006 82.52L333.254 90.04H338.726ZM354.125 76.632H359.789V94.232H369.517V99H354.125V76.632Z" fill="#F0DC87"/>
</svg>
