<svg width="85" height="85" viewBox="0 0 85 85" fill="none" xmlns="http://www.w3.org/2000/svg">
<path d="M60.7721 46.9694L60.7719 46.9695C57.443 48.1886 54.9042 48.4583 52.7414 48.6881C52.5555 48.7079 52.3724 48.7273 52.1918 48.7471C49.9221 48.9951 48.0756 49.2854 45.9817 50.7131L45.9722 50.7196L45.9721 50.7195C44.2415 51.842 42.941 53.8629 42.0419 55.8211C41.1478 57.7685 40.6879 59.5711 40.5947 60.1728C40.211 62.9124 40.8332 65.7461 41.6102 68.8667C41.6738 69.1222 41.7384 69.3796 41.8035 69.6387C42.5263 72.5168 43.3054 75.6191 43.3996 78.9798C43.491 80.7275 43.3353 82.6307 43.0084 84.4H60.6C61.5964 84.4 62.3105 83.6479 62.4 82.6782V64.5C62.4 63.1385 63.6095 61.8 65.1 61.8H82.8C83.6239 61.8 84.3 61.1239 84.3 60.3V23.6C84.3 22.7761 83.6239 22.1 82.8 22.1H65.1C63.7385 22.1 62.4 20.8906 62.4 19.4V2.20001C62.4 1.20514 61.6538 0.5 60.6 0.5H24.4C23.5758 0.5 22.6897 1.27973 22.6 2.22217V19.3C22.6 20.6616 21.3905 22 19.9 22H2.22401C1.33315 22.0912 0.5 22.8194 0.5 23.8V55.7043C1.16489 55.4889 1.88198 55.2776 2.63653 55.0553C8.62654 53.2906 16.9778 50.8303 20.3208 40.0573C20.4672 39.5444 20.6263 38.9294 20.8002 38.2574C21.0824 37.1667 21.4035 35.926 21.7721 34.728C22.3743 32.7709 23.1452 30.7712 24.2037 29.3952C25.2331 28.0569 26.0618 27.3311 26.6399 26.843C26.6747 26.8136 26.7081 26.7855 26.74 26.7586C26.9804 26.5561 27.1401 26.4215 27.2551 26.2962C27.3709 26.1702 27.3961 26.1001 27.4039 26.038L27.4065 26.0165L27.4111 25.9952C27.8949 23.7373 29.6476 21.6952 31.3577 19.9727C31.8311 19.4959 32.333 19.0133 32.8079 18.5568C33.1744 18.2046 33.5248 17.8678 33.8335 17.561C34.5804 16.8188 35.1549 16.185 35.4681 15.6481L35.4797 15.6282L35.4931 15.6094C36.0305 14.8571 36.7421 14.377 37.5099 14.6222C38.2109 14.846 38.6536 15.6005 38.8947 16.4804C39.3599 18.1778 39.2582 20.9489 38.1362 24.3138C40.8669 24.0723 43.6452 24.5047 46.0874 25.5364C47.5036 26.084 48.4977 27.2414 49.3134 28.1912L49.3418 28.2242C49.7673 28.7196 50.1385 29.1504 50.5149 29.4739C50.8861 29.7929 51.2166 29.9661 51.5477 30.0022C53.3085 30.1509 55.0466 30.2255 56.6794 30.291C56.7927 30.2956 56.9055 30.3001 57.0179 30.3046C58.5209 30.3646 59.9334 30.421 61.1677 30.5268C62.4872 30.6399 63.6481 30.8125 64.5221 31.1263C65.3853 31.4363 66.1095 31.9381 66.2891 32.7964M60.7721 46.9694L65.8 32.9M60.7721 46.9694C64.0583 45.7645 65.4697 42.0182 65.4027 37.2488M60.7721 46.9694L64.9 37.1M66.2891 32.7964C66.2893 32.7969 66.2894 32.7975 66.2895 32.798L65.8 32.9M66.2891 32.7964C66.2891 32.796 66.289 32.7956 66.2889 32.7953L65.8 32.9M66.2891 32.7964C66.6086 34.2888 66.3058 35.8728 65.4027 37.2488M65.8 32.9C66.1 34.3 65.8 35.8 64.9 37.1M65.4027 37.2488C65.4019 37.1959 65.401 37.1428 65.3999 37.0896L64.9 37.1M65.4027 37.2488C65.3728 37.2943 65.3423 37.3396 65.3111 37.3846L64.9 37.1M27.1159 37.2201L28 38.281V36.9C28 36.613 28.0261 36.3129 28.1057 36.1006C28.1439 35.9986 28.183 35.9489 28.2078 35.9273C28.2217 35.9152 28.2404 35.9019 28.2895 35.9002C28.2954 35.9024 28.3074 35.9078 28.326 35.9197C28.3692 35.9473 28.4243 35.9954 28.4847 36.065C28.6102 36.2099 28.6991 36.3785 28.7257 36.4581L28.7468 36.5217L28.784 36.5774C28.8648 36.6986 28.9821 36.92 29.1364 37.2206C29.1608 37.268 29.1859 37.317 29.2115 37.3672C29.3415 37.6211 29.487 37.9054 29.6367 38.1781C29.8148 38.5026 30.0104 38.832 30.2085 39.0921C30.3075 39.222 30.4176 39.3486 30.5373 39.4511C30.651 39.5485 30.8137 39.6592 31.0178 39.6932L31.1474 39.7148L31.2709 39.6699C32.2859 39.3008 33.4123 39.2011 34.4831 39.2C35.8624 39.2963 37.3487 39.9473 38.3637 40.87L38.3753 40.8806L38.3877 40.8904C38.9829 41.3666 39.5863 41.493 40.1514 41.4997C40.2799 41.5231 40.4224 41.5411 40.5549 41.5578L40.5733 41.5601C40.736 41.5807 40.894 41.6009 41.0465 41.6291C41.3387 41.6833 41.5193 41.7526 41.6143 41.8256C42.387 43.07 42.4788 44.6786 42.027 46.0377C41.7621 46.7862 41.4022 47.201 40.937 47.5288C40.575 47.7839 40.1658 47.9793 39.6541 48.2236C39.45 48.3211 39.2296 48.4264 38.9894 48.5463C38.2398 48.8693 37.6651 49.2645 37.2023 49.872C36.7473 50.4692 36.4265 51.2382 36.1211 52.2564L36.121 52.2563L36.118 52.2671C35.6894 53.8207 35.8031 55.5315 36.0295 57.2046C36.109 57.7916 36.2012 58.3693 36.2921 58.9387C36.4665 60.0312 36.6361 61.0932 36.701 62.1312L36.7013 62.1356C37.1987 69.1 36.7905 76.46 33.0857 82.5191C32.995 82.6406 32.8781 82.8018 32.7461 82.9837C32.4515 83.39 32.082 83.8995 31.7624 84.3H24.2C23.1685 84.3 22.4226 83.5257 22.4985 82.5383L22.5 82.5192V82.5V64.9184C22.6092 63.3684 21.5312 62.0483 20.0822 61.8068L20.0414 61.8H20H19.9994H19.9988H19.9983H19.9977H19.9971H19.9965H19.996H19.9954H19.9948H19.9943H19.9937H19.9931H19.9926H19.992H19.9915H19.9909H19.9904H19.9898H19.9893H19.9887H19.9882H19.9876H19.9871H19.9866H19.986H19.9855H19.985H19.9844H19.9839H19.9834H19.9829H19.9823H19.9818H19.9813H19.9808H19.9803H19.9798H19.9793H19.9788H19.9783H19.9777H19.9772H19.9767H19.9762H19.9757H19.9753H19.9748H19.9743H19.9738H19.9733H19.9728H19.9723H19.9718H19.9713H19.9709H19.9704H19.9699H19.9694H19.969H19.9685H19.968H19.9675H19.9671H19.9666H19.9661H19.9657H19.9652H19.9647H19.9643H19.9638H19.9634H19.9629H19.9625H19.962H19.9615H19.9611H19.9606H19.9602H19.9598H19.9593H19.9589H19.9584H19.958H19.9575H19.9571H19.9567H19.9562H19.9558H19.9553H19.9549H19.9545H19.954H19.9536H19.9532H19.9527H19.9523H19.9519H19.9515H19.951H19.9506H19.9502H19.9498H19.9493H19.9489H19.9485H19.9481H19.9477H19.9473H19.9468H19.9464H19.946H19.9456H19.9452H19.9448H19.9444H19.9439H19.9435H19.9431H19.9427H19.9423H19.9419H19.9415H19.9411H19.9407H19.9403H19.9399H19.9395H19.9391H19.9387H19.9383H19.9379H19.9375H19.9371H19.9367H19.9363H19.9359H19.9355H19.9351H19.9347H19.9343H19.9339H19.9335H19.9331H19.9327H19.9323H19.9319H19.9315H19.9311H19.9307H19.9303H19.9299H19.9295H19.9291H19.9287H19.9284H19.928H19.9276H19.9272H19.9268H19.9264H19.926H19.9256H19.9252H19.9248H19.9244H19.924H19.9237H19.9233H19.9229H19.9225H19.9221H19.9217H19.9213H19.9209H19.9205H19.9201H19.9197H19.9194H19.919H19.9186H19.9182H19.9178H19.9174H19.917H19.9166H19.9162H19.9158H19.9154H19.915H19.9147H19.9143H19.9139H19.9135H19.9131H19.9127H19.9123H19.9119H19.9115H19.9111H19.9107H19.9103H19.9099H19.9095H19.9091H19.9087H19.9083H19.9079H19.9075H19.9071H19.9067H19.9063H19.9059H19.9055H19.9051H19.9047H19.9043H19.9039H19.9035H19.9031H19.9027H19.9023H19.9019H19.9015H19.9011H19.9006H19.9002H19.8998H19.8994H19.899H19.8986H19.8982H19.8977H19.8973H19.8969H19.8965H19.8961H19.8957H19.8952H19.8948H19.8944H19.894H19.8935H19.8931H19.8927H19.8923H19.8918H19.8914H19.891H19.8905H19.8901H19.8897H19.8892H19.8888H19.8884H19.8879H19.8875H19.8871H19.8866H19.8862H19.8857H19.8853H19.8848H19.8844H19.8839H19.8835H19.883H19.8826H19.8821H19.8817H19.8812H19.8808H19.8803H19.8799H19.8794H19.8789H19.8785H19.878H19.8775H19.8771H19.8766H19.8761H19.8756H19.8752H19.8747H19.8742H19.8737H19.8733H19.8728H19.8723H19.8718H19.8713H19.8708H19.8703H19.8699H19.8694H19.8689H19.8684H19.8679H19.8674H19.8669H19.8664H19.8659H19.8654H19.8648H19.8643H19.8638H19.8633H19.8628H19.8623H19.8617H19.8612H19.8607H19.8602H19.8597H19.8591H19.8586H19.8581H19.8575H19.857H19.8564H19.8559H19.8554H19.8548H19.8543H19.8537H19.8532H19.8526H19.8521H19.8515H19.8509H19.8504H19.8498H19.8492H19.8487H19.8481H19.8475H19.847H19.8464H19.8458H19.8452H19.8446H19.8441H19.8435H19.8429H19.8423H19.8417H19.8411H19.8405H19.8399H19.8393H19.8387H19.8381H19.8375H19.8368H19.8362H19.8356H19.835H19.8344H19.8337H19.8331H19.8325H19.8318H19.8312H19.8305H19.8299H19.8293H19.8286H19.828H19.8273H19.8267H19.826H19.8253H19.8247H19.824H19.8233H19.8227H19.822H19.8213H19.8206H19.8199H19.8193H19.8186H19.8179H19.8172H19.8165H19.8158H19.8151H19.8144H19.8137H19.813H19.8122H19.8115H19.8108H19.8101H19.8094H19.8086H19.8079H19.8072H19.8064H19.8057H19.8049H19.8042H19.8034H19.8027H19.8019H19.8012H19.8004H19.7996H19.7989H19.7981H19.7973H19.7965H19.7958H19.795H19.7942H19.7934H19.7926H19.7918H19.791H19.7902H19.7894H19.7886H19.7877H19.7869H19.7861H19.7853H19.7844H19.7836H19.7828H19.7819H19.7811H19.7802H19.7794H19.7785H19.7777H19.7768H19.776H19.7751H19.7742H19.7733H19.7725H19.7716H19.7707H19.7698H19.7689H19.768H19.7671H19.7662H19.7653H19.7644H19.7635H19.7626H19.7616H19.7607H19.7598H19.7588H19.7579H19.757H19.756H19.7551H19.7541H19.7532H19.7522H19.7512H19.7503H19.7493H19.7483H19.7473H19.7463H19.7453H19.7444H19.7434H19.7424H19.7414H19.7403H19.7393H19.7383H19.7373H19.7363H19.7352H19.7342H19.7332H19.7321H19.7311H19.73H19.729H19.7279H19.7268H19.7258H19.7247H19.7236H19.7225H19.7215H19.7204H19.7193H19.7182H19.7171H19.716H19.7149H19.7137H19.7126H19.7115H19.7104H19.7092H19.7081H19.7069H19.7058H19.7047H19.7035H19.7023H19.7012H19.7H2C1.72655 61.8 1.45474 61.6603 1.23233 61.4175C2.26346 60.2138 3.69001 59.1849 5.281 58.5661C7.8429 57.5809 10.5937 56.8946 13.3356 56.6987L13.3465 56.698L13.3573 56.6967C13.9867 56.6241 14.6445 56.5934 15.3269 56.5652C15.383 56.5629 15.4392 56.5606 15.4957 56.5583C16.1197 56.5328 16.7628 56.5065 17.3961 56.4479C18.7758 56.3201 20.1771 56.0345 21.3817 55.2131L21.4036 55.1982L21.4238 55.181C23.5252 53.3948 24.8031 50.8564 24.7 47.9909V47.9895V47.9843V47.979V47.9738V47.9686V47.9635V47.9583V47.9532V47.9481V47.943V47.9379V47.9328V47.9277V47.9227V47.9176V47.9126V47.9076V47.9026V47.8977V47.8927V47.8878V47.8829V47.878V47.8731V47.8682V47.8633V47.8585V47.8536V47.8488V47.844V47.8392V47.8345V47.8297V47.825V47.8202V47.8155V47.8108V47.8061V47.8015V47.7968V47.7921V47.7875V47.7829V47.7783V47.7737V47.7691V47.7646V47.76V47.7555V47.751V47.7465V47.742V47.7375V47.7331V47.7286V47.7242V47.7198V47.7154V47.711V47.7066V47.7022V47.6979V47.6936V47.6892V47.6849V47.6806V47.6763V47.6721V47.6678V47.6636V47.6593V47.6551V47.6509V47.6467V47.6425V47.6384V47.6342V47.6301V47.626V47.6218V47.6177V47.6137V47.6096V47.6055V47.6015V47.5974V47.5934V47.5894V47.5854V47.5814V47.5774V47.5735V47.5695V47.5656V47.5616V47.5577V47.5538V47.5499V47.5461V47.5422V47.5383V47.5345V47.5307V47.5268V47.523V47.5192V47.5155V47.5117V47.5079V47.5042V47.5004V47.4967V47.493V47.4893V47.4856V47.4819V47.4783V47.4746V47.471V47.4673V47.4637V47.4601V47.4565V47.4529V47.4493V47.4457V47.4422V47.4386V47.4351V47.4316V47.4281V47.4246V47.4211V47.4176V47.4141V47.4107V47.4072V47.4038V47.4003V47.3969V47.3935V47.3901V47.3867V47.3833V47.38V47.3766V47.3733V47.3699V47.3666V47.3633V47.36V47.3567V47.3534V47.3501V47.3468V47.3436V47.3403V47.3371V47.3339V47.3306V47.3274V47.3242V47.321V47.3179V47.3147V47.3115V47.3084V47.3052V47.3021V47.299V47.2958V47.2927V47.2896V47.2865V47.2835V47.2804V47.2773V47.2743V47.2712V47.2682V47.2652V47.2621V47.2591V47.2561V47.2531V47.2501V47.2472V47.2442V47.2412V47.2383V47.2354V47.2324V47.2295V47.2266V47.2237V47.2208V47.2179V47.215V47.2121V47.2092V47.2064V47.2035V47.2007V47.1978V47.195V47.1922V47.1894V47.1866V47.1838V47.181V47.1782V47.1754V47.1726V47.1699V47.1671V47.1644V47.1616V47.1589V47.1562V47.1535V47.1507V47.148V47.1453V47.1426V47.14V47.1373V47.1346V47.132V47.1293V47.1266V47.124V47.1214V47.1187V47.1161V47.1135V47.1109V47.1083V47.1057V47.1031V47.1005V47.0979V47.0954V47.0928V47.0902V47.0877V47.0851V47.0826V47.0801V47.0775V47.075V47.0725V47.07V47.0675V47.065V47.0625V47.06V47.0575V47.0551V47.0526V47.0501V47.0477V47.0452V47.0428V47.0403V47.0379V47.0354V47.033V47.0306V47.0282V47.0258V47.0234V47.021V47.0186V47.0162V47.0138V47.0114V47.009V47.0067V47.0043V47.0019V46.9996V46.9972V46.9949V46.9925V46.9902V46.9879V46.9855V46.9832V46.9809V46.9786V46.9762V46.9739V46.9716V46.9693V46.967V46.9647V46.9625V46.9602V46.9579V46.9556V46.9534V46.9511V46.9488V46.9466V46.9443V46.9421V46.9398V46.9376V46.9353V46.9331V46.9308V46.9286V46.9264V46.9242V46.9219V46.9197V46.9175V46.9153V46.9131V46.9109V46.9087V46.9065V46.9043V46.9021V46.8999V46.8977V46.8955V46.8934V46.8912V46.889V46.8868V46.8847V46.8825V46.8803V46.8782V46.876V46.8738V46.8717V46.8695V46.8674V46.8652V46.8631V46.8609V46.8588V46.8567V46.8545V46.8524V46.8503V46.8481V46.846V46.8439V46.8417V46.8396V46.8375V46.8354V46.8333V46.8311V46.829V46.8269V46.8248V46.8227V46.8206V46.8185V46.8164V46.8143V46.8122V46.8101V46.808V46.8059V46.8038V46.8017V46.7996V46.7975V46.7954V46.7933V46.7912V46.7891V46.787V46.7849V46.7828V46.7807V46.7786V46.7766V46.7745V46.7724V46.7703V46.7682V46.7661V46.764V46.762V46.7599V46.7578V46.7557V46.7536V46.7515V46.7495V46.7474V46.7453V46.7432V46.7411V46.739V46.737V46.7349V46.7328V46.7307V46.7286V46.7265V46.7245V46.7224V46.7203V46.7182V46.7161V46.714V46.7119V46.7098V46.7077V46.7057V46.7036V46.7015V46.6994V46.6973V46.6952V46.6931V46.691V46.6889V46.6868V46.6847V46.6826V46.6805V46.6784V46.6763V46.6742V46.6721V46.67V46.6678V46.6657V46.6636V46.6615V46.6594V46.6573V46.6551V46.653V46.6509V46.6488V46.6466V46.6445V46.6424V46.6402V46.6381V46.636V46.6338V46.6317V46.6295V46.6274V46.6253V46.6231V46.6209V46.6188V46.6166V46.6145V46.6123V46.6101V46.608V46.6058V46.6036V46.6014V46.5993V46.5971V46.5949V46.5927V46.5905V46.5883V46.5861V46.5839V46.5817V46.5795V46.5773V46.5751V46.5729V46.5707V46.5684V46.5662V46.564V46.5617V46.5595V46.5573V46.555V46.5528V46.5505V46.5483V46.546V46.5438V46.5415V46.5392V46.5369V46.5347V46.5324V46.5301V46.5278V46.5255V46.5232V46.5209V46.5186V46.5163V46.514V46.5117V46.5093V46.507V46.5047V46.5023V46.5C24.7 46.3245 24.7496 46.1974 24.8348 45.9791C24.8409 45.9636 24.8471 45.9477 24.8535 45.9312C24.946 45.6935 25.0604 45.3728 24.9983 44.9504C24.9788 44.5049 24.9559 44.0587 24.933 43.6125C24.8365 41.7357 24.7402 39.8599 24.8981 38.0433L24.9 38.0217V38C24.9 37.25 25.1356 36.479 25.4115 35.728C25.4931 35.6843 25.5496 35.675 25.575 35.675C25.5767 35.675 25.5782 35.6751 25.5795 35.6751C25.7831 36.0523 26.0942 36.3209 26.3584 36.537C26.404 36.5744 26.4486 36.6104 26.492 36.6455C26.7312 36.8391 26.9372 37.0057 27.1159 37.2201Z" fill="#393939" stroke="white"/>
</svg>
