<svg width="292" height="93" viewBox="0 0 292 93" fill="none" xmlns="http://www.w3.org/2000/svg">
<path d="M57.82 52.74H49.09L47.59 57H44.02L51.49 36.12H55.45L62.92 57H59.32L57.82 52.74ZM56.86 49.95L53.47 40.26L50.05 49.95H56.86ZM65.028 46.53C65.028 44.49 65.498 42.66 66.438 41.04C67.398 39.42 68.688 38.16 70.308 37.26C71.948 36.34 73.738 35.88 75.678 35.88C77.898 35.88 79.868 36.43 81.588 37.53C83.328 38.61 84.588 40.15 85.368 42.15H81.258C80.718 41.05 79.968 40.23 79.008 39.69C78.048 39.15 76.938 38.88 75.678 38.88C74.298 38.88 73.068 39.19 71.988 39.81C70.908 40.43 70.058 41.32 69.438 42.48C68.838 43.64 68.538 44.99 68.538 46.53C68.538 48.07 68.838 49.42 69.438 50.58C70.058 51.74 70.908 52.64 71.988 53.28C73.068 53.9 74.298 54.21 75.678 54.21C76.938 54.21 78.048 53.94 79.008 53.4C79.968 52.86 80.718 52.04 81.258 50.94H85.368C84.588 52.94 83.328 54.48 81.588 55.56C79.868 56.64 77.898 57.18 75.678 57.18C73.718 57.18 71.928 56.73 70.308 55.83C68.688 54.91 67.398 53.64 66.438 52.02C65.498 50.4 65.028 48.57 65.028 46.53ZM111.331 36.15V57H107.911V42.72L101.551 57H99.1811L92.7911 42.72V57H89.3711V36.15H93.0611L100.381 52.5L107.671 36.15H111.331ZM119.246 38.91V45.03H126.446V47.82H119.246V54.21H127.346V57H115.826V36.12H127.346V38.91H119.246ZM145.862 57.21C144.482 57.21 143.262 56.97 142.202 56.49C141.162 56.01 140.342 55.34 139.742 54.48C139.142 53.62 138.822 52.66 138.782 51.6H141.002C141.102 52.62 141.552 53.52 142.352 54.3C143.152 55.06 144.322 55.44 145.862 55.44C147.282 55.44 148.402 55.08 149.222 54.36C150.062 53.62 150.482 52.69 150.482 51.57C150.482 50.67 150.252 49.95 149.792 49.41C149.332 48.85 148.762 48.44 148.082 48.18C147.402 47.9 146.462 47.6 145.262 47.28C143.862 46.9 142.752 46.53 141.932 46.17C141.112 45.81 140.412 45.25 139.832 44.49C139.252 43.73 138.962 42.7 138.962 41.4C138.962 40.32 139.242 39.36 139.802 38.52C140.362 37.66 141.152 36.99 142.172 36.51C143.192 36.03 144.362 35.79 145.682 35.79C147.622 35.79 149.182 36.27 150.362 37.23C151.562 38.17 152.252 39.39 152.432 40.89H150.152C150.012 40.03 149.542 39.27 148.742 38.61C147.942 37.93 146.862 37.59 145.502 37.59C144.242 37.59 143.192 37.93 142.352 38.61C141.512 39.27 141.092 40.18 141.092 41.34C141.092 42.22 141.322 42.93 141.782 43.47C142.242 44.01 142.812 44.42 143.492 44.7C144.192 44.98 145.132 45.28 146.312 45.6C147.672 45.98 148.772 46.36 149.612 46.74C150.452 47.1 151.162 47.66 151.742 48.42C152.322 49.18 152.612 50.2 152.612 51.48C152.612 52.46 152.352 53.39 151.832 54.27C151.312 55.15 150.542 55.86 149.522 56.4C148.502 56.94 147.282 57.21 145.862 57.21ZM159.4 42.39V52.56C159.4 53.56 159.59 54.25 159.97 54.63C160.35 55.01 161.02 55.2 161.98 55.2H163.9V57H161.65C160.17 57 159.07 56.66 158.35 55.98C157.63 55.28 157.27 54.14 157.27 52.56V42.39H154.99V40.62H157.27V36.51H159.4V40.62H163.9V42.39H159.4ZM169.463 43.53C169.923 42.51 170.623 41.72 171.563 41.16C172.523 40.6 173.693 40.32 175.073 40.32V42.51H174.503C172.983 42.51 171.763 42.92 170.843 43.74C169.923 44.56 169.463 45.93 169.463 47.85V57H167.363V40.62H169.463V43.53ZM193.052 47.97C193.052 48.69 193.032 49.24 192.992 49.62H179.402C179.462 50.86 179.762 51.92 180.302 52.8C180.842 53.68 181.552 54.35 182.432 54.81C183.312 55.25 184.272 55.47 185.312 55.47C186.672 55.47 187.812 55.14 188.732 54.48C189.672 53.82 190.292 52.93 190.592 51.81H192.812C192.412 53.41 191.552 54.72 190.232 55.74C188.932 56.74 187.292 57.24 185.312 57.24C183.772 57.24 182.392 56.9 181.172 56.22C179.952 55.52 178.992 54.54 178.292 53.28C177.612 52 177.272 50.51 177.272 48.81C177.272 47.11 177.612 45.62 178.292 44.34C178.972 43.06 179.922 42.08 181.142 41.4C182.362 40.72 183.752 40.38 185.312 40.38C186.872 40.38 188.232 40.72 189.392 41.4C190.572 42.08 191.472 43 192.092 44.16C192.732 45.3 193.052 46.57 193.052 47.97ZM190.922 47.91C190.942 46.69 190.692 45.65 190.172 44.79C189.672 43.93 188.982 43.28 188.102 42.84C187.222 42.4 186.262 42.18 185.222 42.18C183.662 42.18 182.332 42.68 181.232 43.68C180.132 44.68 179.522 46.09 179.402 47.91H190.922ZM195.934 48.78C195.934 47.1 196.264 45.63 196.924 44.37C197.604 43.09 198.534 42.11 199.714 41.43C200.914 40.73 202.264 40.38 203.764 40.38C205.324 40.38 206.664 40.74 207.784 41.46C208.924 42.18 209.744 43.1 210.244 44.22V40.62H212.344V57H210.244V53.37C209.724 54.49 208.894 55.42 207.754 56.16C206.634 56.88 205.294 57.24 203.734 57.24C202.254 57.24 200.914 56.89 199.714 56.19C198.534 55.49 197.604 54.5 196.924 53.22C196.264 51.94 195.934 50.46 195.934 48.78ZM210.244 48.81C210.244 47.49 209.974 46.33 209.434 45.33C208.894 44.33 208.154 43.56 207.214 43.02C206.294 42.48 205.274 42.21 204.154 42.21C202.994 42.21 201.954 42.47 201.034 42.99C200.114 43.51 199.384 44.27 198.844 45.27C198.324 46.25 198.064 47.42 198.064 48.78C198.064 50.12 198.324 51.3 198.844 52.32C199.384 53.32 200.114 54.09 201.034 54.63C201.954 55.15 202.994 55.41 204.154 55.41C205.274 55.41 206.294 55.14 207.214 54.6C208.154 54.06 208.894 53.29 209.434 52.29C209.974 51.29 210.244 50.13 210.244 48.81ZM236.638 40.32C238.558 40.32 240.118 40.93 241.318 42.15C242.538 43.35 243.148 45.1 243.148 47.4V57H241.078V47.64C241.078 45.86 240.648 44.5 239.788 43.56C238.928 42.62 237.758 42.15 236.278 42.15C234.738 42.15 233.508 42.66 232.588 43.68C231.668 44.7 231.208 46.18 231.208 48.12V57H229.138V47.64C229.138 45.86 228.708 44.5 227.848 43.56C226.988 42.62 225.808 42.15 224.308 42.15C222.768 42.15 221.538 42.66 220.618 43.68C219.698 44.7 219.238 46.18 219.238 48.12V57H217.138V40.62H219.238V43.44C219.758 42.42 220.498 41.65 221.458 41.13C222.418 40.59 223.488 40.32 224.668 40.32C226.088 40.32 227.328 40.66 228.388 41.34C229.468 42.02 230.248 43.02 230.728 44.34C231.168 43.04 231.918 42.05 232.978 41.37C234.058 40.67 235.278 40.32 236.638 40.32ZM248.862 37.53C248.442 37.53 248.082 37.38 247.782 37.08C247.482 36.78 247.332 36.41 247.332 35.97C247.332 35.53 247.482 35.17 247.782 34.89C248.082 34.59 248.442 34.44 248.862 34.44C249.282 34.44 249.642 34.59 249.942 34.89C250.242 35.17 250.392 35.53 250.392 35.97C250.392 36.41 250.242 36.78 249.942 37.08C249.642 37.38 249.282 37.53 248.862 37.53ZM249.912 40.62V57H247.812V40.62H249.912ZM262.348 40.32C264.308 40.32 265.908 40.93 267.148 42.15C268.388 43.35 269.008 45.1 269.008 47.4V57H266.938V47.64C266.938 45.86 266.488 44.5 265.588 43.56C264.708 42.62 263.498 42.15 261.958 42.15C260.378 42.15 259.118 42.65 258.178 43.65C257.238 44.65 256.768 46.12 256.768 48.06V57H254.668V40.62H256.768V43.41C257.288 42.41 258.038 41.65 259.018 41.13C259.998 40.59 261.108 40.32 262.348 40.32ZM280.522 40.38C282.062 40.38 283.402 40.74 284.542 41.46C285.682 42.18 286.502 43.09 287.002 44.19V40.62H289.102V57.42C289.102 58.92 288.772 60.25 288.112 61.41C287.472 62.57 286.572 63.46 285.412 64.08C284.252 64.72 282.932 65.04 281.452 65.04C279.352 65.04 277.602 64.54 276.202 63.54C274.822 62.54 273.962 61.18 273.622 59.46H275.692C276.052 60.6 276.732 61.51 277.732 62.19C278.752 62.87 279.992 63.21 281.452 63.21C282.512 63.21 283.462 62.98 284.302 62.52C285.142 62.08 285.802 61.42 286.282 60.54C286.762 59.66 287.002 58.62 287.002 57.42V53.37C286.482 54.49 285.652 55.42 284.512 56.16C283.392 56.88 282.062 57.24 280.522 57.24C279.022 57.24 277.672 56.89 276.472 56.19C275.292 55.49 274.362 54.5 273.682 53.22C273.022 51.94 272.692 50.46 272.692 48.78C272.692 47.1 273.022 45.63 273.682 44.37C274.362 43.09 275.292 42.11 276.472 41.43C277.672 40.73 279.022 40.38 280.522 40.38ZM287.002 48.81C287.002 47.49 286.732 46.33 286.192 45.33C285.652 44.33 284.912 43.56 283.972 43.02C283.052 42.48 282.032 42.21 280.912 42.21C279.752 42.21 278.712 42.47 277.792 42.99C276.872 43.51 276.142 44.27 275.602 45.27C275.082 46.25 274.822 47.42 274.822 48.78C274.822 50.12 275.082 51.3 275.602 52.32C276.142 53.32 276.872 54.09 277.792 54.63C278.712 55.15 279.752 55.41 280.912 55.41C282.032 55.41 283.052 55.14 283.972 54.6C284.912 54.06 285.652 53.29 286.192 52.29C286.732 51.29 287.002 50.13 287.002 48.81Z" fill="black"/>
<path d="M12.7603 46.5C12.7603 43.8824 14.8823 41.7604 17.4998 41.7604C20.1174 41.7604 22.2394 43.8824 22.2394 46.5C22.2394 49.1176 20.1174 51.2396 17.4998 51.2396C14.8823 51.2396 12.7603 49.1176 12.7603 46.5Z" fill="#FF0000"/>
<path fill-rule="evenodd" clip-rule="evenodd" d="M17.4998 61.0833C25.5539 61.0833 32.0832 54.5541 32.0832 46.5C32.0832 38.4458 25.5539 31.9167 17.4998 31.9167C9.44568 31.9167 2.9165 38.4458 2.9165 46.5C2.9165 54.5541 9.44568 61.0833 17.4998 61.0833ZM17.4998 39.5729C13.6741 39.5729 10.5728 42.6743 10.5728 46.5C10.5728 50.3258 13.6741 53.4271 17.4998 53.4271C21.3256 53.4271 24.4269 50.3258 24.4269 46.5C24.4269 42.6743 21.3256 39.5729 17.4998 39.5729Z" fill="#FF0000"/>
</svg>
