<svg width="85" height="28" viewBox="0 0 85 28" fill="none" xmlns="http://www.w3.org/2000/svg">
<path d="M59.9192 22.5259C58.9989 22.5271 58.099 22.2552 57.3334 21.7446C56.5678 21.234 55.9708 20.5077 55.6182 19.6577C55.2656 18.8076 55.1732 17.8721 55.3526 16.9695C55.5321 16.0669 55.9753 15.2378 56.6262 14.5873L52.994 10.9551C51.1932 12.7978 50.1916 15.2762 50.2065 17.8527C50.2213 20.4292 51.2514 22.8959 53.0733 24.7178C54.8951 26.5397 57.3619 27.5697 59.9383 27.5846C62.5148 27.5994 64.9932 26.5978 66.836 24.7971L63.2016 21.1628C62.7711 21.5948 62.2595 21.9375 61.6963 22.1715C61.133 22.4054 60.5291 22.5258 59.9192 22.5259Z" fill="#211D4F"/>
<path d="M69.7052 17.875H64.5687C64.5692 18.4856 64.449 19.0903 64.2151 19.6544C63.9811 20.2184 63.6381 20.7306 63.2056 21.1617L66.8399 24.796C67.7494 23.8877 68.4707 22.8087 68.9624 21.6211C69.4541 20.4334 69.7065 19.1604 69.7052 17.875Z" fill="#BF5DFF"/>
<path d="M63.2056 14.5856L66.8399 10.9534C65.9322 10.0429 64.8534 9.32087 63.6657 8.82877C62.4779 8.33667 61.2046 8.08423 59.9189 8.08595V13.2224C60.5296 13.222 61.1343 13.3421 61.6983 13.5761C62.2623 13.81 62.7746 14.1531 63.2056 14.5856Z" fill="#03E9CA"/>
<path d="M64.5687 17.8761H69.7052C69.707 16.5906 69.4547 15.3174 68.963 14.1297C68.4713 12.942 67.7498 11.8631 66.8399 10.9551L63.2056 14.5873C63.6383 15.0186 63.9815 15.5312 64.2155 16.0956C64.4494 16.66 64.5695 17.2651 64.5687 17.8761Z" fill="#FFCA6A"/>
<path d="M59.9191 13.2224V8.08595C58.6334 8.08411 57.36 8.33651 56.1722 8.82861C54.9845 9.32071 53.9057 10.0428 52.998 10.9534L56.626 14.5856C57.0578 14.1523 57.5711 13.8088 58.1363 13.5749C58.7015 13.3409 59.3074 13.2211 59.9191 13.2224Z" fill="#0070F0"/>
<path d="M28.3563 8.08398C26.4203 8.08398 24.5278 8.65807 22.9181 9.73363C21.3084 10.8092 20.0538 12.3379 19.313 14.1265C18.5721 15.9151 18.3783 17.8833 18.756 19.782C19.1336 21.6808 20.0659 23.4249 21.4348 24.7939C22.8038 26.1628 24.5479 27.0951 26.4467 27.4727C28.3454 27.8504 30.3136 27.6566 32.1022 26.9157C33.8908 26.1749 35.4195 24.9203 36.4951 23.3106C37.5706 21.7009 38.1447 19.8084 38.1447 17.8724C38.1447 15.2764 37.1134 12.7866 35.2778 10.9509C33.4421 9.11526 30.9524 8.08398 28.3563 8.08398ZM28.3563 22.5054C27.4396 22.5054 26.5434 22.2335 25.7812 21.7242C25.019 21.2149 24.4249 20.491 24.0741 19.6441C23.7232 18.7971 23.6314 17.8652 23.8103 16.966C23.9891 16.0669 24.4306 15.241 25.0788 14.5928C25.727 13.9446 26.5529 13.5031 27.452 13.3243C28.3512 13.1454 29.2831 13.2372 30.1301 13.5881C30.977 13.9389 31.7009 14.533 32.2102 15.2952C32.7195 16.0574 32.9914 16.9536 32.9914 17.8703C32.9914 18.479 32.8715 19.0817 32.6385 19.6441C32.4056 20.2064 32.0642 20.7174 31.6338 21.1478C31.2034 21.5782 30.6924 21.9196 30.1301 22.1525C29.5677 22.3855 28.965 22.5054 28.3563 22.5054Z" fill="#211D4F"/>
<path d="M41.4905 0.339844H46.8714V27.3497H41.4905V0.339844Z" fill="#211D4F"/>
<path d="M72.8169 8.70945H77.0896L77.6268 11.5052H77.6943C78.3286 10.4057 79.2959 9.53627 80.4566 9.02238C81.6173 8.5085 82.9113 8.37677 84.1518 8.64624V13.6921C83.6457 13.5696 83.1259 13.5129 82.6053 13.5236C80.351 13.5236 78.1999 14.735 78.1999 18.2324V27.3487H72.8169V8.70945Z" fill="#211D4F"/>
<path d="M16.8529 24.7972L13.2249 21.1628C12.5745 21.8139 11.7456 22.2574 10.8431 22.4373C9.9406 22.6172 9.00501 22.5253 8.15471 22.1734C7.3044 21.8214 6.57759 21.2252 6.06623 20.4601C5.55486 19.695 5.2819 18.7954 5.2819 17.8751C5.2819 16.9548 5.55486 16.0553 6.06623 15.2902C6.57759 14.525 7.3044 13.9288 8.15471 13.5768C9.00501 13.2249 9.9406 13.133 10.8431 13.3129C11.7456 13.4928 12.5745 13.9363 13.2249 14.5874L16.8571 10.9552C15.4884 9.58682 13.7446 8.65505 11.8463 8.27768C9.94804 7.90031 7.98048 8.09428 6.19244 8.83506C4.40439 9.57585 2.87615 10.8302 1.80094 12.4395C0.725738 14.0488 0.151855 15.9407 0.151855 17.8762C0.151855 19.8116 0.725738 21.7036 1.80094 23.3128C2.87615 24.9221 4.40439 26.1765 6.19244 26.9173C7.98048 27.6581 9.94804 27.852 11.8463 27.4747C13.7446 27.0973 15.4884 26.1655 16.8571 24.7972H16.8529Z" fill="#211D4F"/>
</svg>
