<svg width="856" height="133" viewBox="0 0 856 133" fill="none" xmlns="http://www.w3.org/2000/svg">
    <g clip-path="url(#clip0_14_25)">
        <path d="M0 -6.10352e-05V1.42003C30.7006 15.3839 61.4173 35.7403 81.9031 57.7482C81.3298 58.7357 80.7493 59.7153 80.1643 60.6899C55.149 42.3812 26.9955 29.1803 0 20.8732V42.3918C20.9845 47.1337 43.2903 55.255 64.5477 67.3312C49.4511 61.7631 32.7989 58.3601 15.6481 57.8763C32.1681 63.5541 50.1031 70.893 67.2692 79.7835C49.1193 103.628 26.7131 121.397 0.489822 128.456C33.5418 137.76 79.9993 129.326 109.687 107.097C118.314 114.187 125.918 121.828 132.005 129.99V128.547C129.017 118.487 124.702 108.496 119.37 98.7406C122.953 95.1503 126.131 91.2937 128.818 87.1814C113.109 101.075 93.0741 109.126 68.3296 116.72C90.2047 104.215 109.094 88.6358 123.908 72.1753C126.71 68.8484 129.412 65.4447 132.005 61.9824V51.2623C111.016 79.0026 79.3125 103.949 47.5106 117.169C81.6519 98.0563 118.104 61.4081 130.573 26.8286C119.847 42.0964 106.964 55.6692 93.2125 67.2592C109.267 46.6216 123.455 24.7437 132.005 6.95656V0.00022732H106.877C101.186 18.2591 93.8963 35.9295 85.0893 52.0833C64.8907 30.374 41.4585 12.0742 19.9898 0.00022732H0V-6.10352e-05ZM46.2479 117.631H46.3852C46.2959 117.669 46.2066 117.703 46.1173 117.741C46.1609 117.704 46.2046 117.669 46.2479 117.631Z" fill="#E60000" />
        <path d="M165.406 97.8574C164.062 97.8574 162.878 97.3774 161.854 96.4174C160.894 95.4574 160.414 94.2734 160.414 92.8654V27.8734C160.414 26.4654 160.894 25.2813 161.854 24.3213C162.878 23.3613 164.062 22.8813 165.406 22.8813C166.814 22.8813 167.998 23.3613 168.958 24.3213C169.918 25.2813 170.398 26.4654 170.398 27.8734V56.6733L202.174 24.8974C202.942 24.1294 203.646 23.6173 204.286 23.3613C204.926 23.0413 205.598 22.8813 206.302 22.8813C207.902 22.8813 209.054 23.3613 209.758 24.3213C210.462 25.2813 210.718 26.4334 210.526 27.7774C210.334 29.0574 209.726 30.2413 208.702 31.3293L184.222 55.9054L209.182 89.8894C209.95 90.9774 210.27 92.1614 210.142 93.4414C210.014 94.6574 209.566 95.7134 208.798 96.6094C208.03 97.4414 207.006 97.8574 205.726 97.8574C203.934 97.8574 202.558 97.1534 201.598 95.7454L177.31 62.8174L170.398 69.7294V92.8654C170.398 94.2734 169.918 95.4574 168.958 96.4174C167.998 97.3774 166.814 97.8574 165.406 97.8574V97.8574Z" fill="#E60000" />
        <path d="M229.15 97.8574C227.934 97.8574 226.846 97.4093 225.886 96.5133C224.926 95.6173 224.446 94.4334 224.446 92.9614V45.6334C224.446 41.0254 225.342 37.0254 227.134 33.6334C228.99 30.2414 231.55 27.6174 234.814 25.7614C238.078 23.8414 241.854 22.8813 246.142 22.8813C247.55 22.8813 248.702 23.2973 249.598 24.1293C250.558 24.9613 251.038 26.0173 251.038 27.2973C251.038 28.5133 250.558 29.5694 249.598 30.4654C248.702 31.2974 247.55 31.7134 246.142 31.7134C243.774 31.7134 241.694 32.2573 239.902 33.3453C238.11 34.4333 236.702 35.9374 235.678 37.8574C234.718 39.7774 234.238 42.0494 234.238 44.6734V92.9614C234.238 94.4334 233.79 95.6173 232.894 96.5133C231.998 97.4093 230.75 97.8574 229.15 97.8574V97.8574ZM220.318 55.5214C218.974 55.5214 217.886 55.1374 217.054 54.3694C216.222 53.6014 215.806 52.6413 215.806 51.4893C215.806 50.2093 216.222 49.1854 217.054 48.4174C217.886 47.6494 218.974 47.2653 220.318 47.2653H244.03C245.374 47.2653 246.462 47.6494 247.294 48.4174C248.126 49.1854 248.542 50.2093 248.542 51.4893C248.542 52.6413 248.126 53.6014 247.294 54.3694C246.462 55.1374 245.374 55.5214 244.03 55.5214H220.318Z" fill="#E60000" />
        <path d="M280.606 98.2414C275.422 98.2414 270.846 97.1214 266.878 94.8814C262.91 92.5774 259.774 89.4414 257.47 85.4734C255.23 81.4414 254.11 76.8334 254.11 71.6494C254.11 66.4014 255.23 61.7934 257.47 57.8254C259.774 53.7934 262.91 50.6574 266.878 48.4174C270.846 46.1134 275.422 44.9614 280.606 44.9614C285.726 44.9614 290.27 46.1134 294.238 48.4174C298.206 50.6574 301.31 53.7934 303.55 57.8254C305.854 61.7934 307.006 66.4014 307.006 71.6494C307.006 76.8334 305.886 81.4414 303.646 85.4734C301.406 89.4414 298.302 92.5774 294.334 94.8814C290.366 97.1214 285.79 98.2414 280.606 98.2414V98.2414ZM280.606 89.6014C283.934 89.6014 286.878 88.8334 289.438 87.2974C291.998 85.7614 293.982 83.6494 295.39 80.9614C296.862 78.2734 297.598 75.1694 297.598 71.6494C297.598 68.1294 296.862 65.0254 295.39 62.3374C293.982 59.5854 291.998 57.4414 289.438 55.9054C286.878 54.3694 283.934 53.6014 280.606 53.6014C277.278 53.6014 274.334 54.3694 271.774 55.9054C269.214 57.4414 267.198 59.5854 265.726 62.3374C264.254 65.0254 263.518 68.1294 263.518 71.6494C263.518 75.1694 264.254 78.2734 265.726 80.9614C267.198 83.6494 269.214 85.7614 271.774 87.2974C274.334 88.8334 277.278 89.6014 280.606 89.6014Z" fill="#E60000" />
        <path d="M365.95 97.9534C364.542 97.9534 363.358 97.5054 362.398 96.6094C361.502 95.6494 361.054 94.4654 361.054 93.0574V69.4414C361.054 65.7934 360.382 62.8174 359.038 60.5134C357.694 58.2094 355.87 56.5134 353.566 55.4254C351.326 54.2734 348.734 53.6974 345.79 53.6974C343.102 53.6974 340.67 54.2414 338.494 55.3294C336.318 56.4174 334.59 57.8894 333.31 59.7454C332.03 61.5374 331.39 63.6174 331.39 65.9854H325.342C325.342 61.9534 326.302 58.3694 328.222 55.2334C330.206 52.0334 332.894 49.5054 336.286 47.6494C339.678 45.7934 343.486 44.8654 347.71 44.8654C352.126 44.8654 356.062 45.8254 359.518 47.7454C363.038 49.6014 365.79 52.3534 367.774 56.0014C369.822 59.6494 370.846 64.1294 370.846 69.4414V93.0574C370.846 94.4654 370.366 95.6494 369.406 96.6094C368.51 97.5054 367.358 97.9534 365.95 97.9534V97.9534ZM326.494 97.9534C325.086 97.9534 323.902 97.5054 322.942 96.6094C322.046 95.6494 321.598 94.4654 321.598 93.0574V50.2414C321.598 48.7694 322.046 47.5854 322.942 46.6894C323.902 45.7934 325.086 45.3454 326.494 45.3454C327.966 45.3454 329.15 45.7934 330.046 46.6894C330.942 47.5854 331.39 48.7694 331.39 50.2414V93.0574C331.39 94.4654 330.942 95.6494 330.046 96.6094C329.15 97.5054 327.966 97.9534 326.494 97.9534Z" fill="#E60000" />
        <path d="M411.742 98.2414C406.43 98.2414 401.694 97.1214 397.534 94.8814C393.438 92.5774 390.206 89.4414 387.838 85.4734C385.534 81.4414 384.382 76.8334 384.382 71.6494C384.382 66.4014 385.47 61.7934 387.646 57.8254C389.886 53.7934 392.958 50.6574 396.862 48.4174C400.766 46.1134 405.246 44.9614 410.302 44.9614C415.294 44.9614 419.582 46.0814 423.166 48.3214C426.75 50.4974 429.47 53.5374 431.326 57.4414C433.246 61.2814 434.206 65.7294 434.206 70.7854C434.206 72.0014 433.79 73.0254 432.958 73.8574C432.126 74.6254 431.07 75.0094 429.79 75.0094H391.102V67.3294H429.502L425.566 70.0174C425.502 66.8174 424.862 63.9694 423.646 61.4734C422.43 58.9134 420.702 56.8974 418.462 55.4254C416.222 53.9534 413.502 53.2174 410.302 53.2174C406.654 53.2174 403.518 54.0174 400.894 55.6174C398.334 57.2174 396.382 59.4254 395.038 62.2414C393.694 64.9934 393.022 68.1294 393.022 71.6494C393.022 75.1694 393.822 78.3054 395.422 81.0574C397.022 83.8094 399.23 85.9854 402.046 87.5854C404.862 89.1854 408.094 89.9854 411.742 89.9854C413.726 89.9854 415.742 89.6334 417.79 88.9294C419.902 88.1614 421.598 87.2974 422.878 86.3374C423.838 85.6334 424.862 85.2814 425.95 85.2814C427.102 85.2174 428.094 85.5374 428.926 86.2414C430.014 87.2014 430.59 88.2574 430.654 89.4094C430.718 90.5614 430.206 91.5534 429.118 92.3854C426.942 94.1134 424.222 95.5214 420.958 96.6094C417.758 97.6974 414.686 98.2414 411.742 98.2414V98.2414Z" fill="#E60000" />
    </g>
    <path d="M473.13 100C471.75 100 470.76 99.43 470.16 98.29C469.56 97.15 469.5 96.04 469.98 94.96L496.44 32.14C497.1 30.52 498.24 29.71 499.86 29.71C501.42 29.71 502.53 30.52 503.19 32.14L529.74 95.05C530.28 96.19 530.19 97.3 529.47 98.38C528.81 99.46 527.85 100 526.59 100C525.87 100 525.21 99.82 524.61 99.46C524.07 99.1 523.62 98.56 523.26 97.84L498.51 37.81H501.3L476.37 97.84C476.07 98.56 475.62 99.1 475.02 99.46C474.48 99.82 473.85 100 473.13 100ZM479.07 83.26L481.77 77.23H518.31L521.01 83.26H479.07ZM559.583 100.45C554.843 100.45 550.613 99.37 546.893 97.21C543.233 94.99 540.323 91.99 538.163 88.21C536.063 84.43 535.013 80.17 535.013 75.43C535.013 70.63 536.033 66.34 538.073 62.56C540.113 58.78 542.903 55.81 546.443 53.65C549.983 51.43 554.063 50.32 558.683 50.32C562.343 50.32 565.703 51.04 568.763 52.48C571.883 53.92 574.613 56.08 576.953 58.96C577.613 59.68 577.853 60.46 577.673 61.3C577.493 62.08 576.983 62.77 576.143 63.37C575.483 63.85 574.733 64.03 573.893 63.91C573.113 63.73 572.423 63.28 571.823 62.56C568.343 58.6 563.963 56.62 558.683 56.62C555.323 56.62 552.353 57.43 549.773 59.05C547.253 60.67 545.273 62.89 543.833 65.71C542.453 68.53 541.763 71.77 541.763 75.43C541.763 79.03 542.513 82.24 544.013 85.06C545.513 87.88 547.613 90.1 550.313 91.72C553.013 93.34 556.103 94.15 559.583 94.15C561.923 94.15 564.053 93.85 565.973 93.25C567.953 92.59 569.693 91.6 571.193 90.28C571.913 89.68 572.663 89.35 573.443 89.29C574.223 89.23 574.943 89.47 575.603 90.01C576.323 90.67 576.713 91.42 576.773 92.26C576.893 93.1 576.623 93.82 575.963 94.42C571.583 98.44 566.123 100.45 559.583 100.45ZM613.109 100.45C608.369 100.45 604.139 99.37 600.419 97.21C596.759 94.99 593.849 91.99 591.689 88.21C589.589 84.43 588.539 80.17 588.539 75.43C588.539 70.63 589.559 66.34 591.599 62.56C593.639 58.78 596.429 55.81 599.969 53.65C603.509 51.43 607.589 50.32 612.209 50.32C615.869 50.32 619.229 51.04 622.289 52.48C625.409 53.92 628.139 56.08 630.479 58.96C631.139 59.68 631.379 60.46 631.199 61.3C631.019 62.08 630.509 62.77 629.669 63.37C629.009 63.85 628.259 64.03 627.419 63.91C626.639 63.73 625.949 63.28 625.349 62.56C621.869 58.6 617.489 56.62 612.209 56.62C608.849 56.62 605.879 57.43 603.299 59.05C600.779 60.67 598.799 62.89 597.359 65.71C595.979 68.53 595.289 71.77 595.289 75.43C595.289 79.03 596.039 82.24 597.539 85.06C599.039 87.88 601.139 90.1 603.839 91.72C606.539 93.34 609.629 94.15 613.109 94.15C615.449 94.15 617.579 93.85 619.499 93.25C621.479 92.59 623.219 91.6 624.719 90.28C625.439 89.68 626.189 89.35 626.969 89.29C627.749 89.23 628.469 89.47 629.129 90.01C629.849 90.67 630.239 91.42 630.299 92.26C630.419 93.1 630.149 93.82 629.489 94.42C625.109 98.44 619.649 100.45 613.109 100.45ZM667.084 100.45C662.284 100.45 657.994 99.37 654.214 97.21C650.434 95.05 647.464 92.08 645.304 88.3C643.144 84.52 642.064 80.23 642.064 75.43C642.064 70.57 643.144 66.25 645.304 62.47C647.464 58.69 650.434 55.72 654.214 53.56C657.994 51.4 662.284 50.32 667.084 50.32C671.884 50.32 676.144 51.4 679.864 53.56C683.644 55.72 686.614 58.69 688.774 62.47C690.934 66.25 692.044 70.57 692.104 75.43C692.104 80.23 690.994 84.52 688.774 88.3C686.614 92.08 683.644 95.05 679.864 97.21C676.144 99.37 671.884 100.45 667.084 100.45ZM667.084 94.15C670.564 94.15 673.684 93.34 676.444 91.72C679.204 90.1 681.364 87.88 682.924 85.06C684.484 82.24 685.264 79.03 685.264 75.43C685.264 71.83 684.484 68.62 682.924 65.8C681.364 62.92 679.204 60.67 676.444 59.05C673.684 57.43 670.564 56.62 667.084 56.62C663.604 56.62 660.484 57.43 657.724 59.05C654.964 60.67 652.774 62.92 651.154 65.8C649.594 68.62 648.814 71.83 648.814 75.43C648.814 79.03 649.594 82.24 651.154 85.06C652.774 87.88 654.964 90.1 657.724 91.72C660.484 93.34 663.604 94.15 667.084 94.15ZM727.002 100.54C722.742 100.54 718.932 99.67 715.572 97.93C712.212 96.13 709.542 93.52 707.562 90.1C705.642 86.68 704.682 82.51 704.682 77.59V54.19C704.682 53.23 705.012 52.42 705.672 51.76C706.332 51.1 707.142 50.77 708.102 50.77C709.122 50.77 709.962 51.1 710.622 51.76C711.282 52.42 711.612 53.23 711.612 54.19V77.59C711.612 81.31 712.302 84.37 713.682 86.77C715.122 89.17 717.042 90.97 719.442 92.17C721.902 93.37 724.662 93.97 727.722 93.97C730.662 93.97 733.302 93.4 735.642 92.26C738.042 91.12 739.932 89.56 741.312 87.58C742.692 85.6 743.382 83.35 743.382 80.83H748.332C748.152 84.61 747.102 88 745.182 91C743.322 93.94 740.802 96.28 737.622 98.02C734.442 99.7 730.902 100.54 727.002 100.54ZM746.802 100C745.782 100 744.942 99.7 744.282 99.1C743.682 98.44 743.382 97.57 743.382 96.49V54.19C743.382 53.17 743.682 52.36 744.282 51.76C744.942 51.1 745.782 50.77 746.802 50.77C747.822 50.77 748.662 51.1 749.322 51.76C749.982 52.36 750.312 53.17 750.312 54.19V96.49C750.312 97.57 749.982 98.44 749.322 99.1C748.662 99.7 747.822 100 746.802 100ZM808.701 100C807.681 100 806.841 99.67 806.181 99.01C805.521 98.35 805.191 97.54 805.191 96.58V73.18C805.191 69.46 804.471 66.4 803.031 64C801.651 61.6 799.731 59.8 797.271 58.6C794.871 57.4 792.141 56.8 789.081 56.8C786.141 56.8 783.471 57.37 781.071 58.51C778.731 59.65 776.871 61.21 775.491 63.19C774.111 65.17 773.421 67.42 773.421 69.94H768.471C768.591 66.16 769.611 62.8 771.531 59.86C773.451 56.86 776.001 54.52 779.181 52.84C782.361 51.1 785.901 50.23 789.801 50.23C794.061 50.23 797.871 51.13 801.231 52.93C804.591 54.67 807.231 57.25 809.151 60.67C811.131 64.09 812.121 68.26 812.121 73.18V96.58C812.121 97.54 811.791 98.35 811.131 99.01C810.471 99.67 809.661 100 808.701 100ZM770.001 100C768.921 100 768.051 99.7 767.391 99.1C766.791 98.44 766.491 97.6 766.491 96.58V54.28C766.491 53.2 766.791 52.36 767.391 51.76C768.051 51.1 768.921 50.77 770.001 50.77C771.021 50.77 771.831 51.1 772.431 51.76C773.091 52.36 773.421 53.2 773.421 54.28V96.58C773.421 97.6 773.091 98.44 772.431 99.1C771.831 99.7 771.021 100 770.001 100ZM846.659 100C843.479 100 840.629 99.25 838.109 97.75C835.649 96.25 833.699 94.21 832.259 91.63C830.819 88.99 830.099 85.99 830.099 82.63V38.62C830.099 37.6 830.399 36.76 830.999 36.1C831.659 35.44 832.499 35.11 833.519 35.11C834.539 35.11 835.379 35.44 836.039 36.1C836.699 36.76 837.029 37.6 837.029 38.62V82.63C837.029 85.69 837.929 88.21 839.729 90.19C841.529 92.11 843.839 93.07 846.659 93.07H849.089C850.049 93.07 850.829 93.4 851.429 94.06C852.029 94.72 852.329 95.56 852.329 96.58C852.329 97.6 851.969 98.44 851.249 99.1C850.529 99.7 849.629 100 848.549 100H846.659ZM824.249 58.6C823.349 58.6 822.599 58.33 821.999 57.79C821.399 57.19 821.099 56.47 821.099 55.63C821.099 54.73 821.399 54.01 821.999 53.47C822.599 52.87 823.349 52.57 824.249 52.57H847.199C848.099 52.57 848.849 52.87 849.449 53.47C850.049 54.01 850.349 54.73 850.349 55.63C850.349 56.47 850.049 57.19 849.449 57.79C848.849 58.33 848.099 58.6 847.199 58.6H824.249Z" fill="white" />
    <defs>
        <clipPath id="clip0_14_25">
            <rect width="434.206" height="132.191" fill="white" />
        </clipPath>
    </defs>
</svg>
