<svg width="114.8837mm" height="34.975433mm" viewBox="0 0 114.8837 34.975433" version="1.1" id="svg853" xmlns="http://www.w3.org/2000/svg" xmlns:svg="http://www.w3.org/2000/svg">
   <defs id="defs850" />
   <g id="layer1" transform="translate(-12.383118,-156.91485)">
      <path d="m 12.383118,156.91484 v 0.37574 c 8.122859,3.69462 16.250001,9.08056 21.670188,14.90349 -0.151688,0.26127 -0.305277,0.52047 -0.460057,0.77833 -6.618625,-4.84418 -14.067571,-8.33694 -21.210131,-10.53486 v 5.69349 c 5.552149,1.25463 11.453883,3.40339 17.078253,6.59854 -3.994304,-1.47323 -8.400223,-2.37362 -12.938031,-2.50161 4.370917,1.50226 9.11623,3.44401 13.658098,5.79628 -4.802173,6.30886 -10.730492,11.01024 -17.668722,12.87794 8.745009,2.46171 21.036892,0.23007 28.891691,-5.65133 2.282565,1.87611 4.294635,3.89757 5.905056,6.05717 v -0.38179 c -0.790589,-2.6616 -1.932315,-5.30505 -3.343134,-7.88625 0.948176,-0.94993 1.788908,-1.97033 2.49982,-3.05837 -4.156248,3.67588 -9.457175,5.80623 -16.00417,7.81536 5.78779,-3.30866 10.785505,-7.43055 14.705078,-11.78573 0.741409,-0.88024 1.456234,-1.7808 2.142406,-2.69686 v -2.83639 c -5.553329,7.33964 -13.94159,13.94004 -22.355844,17.43787 9.033226,-5.05694 18.677748,-14.75345 21.976942,-23.90261 -2.837882,4.03963 -6.24659,7.63075 -9.88496,10.69726 4.247742,-5.46036 8.001532,-11.24888 10.263788,-15.95507 v -1.84052 h -6.648311 c -1.505711,4.83099 -3.434556,9.50629 -5.764752,13.78032 -5.3442,-5.74393 -11.543973,-10.58575 -17.224245,-13.78032 h -5.288963 z m 12.236424,31.12332 h 0.03633 c -0.02363,0.01 -0.04726,0.019 -0.07089,0.0291 0.01153,-0.01 0.0231,-0.0191 0.03456,-0.0291 z" id="path2" style="fill:#e60000;fill-opacity:1;stroke-width:0.0310059" />
      <g aria-label="Kfone" id="text3219" style="font-weight:600;font-size:25.4px;font-family:'Baloo 2';-inkscape-font-specification:'Baloo 2 Semi-Bold';fill:#e60000;stroke-width:0.264583">
         <g id="g1626">
            <path d="m 56.146914,182.80629 q -0.5334,0 -0.9398,-0.381 -0.381,-0.381 -0.381,-0.9398 v -17.1958 q 0,-0.5588 0.381,-0.9398 0.4064,-0.381 0.9398,-0.381 0.5588,0 0.9398,0.381 0.381,0.381 0.381,0.9398 v 7.62 l 8.4074,-8.4074 q 0.3048,-0.3048 0.5588,-0.4064 0.254,-0.127 0.5334,-0.127 0.635,0 0.9144,0.381 0.2794,0.381 0.2032,0.9144 -0.0762,0.508 -0.4826,0.9398 l -6.477,6.5024 6.604,8.9916 q 0.3048,0.4318 0.254,0.9398 -0.0508,0.4826 -0.3556,0.8382 -0.3048,0.3302 -0.8128,0.3302 -0.7112,0 -1.0922,-0.5588 l -6.4262,-8.7122 -1.8288,1.8288 v 6.1214 q 0,0.5588 -0.381,0.9398 -0.381,0.381 -0.9398,0.381 z" style="fill:#e60000;font-weight:bold;font-family:Comfortaa;-inkscape-font-specification:'Comfortaa Bold'" id="path1563" />
            <path d="m 73.012509,182.80629 q -0.4826,0 -0.8636,-0.3556 -0.381,-0.3556 -0.381,-0.9398 v -12.5222 q 0,-1.8288 0.7112,-3.175 0.7366,-1.3462 2.032,-2.0828 1.2954,-0.762 2.9972,-0.762 0.5588,0 0.9144,0.3302 0.381,0.3302 0.381,0.8382 0,0.4826 -0.381,0.8382 -0.3556,0.3302 -0.9144,0.3302 -0.9398,0 -1.651,0.4318 -0.7112,0.4318 -1.1176,1.1938 -0.381,0.762 -0.381,1.8034 v 12.7762 q 0,0.5842 -0.3556,0.9398 -0.3556,0.3556 -0.9906,0.3556 z m -2.3368,-11.2014 q -0.5334,0 -0.8636,-0.3048 -0.3302,-0.3048 -0.3302,-0.762 0,-0.508 0.3302,-0.8128 0.3302,-0.3048 0.8636,-0.3048 h 6.2738 q 0.5334,0 0.8636,0.3048 0.3302,0.3048 0.3302,0.8128 0,0.4572 -0.3302,0.762 -0.3302,0.3048 -0.8636,0.3048 z" style="fill:#e60000;font-weight:bold;font-family:Comfortaa;-inkscape-font-specification:'Comfortaa Bold'" id="path1565" />
            <path d="m 86.626864,182.90789 q -2.0574,0 -3.6322,-0.889 -1.5748,-0.9144 -2.4892,-2.4892 -0.889,-1.6002 -0.889,-3.6576 0,-2.0828 0.889,-3.6576 0.9144,-1.6002 2.4892,-2.4892 1.5748,-0.9144 3.6322,-0.9144 2.032,0 3.6068,0.9144 1.5748,0.889 2.4638,2.4892 0.9144,1.5748 0.9144,3.6576 0,2.0574 -0.889,3.6576 -0.889,1.5748 -2.4638,2.4892 -1.5748,0.889 -3.6322,0.889 z m 0,-2.286 q 1.3208,0 2.3368,-0.6096 1.016,-0.6096 1.5748,-1.6764 0.5842,-1.0668 0.5842,-2.4638 0,-1.397 -0.5842,-2.4638 -0.5588,-1.0922 -1.5748,-1.7018 -1.016,-0.6096 -2.3368,-0.6096 -1.3208,0 -2.3368,0.6096 -1.016,0.6096 -1.6002,1.7018 -0.5842,1.0668 -0.5842,2.4638 0,1.397 0.5842,2.4638 0.5842,1.0668 1.6002,1.6764 1.016,0.6096 2.3368,0.6096 z" style="fill:#e60000;font-weight:bold;font-family:Comfortaa;-inkscape-font-specification:'Comfortaa Bold'" id="path1567" />
            <path d="m 109.20744,182.83169 q -0.5588,0 -0.9398,-0.3556 -0.3556,-0.381 -0.3556,-0.9398 v -6.2484 q 0,-1.4478 -0.5334,-2.3622 -0.5334,-0.9144 -1.4478,-1.3462 -0.889,-0.4572 -2.0574,-0.4572 -1.0668,0 -1.9304,0.4318 -0.8636,0.4318 -1.3716,1.1684 -0.508,0.7112 -0.508,1.651 h -1.600198 q 0,-1.6002 0.762,-2.8448 0.787398,-1.27 2.133598,-2.0066 1.3462,-0.7366 3.0226,-0.7366 1.7526,0 3.1242,0.762 1.397,0.7366 2.1844,2.1844 0.8128,1.4478 0.8128,3.556 v 6.2484 q 0,0.5588 -0.381,0.9398 -0.3556,0.3556 -0.9144,0.3556 z m -10.439398,0 q -0.5588,0 -0.9398,-0.3556 -0.3556,-0.381 -0.3556,-0.9398 v -11.3284 q 0,-0.5842 0.3556,-0.9398 0.381,-0.3556 0.9398,-0.3556 0.5842,0 0.9398,0.3556 0.355598,0.3556 0.355598,0.9398 v 11.3284 q 0,0.5588 -0.355598,0.9398 -0.3556,0.3556 -0.9398,0.3556 z" style="fill:#e60000;font-weight:bold;font-family:Comfortaa;-inkscape-font-specification:'Comfortaa Bold'" id="path1569" />
            <path d="m 121.32322,182.90789 q -2.1082,0 -3.7592,-0.889 -1.6256,-0.9144 -2.5654,-2.4892 -0.9144,-1.6002 -0.9144,-3.6576 0,-2.0828 0.8636,-3.6576 0.889,-1.6002 2.4384,-2.4892 1.5494,-0.9144 3.556,-0.9144 1.9812,0 3.4036,0.889 1.4224,0.8636 2.159,2.413 0.762,1.524 0.762,3.5306 0,0.4826 -0.3302,0.8128 -0.3302,0.3048 -0.8382,0.3048 h -10.2362 v -2.032 h 10.16 l -1.0414,0.7112 q -0.0254,-1.27 -0.508,-2.2606 -0.4826,-1.016 -1.3716,-1.6002 -0.889,-0.5842 -2.159,-0.5842 -1.4478,0 -2.4892,0.635 -1.016,0.635 -1.5494,1.7526 -0.5334,1.0922 -0.5334,2.4892 0,1.397 0.635,2.4892 0.635,1.0922 1.7526,1.7272 1.1176,0.635 2.5654,0.635 0.7874,0 1.6002,-0.2794 0.8382,-0.3048 1.3462,-0.6858 0.381,-0.2794 0.8128,-0.2794 0.4572,-0.0254 0.7874,0.254 0.4318,0.381 0.4572,0.8382 0.0254,0.4572 -0.4064,0.7874 -0.8636,0.6858 -2.159,1.1176 -1.27,0.4318 -2.4384,0.4318 z" style="fill:#e60000;font-weight:bold;font-family:Comfortaa;-inkscape-font-specification:'Comfortaa Bold'" id="path1571" />
         </g>
      </g>
   </g>
</svg>
