<svg width="111" height="30" viewBox="0 0 111 30" fill="none" xmlns="http://www.w3.org/2000/svg">
<path d="M104.897 14.281L110.814 30C109.071 29.7497 107.328 29.4372 105.551 29.1551L102.218 20.4687L98.793 28.4375C97.1106 28.1568 95.4586 28.0613 93.7777 27.8429L99.7888 14.0929L94.3385 0H99.3841L102.437 7.87471L105.707 0H110.814L104.897 14.281ZM90.3523 0H85.7736V27.2497C87.268 27.3437 88.8261 27.406 90.3523 27.5926V0ZM81.8178 26.9372C77.6451 26.6551 73.4711 26.4062 69.2045 26.3122V0H73.8758V21.875C76.5539 21.9372 79.2321 22.1557 81.8178 22.2801V26.9372ZM64.2211 10.6568V15.3429H57.8371V25.9997H53.2266V0H66.3081V4.6875H57.8371V10.6568H64.2211ZM45.3771 4.6875V26.25C43.8205 26.25 42.2321 26.25 40.7058 26.3122V4.6875H35.8785V0H50.2362V4.6875H45.3771ZM30.8329 15.5932C28.7777 15.5932 26.3481 15.5932 24.6036 15.6872V22.6562C27.3439 22.4682 30.0857 22.2497 32.8564 22.1557V26.6551L19.9309 27.6881V0H32.8564V4.6875H24.6036V10.9997C26.4103 10.9997 29.1824 10.9057 30.8329 10.9057V15.5932ZM4.95025 12.9687V29.3432C3.26936 29.5312 1.77346 29.7497 0.185059 30V0H4.63951L10.7127 17.0312V0H15.384V28.0613C13.7334 28.3435 12.0525 28.4375 10.2762 28.6863L4.95025 12.9687Z" fill="#E50914"/>
</svg>
