<svg width="176" height="77" viewBox="0 0 176 77" fill="none" xmlns="http://www.w3.org/2000/svg">
<path d="M151.137 21.5652L158.76 42C156.514 41.6746 154.269 41.2684 151.98 40.9016L147.687 29.6094L143.274 39.9688C141.106 39.6039 138.978 39.4797 136.813 39.1957L144.557 21.3207L137.535 3H144.035L147.968 13.2371L152.181 3H158.76L151.137 21.5652ZM132.4 3H126.501V38.4246C128.426 38.5469 130.433 38.6277 132.4 38.8704V3ZM121.405 38.0184C116.029 37.6516 110.652 37.3281 105.155 37.2059V3H111.173V31.4375C114.623 31.5184 118.074 31.8024 121.405 31.9641V38.0184ZM98.7351 16.8539V22.9457H90.5108V36.7996H84.5711V3H101.424V9.09375H90.5108V16.8539H98.7351ZM74.4587 9.09375V37.125C72.4533 37.125 70.407 37.125 68.4407 37.2059V9.09375H62.2217V3H80.7186V9.09375H74.4587ZM55.7216 23.2711C53.0738 23.2711 49.9438 23.2711 47.6964 23.3934V32.4531C51.2267 32.2086 54.7589 31.9246 58.3283 31.8024V37.6516L41.6766 38.9945V3H58.3283V9.09375H47.6964V17.2996C50.0239 17.2996 53.5952 17.1774 55.7216 17.1774V23.2711ZM22.3772 19.8594V41.1461C20.2117 41.3906 18.2846 41.6746 16.2383 42V3H21.9769L29.8009 25.1406V3H35.8189V39.4797C33.6925 39.8465 31.527 39.9688 29.2386 40.2922L22.3772 19.8594Z" fill="#E50914"/>
<rect x="28.5" y="53.5" width="117" height="14" rx="3.5" fill="white" stroke="#E50914"/>
<path d="M32.6392 64V58.1818H36.2472V58.9375H33.517V60.7102H35.9886V61.4631H33.517V64H32.6392ZM42.3807 61.0909C42.3807 61.7121 42.267 62.2462 42.0398 62.6932C41.8125 63.1383 41.5009 63.4811 41.1051 63.7216C40.7112 63.9602 40.2633 64.0795 39.7614 64.0795C39.2576 64.0795 38.8078 63.9602 38.4119 63.7216C38.018 63.4811 37.7074 63.1373 37.4801 62.6903C37.2528 62.2434 37.1392 61.7102 37.1392 61.0909C37.1392 60.4697 37.2528 59.9366 37.4801 59.4915C37.7074 59.0445 38.018 58.7017 38.4119 58.4631C38.8078 58.2225 39.2576 58.1023 39.7614 58.1023C40.2633 58.1023 40.7112 58.2225 41.1051 58.4631C41.5009 58.7017 41.8125 59.0445 42.0398 59.4915C42.267 59.9366 42.3807 60.4697 42.3807 61.0909ZM41.5114 61.0909C41.5114 60.6174 41.4347 60.2187 41.2812 59.8949C41.1297 59.5691 40.9214 59.3229 40.6562 59.1562C40.393 58.9877 40.0947 58.9034 39.7614 58.9034C39.4261 58.9034 39.1269 58.9877 38.8636 59.1562C38.6004 59.3229 38.392 59.5691 38.2386 59.8949C38.0871 60.2187 38.0114 60.6174 38.0114 61.0909C38.0114 61.5644 38.0871 61.964 38.2386 62.2898C38.392 62.6136 38.6004 62.8598 38.8636 63.0284C39.1269 63.1951 39.4261 63.2784 39.7614 63.2784C40.0947 63.2784 40.393 63.1951 40.6562 63.0284C40.9214 62.8598 41.1297 62.6136 41.2812 62.2898C41.4347 61.964 41.5114 61.5644 41.5114 61.0909ZM43.4751 64V58.1818H45.549C45.9998 58.1818 46.3738 58.2595 46.6712 58.4148C46.9704 58.5701 47.1939 58.785 47.3416 59.0597C47.4893 59.3324 47.5632 59.6477 47.5632 60.0057C47.5632 60.3617 47.4884 60.6752 47.3388 60.946C47.1911 61.215 46.9676 61.4242 46.6683 61.5739C46.371 61.7235 45.9969 61.7983 45.5462 61.7983H43.9751V61.0426H45.4666C45.7507 61.0426 45.9818 61.0019 46.1598 60.9205C46.3397 60.839 46.4714 60.7206 46.5547 60.5653C46.638 60.41 46.6797 60.2235 46.6797 60.0057C46.6797 59.786 46.6371 59.5956 46.5518 59.4347C46.4685 59.2737 46.3369 59.1506 46.157 59.0653C45.9789 58.9782 45.745 58.9347 45.4553 58.9347H44.353V64H43.4751ZM46.3473 61.375L47.7848 64H46.7848L45.3757 61.375H46.3473ZM52.6321 64H50.7486V58.1818H52.6918C53.2618 58.1818 53.7514 58.2983 54.1605 58.5312C54.5696 58.7623 54.883 59.0947 55.1009 59.5284C55.3205 59.9602 55.4304 60.4782 55.4304 61.0824C55.4304 61.6884 55.3196 62.2093 55.098 62.6449C54.8783 63.0805 54.5601 63.4157 54.1435 63.6506C53.7268 63.8835 53.223 64 52.6321 64ZM51.6264 63.233H52.5838C53.027 63.233 53.3954 63.1496 53.6889 62.983C53.9825 62.8144 54.2022 62.571 54.348 62.2528C54.4938 61.9328 54.5668 61.5426 54.5668 61.0824C54.5668 60.6259 54.4938 60.2386 54.348 59.9205C54.2041 59.6023 53.9891 59.3608 53.7031 59.196C53.4171 59.0312 53.062 58.9489 52.6378 58.9489H51.6264V63.233ZM56.522 64V58.1818H60.1697V58.9375H57.3999V60.7102H59.9794V61.4631H57.3999V63.2443H60.2038V64H56.522ZM61.3423 58.1818H62.4077L64.2599 62.7045H64.3281L66.1804 58.1818H67.2457V64H66.4105V59.7898H66.3565L64.6406 63.9915H63.9474L62.2315 59.7869H62.1776V64H61.3423V58.1818ZM73.576 61.0909C73.576 61.7121 73.4624 62.2462 73.2351 62.6932C73.0078 63.1383 72.6963 63.4811 72.3004 63.7216C71.9065 63.9602 71.4586 64.0795 70.9567 64.0795C70.4529 64.0795 70.0031 63.9602 69.6072 63.7216C69.2133 63.4811 68.9027 63.1373 68.6754 62.6903C68.4482 62.2434 68.3345 61.7102 68.3345 61.0909C68.3345 60.4697 68.4482 59.9366 68.6754 59.4915C68.9027 59.0445 69.2133 58.7017 69.6072 58.4631C70.0031 58.2225 70.4529 58.1023 70.9567 58.1023C71.4586 58.1023 71.9065 58.2225 72.3004 58.4631C72.6963 58.7017 73.0078 59.0445 73.2351 59.4915C73.4624 59.9366 73.576 60.4697 73.576 61.0909ZM72.7067 61.0909C72.7067 60.6174 72.63 60.2187 72.4766 59.8949C72.325 59.5691 72.1167 59.3229 71.8516 59.1562C71.5883 58.9877 71.29 58.9034 70.9567 58.9034C70.6214 58.9034 70.3222 58.9877 70.0589 59.1562C69.7957 59.3229 69.5874 59.5691 69.4339 59.8949C69.2824 60.2187 69.2067 60.6174 69.2067 61.0909C69.2067 61.5644 69.2824 61.964 69.4339 62.2898C69.5874 62.6136 69.7957 62.8598 70.0589 63.0284C70.3222 63.1951 70.6214 63.2784 70.9567 63.2784C71.29 63.2784 71.5883 63.1951 71.8516 63.0284C72.1167 62.8598 72.325 62.6136 72.4766 62.2898C72.63 61.964 72.7067 61.5644 72.7067 61.0909ZM76.7876 64V58.1818H78.8615C79.3142 58.1818 79.6892 58.2642 79.9865 58.429C80.2839 58.5937 80.5064 58.8191 80.6541 59.1051C80.8018 59.3892 80.8757 59.7093 80.8757 60.0653C80.8757 60.4233 80.8009 60.7453 80.6513 61.0312C80.5036 61.3153 80.2801 61.5407 79.9808 61.7074C79.6835 61.8722 79.3094 61.9545 78.8587 61.9545H77.4325V61.2102H78.7791C79.0651 61.2102 79.2971 61.161 79.4751 61.0625C79.6532 60.9621 79.7839 60.8258 79.8672 60.6534C79.9505 60.4811 79.9922 60.285 79.9922 60.0653C79.9922 59.8456 79.9505 59.6506 79.8672 59.4801C79.7839 59.3097 79.6522 59.1761 79.4723 59.0795C79.2943 58.983 79.0594 58.9347 78.7678 58.9347H77.6655V64H76.7876ZM85.6463 58.1818H86.527V62.0085C86.527 62.4157 86.4313 62.7765 86.2401 63.0909C86.0488 63.4034 85.7798 63.6496 85.4332 63.8295C85.0866 64.0076 84.6804 64.0966 84.2145 64.0966C83.7505 64.0966 83.3452 64.0076 82.9986 63.8295C82.652 63.6496 82.383 63.4034 82.1918 63.0909C82.0005 62.7765 81.9048 62.4157 81.9048 62.0085V58.1818H82.7827V61.9375C82.7827 62.2008 82.8404 62.4347 82.956 62.6392C83.0734 62.8438 83.2391 63.0047 83.4531 63.1222C83.6671 63.2377 83.9209 63.2955 84.2145 63.2955C84.5099 63.2955 84.7647 63.2377 84.9787 63.1222C85.1946 63.0047 85.3594 62.8438 85.473 62.6392C85.5885 62.4347 85.6463 62.2008 85.6463 61.9375V58.1818ZM87.8033 64V58.1818H89.8771C90.3279 58.1818 90.7019 58.2595 90.9993 58.4148C91.2985 58.5701 91.522 58.785 91.6697 59.0597C91.8175 59.3324 91.8913 59.6477 91.8913 60.0057C91.8913 60.3617 91.8165 60.6752 91.6669 60.946C91.5192 61.215 91.2957 61.4242 90.9964 61.5739C90.6991 61.7235 90.325 61.7983 89.8743 61.7983H88.3033V61.0426H89.7947C90.0788 61.0426 90.3099 61.0019 90.4879 60.9205C90.6679 60.839 90.7995 60.7206 90.8828 60.5653C90.9661 60.41 91.0078 60.2235 91.0078 60.0057C91.0078 59.786 90.9652 59.5956 90.88 59.4347C90.7966 59.2737 90.665 59.1506 90.4851 59.0653C90.3071 58.9782 90.0732 58.9347 89.7834 58.9347H88.6811V64H87.8033ZM90.6754 61.375L92.1129 64H91.1129L89.7038 61.375H90.6754ZM92.9595 64V58.1818H95.0334C95.486 58.1818 95.861 58.2642 96.1584 58.429C96.4557 58.5937 96.6783 58.8191 96.826 59.1051C96.9737 59.3892 97.0476 59.7093 97.0476 60.0653C97.0476 60.4233 96.9728 60.7453 96.8232 61.0312C96.6754 61.3153 96.4519 61.5407 96.1527 61.7074C95.8554 61.8722 95.4813 61.9545 95.0305 61.9545H93.6044V61.2102H94.951C95.237 61.2102 95.469 61.161 95.647 61.0625C95.825 60.9621 95.9557 60.8258 96.0391 60.6534C96.1224 60.4811 96.1641 60.285 96.1641 60.0653C96.1641 59.8456 96.1224 59.6506 96.0391 59.4801C95.9557 59.3097 95.8241 59.1761 95.6442 59.0795C95.4661 58.983 95.2313 58.9347 94.9396 58.9347H93.8374V64H92.9595ZM103.131 61.0909C103.131 61.7121 103.017 62.2462 102.79 62.6932C102.563 63.1383 102.251 63.4811 101.855 63.7216C101.461 63.9602 101.013 64.0795 100.511 64.0795C100.008 64.0795 99.5578 63.9602 99.1619 63.7216C98.768 63.4811 98.4574 63.1373 98.2301 62.6903C98.0028 62.2434 97.8892 61.7102 97.8892 61.0909C97.8892 60.4697 98.0028 59.9366 98.2301 59.4915C98.4574 59.0445 98.768 58.7017 99.1619 58.4631C99.5578 58.2225 100.008 58.1023 100.511 58.1023C101.013 58.1023 101.461 58.2225 101.855 58.4631C102.251 58.7017 102.563 59.0445 102.79 59.4915C103.017 59.9366 103.131 60.4697 103.131 61.0909ZM102.261 61.0909C102.261 60.6174 102.185 60.2187 102.031 59.8949C101.88 59.5691 101.671 59.3229 101.406 59.1562C101.143 58.9877 100.845 58.9034 100.511 58.9034C100.176 58.9034 99.8769 58.9877 99.6136 59.1562C99.3504 59.3229 99.142 59.5691 98.9886 59.8949C98.8371 60.2187 98.7614 60.6174 98.7614 61.0909C98.7614 61.5644 98.8371 61.964 98.9886 62.2898C99.142 62.6136 99.3504 62.8598 99.6136 63.0284C99.8769 63.1951 100.176 63.2784 100.511 63.2784C100.845 63.2784 101.143 63.1951 101.406 63.0284C101.671 62.8598 101.88 62.6136 102.031 62.2898C102.185 61.964 102.261 61.5644 102.261 61.0909ZM107.398 59.7102C107.368 59.4413 107.243 59.233 107.023 59.0852C106.804 58.9356 106.527 58.8608 106.194 58.8608C105.955 58.8608 105.749 58.8987 105.575 58.9744C105.4 59.0483 105.265 59.1506 105.168 59.2812C105.074 59.41 105.026 59.5568 105.026 59.7216C105.026 59.8598 105.058 59.9792 105.123 60.0795C105.189 60.1799 105.275 60.2642 105.381 60.3324C105.489 60.3987 105.605 60.4545 105.728 60.5C105.851 60.5436 105.969 60.5795 106.083 60.608L106.651 60.7557C106.837 60.8011 107.027 60.8627 107.222 60.9403C107.417 61.018 107.598 61.1203 107.765 61.2472C107.932 61.3741 108.066 61.5312 108.168 61.7188C108.272 61.9062 108.325 62.1307 108.325 62.392C108.325 62.7216 108.239 63.0142 108.069 63.2699C107.9 63.5256 107.655 63.7273 107.333 63.875C107.013 64.0227 106.626 64.0966 106.171 64.0966C105.736 64.0966 105.359 64.0275 105.04 63.8892C104.722 63.7509 104.473 63.5549 104.293 63.3011C104.113 63.0455 104.014 62.7424 103.995 62.392H104.876C104.893 62.6023 104.961 62.7775 105.08 62.9176C105.201 63.0559 105.356 63.1591 105.543 63.2273C105.733 63.2936 105.94 63.3267 106.165 63.3267C106.414 63.3267 106.634 63.2879 106.827 63.2102C107.022 63.1307 107.176 63.0208 107.288 62.8807C107.399 62.7386 107.455 62.5729 107.455 62.3835C107.455 62.2112 107.406 62.0701 107.308 61.9602C107.211 61.8504 107.079 61.7595 106.913 61.6875C106.748 61.6155 106.561 61.5521 106.353 61.4972L105.665 61.3097C105.2 61.1828 104.83 60.9962 104.558 60.75C104.287 60.5038 104.151 60.178 104.151 59.7727C104.151 59.4375 104.242 59.1449 104.424 58.8949C104.606 58.6449 104.852 58.4508 105.163 58.3125C105.473 58.1723 105.824 58.1023 106.214 58.1023C106.608 58.1023 106.955 58.1714 107.256 58.3097C107.559 58.4479 107.798 58.6383 107.972 58.8807C108.147 59.1212 108.237 59.3977 108.245 59.7102H107.398ZM109.374 64V58.1818H113.021V58.9375H110.251V60.7102H112.831V61.4631H110.251V63.2443H113.055V64H109.374ZM117.367 59.7102C117.337 59.4413 117.212 59.233 116.992 59.0852C116.772 58.9356 116.496 58.8608 116.163 58.8608C115.924 58.8608 115.718 58.8987 115.543 58.9744C115.369 59.0483 115.234 59.1506 115.137 59.2812C115.042 59.41 114.995 59.5568 114.995 59.7216C114.995 59.8598 115.027 59.9792 115.092 60.0795C115.158 60.1799 115.244 60.2642 115.35 60.3324C115.458 60.3987 115.574 60.4545 115.697 60.5C115.82 60.5436 115.938 60.5795 116.052 60.608L116.62 60.7557C116.806 60.8011 116.996 60.8627 117.191 60.9403C117.386 61.018 117.567 61.1203 117.734 61.2472C117.9 61.3741 118.035 61.5312 118.137 61.7188C118.241 61.9062 118.293 62.1307 118.293 62.392C118.293 62.7216 118.208 63.0142 118.038 63.2699C117.869 63.5256 117.624 63.7273 117.302 63.875C116.982 64.0227 116.594 64.0966 116.14 64.0966C115.704 64.0966 115.327 64.0275 115.009 63.8892C114.691 63.7509 114.442 63.5549 114.262 63.3011C114.082 63.0455 113.983 62.7424 113.964 62.392H114.844C114.862 62.6023 114.93 62.7775 115.049 62.9176C115.17 63.0559 115.325 63.1591 115.512 63.2273C115.701 63.2936 115.909 63.3267 116.134 63.3267C116.382 63.3267 116.603 63.2879 116.796 63.2102C116.991 63.1307 117.145 63.0208 117.256 62.8807C117.368 62.7386 117.424 62.5729 117.424 62.3835C117.424 62.2112 117.375 62.0701 117.276 61.9602C117.18 61.8504 117.048 61.7595 116.881 61.6875C116.717 61.6155 116.53 61.5521 116.322 61.4972L115.634 61.3097C115.168 61.1828 114.799 60.9962 114.526 60.75C114.255 60.5038 114.12 60.178 114.12 59.7727C114.12 59.4375 114.211 59.1449 114.393 58.8949C114.575 58.6449 114.821 58.4508 115.131 58.3125C115.442 58.1723 115.792 58.1023 116.183 58.1023C116.576 58.1023 116.924 58.1714 117.225 58.3097C117.528 58.4479 117.767 58.6383 117.941 58.8807C118.115 59.1212 118.206 59.3977 118.214 59.7102H117.367ZM126.513 61.0909C126.513 61.7121 126.4 62.2462 126.173 62.6932C125.945 63.1383 125.634 63.4811 125.238 63.7216C124.844 63.9602 124.396 64.0795 123.894 64.0795C123.39 64.0795 122.941 63.9602 122.545 63.7216C122.151 63.4811 121.84 63.1373 121.613 62.6903C121.386 62.2434 121.272 61.7102 121.272 61.0909C121.272 60.4697 121.386 59.9366 121.613 59.4915C121.84 59.0445 122.151 58.7017 122.545 58.4631C122.941 58.2225 123.39 58.1023 123.894 58.1023C124.396 58.1023 124.844 58.2225 125.238 58.4631C125.634 58.7017 125.945 59.0445 126.173 59.4915C126.4 59.9366 126.513 60.4697 126.513 61.0909ZM125.644 61.0909C125.644 60.6174 125.567 60.2187 125.414 59.8949C125.263 59.5691 125.054 59.3229 124.789 59.1562C124.526 58.9877 124.228 58.9034 123.894 58.9034C123.559 58.9034 123.26 58.9877 122.996 59.1562C122.733 59.3229 122.525 59.5691 122.371 59.8949C122.22 60.2187 122.144 60.6174 122.144 61.0909C122.144 61.5644 122.22 61.964 122.371 62.2898C122.525 62.6136 122.733 62.8598 122.996 63.0284C123.26 63.1951 123.559 63.2784 123.894 63.2784C124.228 63.2784 124.526 63.1951 124.789 63.0284C125.054 62.8598 125.263 62.6136 125.414 62.2898C125.567 61.964 125.644 61.5644 125.644 61.0909ZM132.304 58.1818V64H131.497L128.54 59.733H128.486V64H127.608V58.1818H128.42L131.381 62.4545H131.435V58.1818H132.304ZM133.585 64V58.1818H134.462V63.2443H137.099V64H133.585ZM137.222 58.1818H138.219L139.739 60.8267H139.801L141.321 58.1818H142.318L140.207 61.7159V64H139.332V61.7159L137.222 58.1818Z" fill="#FF0000"/>
</svg>
