<svg width="177" height="34" viewBox="0 0 177 34" fill="none" xmlns="http://www.w3.org/2000/svg">
<g clip-path="url(#clip0_304_443)">
<path d="M31.4072 9.69824C32.3506 9.69824 33.1663 9.88053 33.8545 10.2451C34.8525 10.7692 35.4632 11.6875 35.6865 13H34.3398C34.1758 12.2663 33.8363 11.7331 33.3213 11.4004C32.8063 11.0632 32.1569 10.8945 31.373 10.8945C30.4434 10.8945 29.6595 11.2432 29.0215 11.9404C28.388 12.6377 28.0713 13.6768 28.0713 15.0576C28.0713 16.2516 28.3333 17.2246 28.8574 17.9766C29.3815 18.724 30.236 19.0977 31.4209 19.0977C32.3278 19.0977 33.0775 18.8356 33.6699 18.3115C34.2669 17.7829 34.5723 16.9307 34.5859 15.7549H31.4414V14.627H35.8506V20H34.9756L34.6475 18.708C34.1872 19.2139 33.7793 19.5648 33.4238 19.7607C32.8268 20.098 32.068 20.2666 31.1475 20.2666C29.958 20.2666 28.9349 19.8815 28.0781 19.1113C27.1439 18.1452 26.6768 16.819 26.6768 15.1328C26.6768 13.4512 27.1325 12.1136 28.0439 11.1201C28.9098 10.1722 30.0309 9.69824 31.4072 9.69824ZM39.4395 9.95801V16.165C39.4395 16.8942 39.5762 17.5003 39.8496 17.9834C40.2552 18.7126 40.9388 19.0771 41.9004 19.0771C43.0534 19.0771 43.8372 18.6829 44.252 17.8945C44.4753 17.4661 44.5869 16.8896 44.5869 16.165V9.95801H45.9678V15.5977C45.9678 16.8327 45.8014 17.7829 45.4688 18.4482C44.8581 19.6605 43.7051 20.2666 42.0098 20.2666C40.3145 20.2666 39.1637 19.6605 38.5576 18.4482C38.2249 17.7829 38.0586 16.8327 38.0586 15.5977V9.95801H39.4395ZM53.2344 15.8848L51.71 11.4482L50.0898 15.8848H53.2344ZM50.999 9.95801H52.5371L56.1807 20H54.6904L53.6719 16.9922H49.7002L48.6133 20H47.2188L50.999 9.95801ZM62.0869 14.5586C62.7249 14.5586 63.2285 14.431 63.5977 14.1758C63.9714 13.9206 64.1582 13.4603 64.1582 12.7949C64.1582 12.0794 63.8984 11.5918 63.3789 11.332C63.1009 11.1953 62.7295 11.127 62.2646 11.127H58.9424V14.5586H62.0869ZM57.582 9.95801H62.2305C62.9961 9.95801 63.6273 10.0697 64.124 10.293C65.0674 10.7214 65.5391 11.512 65.5391 12.665C65.5391 13.2666 65.4137 13.7588 65.1631 14.1416C64.917 14.5244 64.5706 14.832 64.124 15.0645C64.516 15.224 64.8099 15.4336 65.0059 15.6934C65.2064 15.9531 65.318 16.3747 65.3408 16.958L65.3887 18.3047C65.4023 18.6875 65.4342 18.9723 65.4844 19.1592C65.5664 19.4782 65.7122 19.6833 65.9219 19.7744V20H64.2539C64.2083 19.9134 64.1719 19.8018 64.1445 19.665C64.1172 19.5283 64.0944 19.264 64.0762 18.8721L63.9941 17.1973C63.9622 16.541 63.7184 16.1012 63.2627 15.8779C63.0029 15.7549 62.5951 15.6934 62.0391 15.6934H58.9424V20H57.582V9.95801ZM71.3906 18.8379C71.8509 18.8379 72.2292 18.79 72.5254 18.6943C73.054 18.5166 73.487 18.1748 73.8242 17.6689C74.0931 17.2633 74.2868 16.7438 74.4053 16.1104C74.4736 15.7321 74.5078 15.3812 74.5078 15.0576C74.5078 13.8135 74.2594 12.8473 73.7627 12.1592C73.2705 11.471 72.4753 11.127 71.377 11.127H68.9639V18.8379H71.3906ZM67.5967 9.95801H71.6641C73.0449 9.95801 74.1159 10.4479 74.877 11.4277C75.556 12.3118 75.8955 13.4443 75.8955 14.8252C75.8955 15.8916 75.695 16.8555 75.2939 17.7168C74.5876 19.2389 73.373 20 71.6504 20H67.5967V9.95801ZM77.96 9.95801H79.334V20H77.96V9.95801ZM85.8828 9.68457C87.6556 9.68457 88.9681 10.2542 89.8203 11.3936C90.4857 12.2822 90.8184 13.4193 90.8184 14.8047C90.8184 16.304 90.4378 17.5505 89.6768 18.5439C88.7835 19.7106 87.5098 20.2939 85.8555 20.2939C84.3105 20.2939 83.096 19.7835 82.2119 18.7627C81.4235 17.7783 81.0293 16.5342 81.0293 15.0303C81.0293 13.6722 81.3665 12.5101 82.041 11.5439C82.9069 10.3044 84.1875 9.68457 85.8828 9.68457ZM86.0195 19.0771C87.2181 19.0771 88.084 18.6488 88.6172 17.792C89.1549 16.9307 89.4238 15.9417 89.4238 14.8252C89.4238 13.6449 89.1139 12.6947 88.4941 11.9746C87.8789 11.2546 87.0358 10.8945 85.9648 10.8945C84.9258 10.8945 84.0781 11.2523 83.4219 11.9678C82.7656 12.6787 82.4375 13.7292 82.4375 15.1191C82.4375 16.2311 82.7178 17.1699 83.2783 17.9355C83.8434 18.6966 84.7572 19.0771 86.0195 19.0771ZM96.6494 9.95801H98.0234V20H96.6494V9.95801ZM100.238 9.95801H101.845L106.917 18.0928V9.95801H108.209V20H106.685L101.537 11.8721V20H100.238V9.95801ZM111.244 16.7598C111.276 17.3294 111.41 17.792 111.647 18.1475C112.099 18.8128 112.894 19.1455 114.033 19.1455C114.544 19.1455 115.008 19.0726 115.428 18.9268C116.239 18.6442 116.645 18.1383 116.645 17.4092C116.645 16.8623 116.474 16.4727 116.132 16.2402C115.785 16.0124 115.243 15.8141 114.505 15.6455L113.145 15.3379C112.256 15.1374 111.627 14.9163 111.258 14.6748C110.62 14.2555 110.301 13.6289 110.301 12.7949C110.301 11.8926 110.613 11.152 111.237 10.5732C111.862 9.99447 112.746 9.70508 113.89 9.70508C114.942 9.70508 115.836 9.96029 116.569 10.4707C117.308 10.9766 117.677 11.7878 117.677 12.9043H116.398C116.33 12.3665 116.184 11.9541 115.961 11.667C115.546 11.1429 114.842 10.8809 113.849 10.8809C113.047 10.8809 112.47 11.0495 112.119 11.3867C111.768 11.724 111.593 12.1159 111.593 12.5625C111.593 13.0547 111.798 13.4147 112.208 13.6426C112.477 13.7884 113.085 13.9707 114.033 14.1895L115.441 14.5107C116.12 14.6657 116.645 14.8776 117.014 15.1465C117.652 15.6159 117.971 16.2972 117.971 17.1904C117.971 18.3024 117.565 19.0977 116.754 19.5762C115.947 20.0547 115.008 20.2939 113.938 20.2939C112.689 20.2939 111.711 19.9749 111.005 19.3369C110.299 18.7035 109.952 17.8444 109.966 16.7598H111.244ZM121.17 9.95801V16.165C121.17 16.8942 121.307 17.5003 121.58 17.9834C121.986 18.7126 122.669 19.0771 123.631 19.0771C124.784 19.0771 125.568 18.6829 125.982 17.8945C126.206 17.4661 126.317 16.8896 126.317 16.165V9.95801H127.698V15.5977C127.698 16.8327 127.532 17.7829 127.199 18.4482C126.589 19.6605 125.436 20.2666 123.74 20.2666C122.045 20.2666 120.894 19.6605 120.288 18.4482C119.955 17.7829 119.789 16.8327 119.789 15.5977V9.95801H121.17ZM134.479 14.5586C135.118 14.5586 135.621 14.431 135.99 14.1758C136.364 13.9206 136.551 13.4603 136.551 12.7949C136.551 12.0794 136.291 11.5918 135.771 11.332C135.493 11.1953 135.122 11.127 134.657 11.127H131.335V14.5586H134.479ZM129.975 9.95801H134.623C135.389 9.95801 136.02 10.0697 136.517 10.293C137.46 10.7214 137.932 11.512 137.932 12.665C137.932 13.2666 137.806 13.7588 137.556 14.1416C137.31 14.5244 136.963 14.832 136.517 15.0645C136.909 15.224 137.202 15.4336 137.398 15.6934C137.599 15.9531 137.711 16.3747 137.733 16.958L137.781 18.3047C137.795 18.6875 137.827 18.9723 137.877 19.1592C137.959 19.4782 138.105 19.6833 138.314 19.7744V20H136.646C136.601 19.9134 136.564 19.8018 136.537 19.665C136.51 19.5283 136.487 19.264 136.469 18.8721L136.387 17.1973C136.355 16.541 136.111 16.1012 135.655 15.8779C135.396 15.7549 134.988 15.6934 134.432 15.6934H131.335V20H129.975V9.95801ZM145.082 15.8848L143.558 11.4482L141.938 15.8848H145.082ZM142.847 9.95801H144.385L148.028 20H146.538L145.52 16.9922H141.548L140.461 20H139.066L142.847 9.95801ZM149.266 9.95801H150.872L155.944 18.0928V9.95801H157.236V20H155.712L150.564 11.8721V20H149.266V9.95801ZM163.614 9.68457C164.886 9.68457 165.872 10.0195 166.574 10.6895C167.276 11.3594 167.666 12.1204 167.743 12.9727H166.417C166.267 12.3255 165.966 11.8128 165.515 11.4346C165.068 11.0563 164.439 10.8672 163.628 10.8672C162.639 10.8672 161.839 11.2158 161.229 11.9131C160.622 12.6058 160.319 13.6699 160.319 15.1055C160.319 16.2812 160.593 17.236 161.14 17.9697C161.691 18.6989 162.511 19.0635 163.601 19.0635C164.603 19.0635 165.367 18.6784 165.891 17.9082C166.169 17.5026 166.376 16.9694 166.513 16.3086H167.839C167.72 17.3659 167.328 18.2523 166.663 18.9678C165.866 19.8291 164.79 20.2598 163.437 20.2598C162.27 20.2598 161.29 19.9066 160.497 19.2002C159.453 18.266 158.932 16.8236 158.932 14.873C158.932 13.3919 159.324 12.1774 160.107 11.2295C160.955 10.1995 162.124 9.68457 163.614 9.68457ZM169.63 9.95801H176.951V11.1885H170.956V14.2373H176.5V15.3994H170.956V18.8037H177.054V20H169.63V9.95801Z" fill="white"/>
<path d="M18.07 7.58083L9.26963 5.01376C9.2024 4.99541 9.13148 4.99541 9.06424 5.01376L0.264012 7.58083C0.187896 7.60303 0.121027 7.64931 0.0734291 7.71272C0.0258307 7.77613 6.70082e-05 7.85326 0 7.93255V14.5328C0.000520375 15.6281 0.217509 16.7126 0.638496 17.7239C1.05948 18.7351 1.67617 19.6532 2.45311 20.4253V20.4291L8.90665 26.8936C8.97616 26.9618 9.06963 27 9.16699 27C9.26435 27 9.35783 26.9618 9.42734 26.8936L15.8809 20.4255C16.6578 19.6533 17.2745 18.7352 17.6955 17.724C18.1165 16.7127 18.3335 15.6282 18.334 14.5329V7.93255C18.334 7.85321 18.3083 7.776 18.2607 7.71252C18.2131 7.64904 18.1461 7.60272 18.07 7.5805V7.58083ZM17.6006 14.5331C17.5999 15.5325 17.4017 16.522 17.0172 17.4446C16.6327 18.3671 16.0695 19.2045 15.3602 19.9086L9.16705 26.1125L2.9738 19.9084C2.26441 19.2043 1.70126 18.3669 1.31675 17.4443C0.932232 16.5217 0.733949 15.5322 0.733307 14.5328V8.20761L9.16694 5.74685L17.6006 8.20761V14.5331Z" fill="url(#paint0_linear_304_443)"/>
<path d="M16.6032 8.68054L9.26971 6.54285C9.20301 6.52087 9.13102 6.52087 9.06432 6.54285L1.73081 8.68054C1.65464 8.70276 1.58773 8.74909 1.54013 8.81257C1.49252 8.87605 1.46679 8.95325 1.4668 9.0326V14.5328C1.46765 15.4361 1.64689 16.3303 1.99424 17.1641C2.34158 17.998 2.85018 18.755 3.49086 19.3917L8.90672 24.8149C8.94055 24.8498 8.98102 24.8774 9.02574 24.8963C9.07046 24.9152 9.11852 24.925 9.16707 24.925C9.21562 24.925 9.26367 24.9152 9.30839 24.8963C9.35311 24.8774 9.39359 24.8498 9.42742 24.8149L14.8396 19.3917C15.4814 18.7557 15.991 17.999 16.339 17.1651C16.687 16.3313 16.8666 15.4368 16.8673 14.5332V9.0326C16.8673 8.95325 16.8416 8.87605 16.794 8.81257C16.7464 8.74909 16.6795 8.70276 16.6033 8.68054H16.6032ZM16.1338 14.5328C16.1323 15.3401 15.9716 16.1392 15.6607 16.8842C15.3499 17.6293 14.8951 18.3057 14.3224 18.8747L9.16679 24.0376L4.01122 18.8747C3.43813 18.306 2.98308 17.6296 2.67221 16.8845C2.36134 16.1394 2.20078 15.3402 2.19978 14.5328V9.30809L9.16647 7.27671L16.134 9.30809L16.1338 14.5328Z" fill="url(#paint1_linear_304_443)"/>
<path d="M9.16703 9.76587C8.22423 9.76587 7.3026 10.0454 6.51869 10.5692C5.73478 11.093 5.1238 11.8375 4.76301 12.7085C4.40221 13.5796 4.30781 14.538 4.49174 15.4627C4.67567 16.3874 5.12968 17.2368 5.79634 17.9034C6.463 18.5701 7.31237 19.0241 8.23706 19.208C9.16174 19.392 10.1202 19.2976 10.9912 18.9368C11.8623 18.576 12.6068 17.965 13.1305 17.1811C13.6543 16.3972 13.9339 15.4755 13.9339 14.5327C13.9339 13.2685 13.4317 12.056 12.5377 11.1621C11.6438 10.2681 10.4313 9.76587 9.16703 9.76587V9.76587ZM9.16703 18.5662C8.36928 18.5662 7.58946 18.3297 6.92616 17.8864C6.26286 17.4432 5.74588 16.8133 5.44059 16.0763C5.13531 15.3393 5.05543 14.5283 5.21107 13.7459C5.3667 12.9634 5.75085 12.2447 6.31494 11.6807C6.87903 11.1166 7.59772 10.7324 8.38014 10.5768C9.16255 10.4212 9.97355 10.501 10.7106 10.8063C11.4476 11.1116 12.0775 11.6286 12.5207 12.2919C12.9639 12.9552 13.2005 13.735 13.2005 14.5327C13.2005 15.6025 12.7755 16.6284 12.0191 17.3848C11.2627 18.1413 10.2368 18.5662 9.16703 18.5662V18.5662Z" fill="url(#paint2_linear_304_443)"/>
<path d="M10.8914 14.6724V16.2339C10.8386 16.312 10.7546 16.3999 10.6394 16.4976C10.5242 16.5933 10.365 16.6772 10.1619 16.7495C9.96069 16.8198 9.70093 16.855 9.38257 16.855C9.1228 16.855 8.88354 16.8101 8.66479 16.7202C8.448 16.6284 8.25952 16.4956 8.09937 16.3218C7.94116 16.146 7.81812 15.9331 7.73022 15.6831C7.64429 15.4312 7.60132 15.146 7.60132 14.8276V14.4966C7.60132 14.1782 7.63843 13.894 7.71265 13.644C7.78882 13.394 7.90015 13.1821 8.04663 13.0083C8.19312 12.8325 8.3728 12.6997 8.58569 12.6099C8.79858 12.5181 9.04272 12.4722 9.31812 12.4722C9.64429 12.4722 9.91675 12.5288 10.1355 12.6421C10.3562 12.7534 10.5281 12.9077 10.6511 13.105C10.7761 13.3022 10.8562 13.5269 10.8914 13.7788H10.3259C10.3005 13.6245 10.2498 13.4839 10.1736 13.3569C10.0994 13.23 9.99292 13.1284 9.85425 13.0522C9.71558 12.9741 9.53687 12.9351 9.31812 12.9351C9.12085 12.9351 8.94995 12.9712 8.80542 13.0435C8.66089 13.1157 8.54175 13.2192 8.448 13.354C8.35425 13.4888 8.28394 13.6519 8.23706 13.8433C8.19214 14.0347 8.16968 14.2505 8.16968 14.4907V14.8276C8.16968 15.0737 8.198 15.2935 8.25464 15.4868C8.31323 15.6802 8.39624 15.8452 8.50366 15.9819C8.61108 16.1167 8.73901 16.2192 8.88745 16.2896C9.03784 16.3599 9.20386 16.395 9.3855 16.395C9.58667 16.395 9.74976 16.3784 9.87476 16.3452C9.99976 16.3101 10.0974 16.269 10.1677 16.2222C10.238 16.1733 10.2917 16.1274 10.3289 16.0845V15.1294H9.34155V14.6724H10.8914Z" fill="#F0803D"/>
</g>
<defs>
<linearGradient id="paint0_linear_304_443" x1="9.16699" y1="4.23" x2="9.16699" y2="29.134" gradientUnits="userSpaceOnUse">
<stop stop-color="#FFF33B"/>
<stop offset="0.014" stop-color="#FEE72E"/>
<stop offset="0.042" stop-color="#FED51B"/>
<stop offset="0.07" stop-color="#FDCA10"/>
<stop offset="0.1" stop-color="#FDC70C"/>
<stop offset="0.4" stop-color="#F3903F"/>
<stop offset="0.8" stop-color="#ED683C"/>
<stop offset="1" stop-color="#E93E3A"/>
</linearGradient>
<linearGradient id="paint1_linear_304_443" x1="9.16707" y1="4.22654" x2="9.16707" y2="29.1383" gradientUnits="userSpaceOnUse">
<stop stop-color="#FFF33B"/>
<stop offset="0.014" stop-color="#FEE72E"/>
<stop offset="0.042" stop-color="#FED51B"/>
<stop offset="0.07" stop-color="#FDCA10"/>
<stop offset="0.1" stop-color="#FDC70C"/>
<stop offset="0.4" stop-color="#F3903F"/>
<stop offset="0.8" stop-color="#ED683C"/>
<stop offset="1" stop-color="#E93E3A"/>
</linearGradient>
<linearGradient id="paint2_linear_304_443" x1="9.16703" y1="4.22675" x2="9.16703" y2="29.1289" gradientUnits="userSpaceOnUse">
<stop stop-color="#FFF33B"/>
<stop offset="0.014" stop-color="#FEE72E"/>
<stop offset="0.042" stop-color="#FED51B"/>
<stop offset="0.07" stop-color="#FDCA10"/>
<stop offset="0.1" stop-color="#FDC70C"/>
<stop offset="0.4" stop-color="#F3903F"/>
<stop offset="0.8" stop-color="#ED683C"/>
<stop offset="1" stop-color="#E93E3A"/>
</linearGradient>
<clipPath id="clip0_304_443">
<rect width="177" height="34" fill="white"/>
</clipPath>
</defs>
</svg>
