<svg width="126" height="46" viewBox="0 0 126 46" fill="none" xmlns="http://www.w3.org/2000/svg">
<path d="M111.897 19.281L117.814 35C116.071 34.7497 114.328 34.4372 112.551 34.1551L109.218 25.4687L105.793 33.4375C104.111 33.1568 102.459 33.0613 100.778 32.8429L106.789 19.0929L101.339 5H106.384L109.437 12.8747L112.707 5H117.814L111.897 19.281ZM97.3523 5H92.7736V32.2497C94.268 32.3437 95.8261 32.406 97.3523 32.5926V5ZM88.8178 31.9372C84.6451 31.6551 80.4711 31.4062 76.2045 31.3122V5H80.8758V26.875C83.5539 26.9372 86.2321 27.1557 88.8178 27.2801V31.9372ZM71.2211 15.6568V20.3429H64.8371V30.9997H60.2266V5H73.3081V9.6875H64.8371V15.6568H71.2211ZM52.3771 9.6875V31.25C50.8205 31.25 49.2321 31.25 47.7058 31.3122V9.6875H42.8785V5H57.2362V9.6875H52.3771ZM37.8329 20.5932C35.7777 20.5932 33.3481 20.5932 31.6036 20.6872V27.6562C34.3439 27.4682 37.0857 27.2497 39.8564 27.1557V31.6551L26.9309 32.6881V5H39.8564V9.6875H31.6036V15.9997C33.4103 15.9997 36.1824 15.9057 37.8329 15.9057V20.5932ZM11.9503 17.9687V34.3432C10.2694 34.5312 8.77346 34.7497 7.18506 35V5H11.6395L17.7127 22.0312V5H22.384V33.0613C20.7334 33.3435 19.0525 33.4375 17.2762 33.6863L11.9503 17.9687Z" fill="#E50914"/>
</svg>
