<svg width="198" height="36" viewBox="0 0 198 36" fill="none" xmlns="http://www.w3.org/2000/svg">
<g clip-path="url(#clip0_304_443)">
<rect width="198" height="36" rx="10" fill="#1E202D"/>
<path d="M41.4072 11.6982C42.3506 11.6982 43.1663 11.8805 43.8545 12.2451C44.8525 12.7692 45.4632 13.6875 45.6865 15H44.3398C44.1758 14.2663 43.8363 13.7331 43.3213 13.4004C42.8063 13.0632 42.1569 12.8945 41.373 12.8945C40.4434 12.8945 39.6595 13.2432 39.0215 13.9404C38.388 14.6377 38.0713 15.6768 38.0713 17.0576C38.0713 18.2516 38.3333 19.2246 38.8574 19.9766C39.3815 20.724 40.236 21.0977 41.4209 21.0977C42.3278 21.0977 43.0775 20.8356 43.6699 20.3115C44.2669 19.7829 44.5723 18.9307 44.5859 17.7549H41.4414V16.627H45.8506V22H44.9756L44.6475 20.708C44.1872 21.2139 43.7793 21.5648 43.4238 21.7607C42.8268 22.098 42.068 22.2666 41.1475 22.2666C39.958 22.2666 38.9349 21.8815 38.0781 21.1113C37.1439 20.1452 36.6768 18.819 36.6768 17.1328C36.6768 15.4512 37.1325 14.1136 38.0439 13.1201C38.9098 12.1722 40.0309 11.6982 41.4072 11.6982ZM49.4395 11.958V18.165C49.4395 18.8942 49.5762 19.5003 49.8496 19.9834C50.2552 20.7126 50.9388 21.0771 51.9004 21.0771C53.0534 21.0771 53.8372 20.6829 54.252 19.8945C54.4753 19.4661 54.5869 18.8896 54.5869 18.165V11.958H55.9678V17.5977C55.9678 18.8327 55.8014 19.7829 55.4688 20.4482C54.8581 21.6605 53.7051 22.2666 52.0098 22.2666C50.3145 22.2666 49.1637 21.6605 48.5576 20.4482C48.2249 19.7829 48.0586 18.8327 48.0586 17.5977V11.958H49.4395ZM63.2344 17.8848L61.71 13.4482L60.0898 17.8848H63.2344ZM60.999 11.958H62.5371L66.1807 22H64.6904L63.6719 18.9922H59.7002L58.6133 22H57.2188L60.999 11.958ZM72.0869 16.5586C72.7249 16.5586 73.2285 16.431 73.5977 16.1758C73.9714 15.9206 74.1582 15.4603 74.1582 14.7949C74.1582 14.0794 73.8984 13.5918 73.3789 13.332C73.1009 13.1953 72.7295 13.127 72.2646 13.127H68.9424V16.5586H72.0869ZM67.582 11.958H72.2305C72.9961 11.958 73.6273 12.0697 74.124 12.293C75.0674 12.7214 75.5391 13.512 75.5391 14.665C75.5391 15.2666 75.4137 15.7588 75.1631 16.1416C74.917 16.5244 74.5706 16.832 74.124 17.0645C74.516 17.224 74.8099 17.4336 75.0059 17.6934C75.2064 17.9531 75.318 18.3747 75.3408 18.958L75.3887 20.3047C75.4023 20.6875 75.4342 20.9723 75.4844 21.1592C75.5664 21.4782 75.7122 21.6833 75.9219 21.7744V22H74.2539C74.2083 21.9134 74.1719 21.8018 74.1445 21.665C74.1172 21.5283 74.0944 21.264 74.0762 20.8721L73.9941 19.1973C73.9622 18.541 73.7184 18.1012 73.2627 17.8779C73.0029 17.7549 72.5951 17.6934 72.0391 17.6934H68.9424V22H67.582V11.958ZM81.3906 20.8379C81.8509 20.8379 82.2292 20.79 82.5254 20.6943C83.054 20.5166 83.487 20.1748 83.8242 19.6689C84.0931 19.2633 84.2868 18.7438 84.4053 18.1104C84.4736 17.7321 84.5078 17.3812 84.5078 17.0576C84.5078 15.8135 84.2594 14.8473 83.7627 14.1592C83.2705 13.471 82.4753 13.127 81.377 13.127H78.9639V20.8379H81.3906ZM77.5967 11.958H81.6641C83.0449 11.958 84.1159 12.4479 84.877 13.4277C85.556 14.3118 85.8955 15.4443 85.8955 16.8252C85.8955 17.8916 85.695 18.8555 85.2939 19.7168C84.5876 21.2389 83.373 22 81.6504 22H77.5967V11.958ZM87.96 11.958H89.334V22H87.96V11.958ZM95.8828 11.6846C97.6556 11.6846 98.9681 12.2542 99.8203 13.3936C100.486 14.2822 100.818 15.4193 100.818 16.8047C100.818 18.304 100.438 19.5505 99.6768 20.5439C98.7835 21.7106 97.5098 22.2939 95.8555 22.2939C94.3105 22.2939 93.096 21.7835 92.2119 20.7627C91.4235 19.7783 91.0293 18.5342 91.0293 17.0303C91.0293 15.6722 91.3665 14.5101 92.041 13.5439C92.9069 12.3044 94.1875 11.6846 95.8828 11.6846ZM96.0195 21.0771C97.2181 21.0771 98.084 20.6488 98.6172 19.792C99.1549 18.9307 99.4238 17.9417 99.4238 16.8252C99.4238 15.6449 99.1139 14.6947 98.4941 13.9746C97.8789 13.2546 97.0358 12.8945 95.9648 12.8945C94.9258 12.8945 94.0781 13.2523 93.4219 13.9678C92.7656 14.6787 92.4375 15.7292 92.4375 17.1191C92.4375 18.2311 92.7178 19.1699 93.2783 19.9355C93.8434 20.6966 94.7572 21.0771 96.0195 21.0771ZM106.649 11.958H108.023V22H106.649V11.958ZM110.238 11.958H111.845L116.917 20.0928V11.958H118.209V22H116.685L111.537 13.8721V22H110.238V11.958ZM121.244 18.7598C121.276 19.3294 121.41 19.792 121.647 20.1475C122.099 20.8128 122.894 21.1455 124.033 21.1455C124.544 21.1455 125.008 21.0726 125.428 20.9268C126.239 20.6442 126.645 20.1383 126.645 19.4092C126.645 18.8623 126.474 18.4727 126.132 18.2402C125.785 18.0124 125.243 17.8141 124.505 17.6455L123.145 17.3379C122.256 17.1374 121.627 16.9163 121.258 16.6748C120.62 16.2555 120.301 15.6289 120.301 14.7949C120.301 13.8926 120.613 13.152 121.237 12.5732C121.862 11.9945 122.746 11.7051 123.89 11.7051C124.942 11.7051 125.836 11.9603 126.569 12.4707C127.308 12.9766 127.677 13.7878 127.677 14.9043H126.398C126.33 14.3665 126.184 13.9541 125.961 13.667C125.546 13.1429 124.842 12.8809 123.849 12.8809C123.047 12.8809 122.47 13.0495 122.119 13.3867C121.768 13.724 121.593 14.1159 121.593 14.5625C121.593 15.0547 121.798 15.4147 122.208 15.6426C122.477 15.7884 123.085 15.9707 124.033 16.1895L125.441 16.5107C126.12 16.6657 126.645 16.8776 127.014 17.1465C127.652 17.6159 127.971 18.2972 127.971 19.1904C127.971 20.3024 127.565 21.0977 126.754 21.5762C125.947 22.0547 125.008 22.2939 123.938 22.2939C122.689 22.2939 121.711 21.9749 121.005 21.3369C120.299 20.7035 119.952 19.8444 119.966 18.7598H121.244ZM131.17 11.958V18.165C131.17 18.8942 131.307 19.5003 131.58 19.9834C131.986 20.7126 132.669 21.0771 133.631 21.0771C134.784 21.0771 135.568 20.6829 135.982 19.8945C136.206 19.4661 136.317 18.8896 136.317 18.165V11.958H137.698V17.5977C137.698 18.8327 137.532 19.7829 137.199 20.4482C136.589 21.6605 135.436 22.2666 133.74 22.2666C132.045 22.2666 130.894 21.6605 130.288 20.4482C129.955 19.7829 129.789 18.8327 129.789 17.5977V11.958H131.17ZM144.479 16.5586C145.118 16.5586 145.621 16.431 145.99 16.1758C146.364 15.9206 146.551 15.4603 146.551 14.7949C146.551 14.0794 146.291 13.5918 145.771 13.332C145.493 13.1953 145.122 13.127 144.657 13.127H141.335V16.5586H144.479ZM139.975 11.958H144.623C145.389 11.958 146.02 12.0697 146.517 12.293C147.46 12.7214 147.932 13.512 147.932 14.665C147.932 15.2666 147.806 15.7588 147.556 16.1416C147.31 16.5244 146.963 16.832 146.517 17.0645C146.909 17.224 147.202 17.4336 147.398 17.6934C147.599 17.9531 147.711 18.3747 147.733 18.958L147.781 20.3047C147.795 20.6875 147.827 20.9723 147.877 21.1592C147.959 21.4782 148.105 21.6833 148.314 21.7744V22H146.646C146.601 21.9134 146.564 21.8018 146.537 21.665C146.51 21.5283 146.487 21.264 146.469 20.8721L146.387 19.1973C146.355 18.541 146.111 18.1012 145.655 17.8779C145.396 17.7549 144.988 17.6934 144.432 17.6934H141.335V22H139.975V11.958ZM155.082 17.8848L153.558 13.4482L151.938 17.8848H155.082ZM152.847 11.958H154.385L158.028 22H156.538L155.52 18.9922H151.548L150.461 22H149.066L152.847 11.958ZM159.266 11.958H160.872L165.944 20.0928V11.958H167.236V22H165.712L160.564 13.8721V22H159.266V11.958ZM173.614 11.6846C174.886 11.6846 175.872 12.0195 176.574 12.6895C177.276 13.3594 177.666 14.1204 177.743 14.9727H176.417C176.267 14.3255 175.966 13.8128 175.515 13.4346C175.068 13.0563 174.439 12.8672 173.628 12.8672C172.639 12.8672 171.839 13.2158 171.229 13.9131C170.622 14.6058 170.319 15.6699 170.319 17.1055C170.319 18.2812 170.593 19.236 171.14 19.9697C171.691 20.6989 172.511 21.0635 173.601 21.0635C174.603 21.0635 175.367 20.6784 175.891 19.9082C176.169 19.5026 176.376 18.9694 176.513 18.3086H177.839C177.72 19.3659 177.328 20.2523 176.663 20.9678C175.866 21.8291 174.79 22.2598 173.437 22.2598C172.27 22.2598 171.29 21.9066 170.497 21.2002C169.453 20.266 168.932 18.8236 168.932 16.873C168.932 15.3919 169.324 14.1774 170.107 13.2295C170.955 12.1995 172.124 11.6846 173.614 11.6846ZM179.63 11.958H186.951V13.1885H180.956V16.2373H186.5V17.3994H180.956V20.8037H187.054V22H179.63V11.958Z" fill="white"/>
<path d="M28.07 9.58083L19.2696 7.01376C19.2024 6.99541 19.1315 6.99541 19.0642 7.01376L10.264 9.58083C10.1879 9.60303 10.121 9.64931 10.0734 9.71272C10.0258 9.77613 10.0001 9.85326 10 9.93255V16.5328C10.0005 17.6281 10.2175 18.7126 10.6385 19.7239C11.0595 20.7351 11.6762 21.6532 12.4531 22.4253V22.4291L18.9066 28.8936C18.9762 28.9618 19.0696 29 19.167 29C19.2644 29 19.3578 28.9618 19.4273 28.8936L25.8809 22.4255C26.6578 21.6533 27.2745 20.7352 27.6955 19.724C28.1165 18.7127 28.3335 17.6282 28.334 16.5329V9.93255C28.334 9.85321 28.3083 9.776 28.2607 9.71252C28.2131 9.64904 28.1461 9.60272 28.07 9.5805V9.58083ZM27.6006 16.5331C27.5999 17.5325 27.4017 18.522 27.0172 19.4446C26.6327 20.3671 26.0695 21.2045 25.3602 21.9086L19.167 28.1125L12.9738 21.9084C12.2644 21.2043 11.7013 20.3669 11.3167 19.4443C10.9322 18.5217 10.7339 17.5322 10.7333 16.5328V10.2076L19.1669 7.74685L27.6006 10.2076V16.5331Z" fill="url(#paint0_linear_304_443)"/>
<path d="M26.6032 10.6805L19.2697 8.54285C19.203 8.52087 19.131 8.52087 19.0643 8.54285L11.7308 10.6805C11.6546 10.7028 11.5877 10.7491 11.5401 10.8126C11.4925 10.876 11.4668 10.9533 11.4668 11.0326V16.5328C11.4677 17.4361 11.6469 18.3303 11.9942 19.1641C12.3416 19.998 12.8502 20.755 13.4909 21.3917L18.9067 26.8149C18.9406 26.8498 18.981 26.8774 19.0257 26.8963C19.0705 26.9152 19.1185 26.925 19.1671 26.925C19.2156 26.925 19.2637 26.9152 19.3084 26.8963C19.3531 26.8774 19.3936 26.8498 19.4274 26.8149L24.8396 21.3917C25.4814 20.7557 25.991 19.999 26.339 19.1651C26.687 18.3313 26.8666 17.4368 26.8673 16.5332V11.0326C26.8673 10.9533 26.8416 10.876 26.794 10.8126C26.7464 10.7491 26.6795 10.7028 26.6033 10.6805H26.6032ZM26.1338 16.5328C26.1323 17.3401 25.9716 18.1392 25.6607 18.8842C25.3499 19.6293 24.8951 20.3057 24.3224 20.8747L19.1668 26.0376L14.0112 20.8747C13.4381 20.306 12.9831 19.6296 12.6722 18.8845C12.3613 18.1394 12.2008 17.3402 12.1998 16.5328V11.3081L19.1665 9.27671L26.134 11.3081L26.1338 16.5328Z" fill="url(#paint1_linear_304_443)"/>
<path d="M19.167 11.7659C18.2242 11.7659 17.3026 12.0454 16.5187 12.5692C15.7348 13.093 15.1238 13.8375 14.763 14.7085C14.4022 15.5796 14.3078 16.538 14.4917 17.4627C14.6757 18.3874 15.1297 19.2368 15.7963 19.9034C16.463 20.5701 17.3124 21.0241 18.2371 21.208C19.1617 21.392 20.1202 21.2976 20.9912 20.9368C21.8623 20.576 22.6068 19.965 23.1305 19.1811C23.6543 18.3972 23.9339 17.4755 23.9339 16.5327C23.9339 15.2685 23.4317 14.056 22.5377 13.1621C21.6438 12.2681 20.4313 11.7659 19.167 11.7659V11.7659ZM19.167 20.5662C18.3693 20.5662 17.5895 20.3297 16.9262 19.8864C16.2629 19.4432 15.7459 18.8133 15.4406 18.0763C15.1353 17.3393 15.0554 16.5283 15.2111 15.7459C15.3667 14.9634 15.7508 14.2447 16.3149 13.6807C16.879 13.1166 17.5977 12.7324 18.3801 12.5768C19.1626 12.4212 19.9735 12.501 20.7106 12.8063C21.4476 13.1116 22.0775 13.6286 22.5207 14.2919C22.9639 14.9552 23.2005 15.735 23.2005 16.5327C23.2005 17.6025 22.7755 18.6284 22.0191 19.3848C21.2627 20.1413 20.2368 20.5662 19.167 20.5662V20.5662Z" fill="url(#paint2_linear_304_443)"/>
<path d="M20.8914 16.6724V18.2339C20.8386 18.312 20.7546 18.3999 20.6394 18.4976C20.5242 18.5933 20.365 18.6772 20.1619 18.7495C19.9607 18.8198 19.7009 18.855 19.3826 18.855C19.1228 18.855 18.8835 18.8101 18.6648 18.7202C18.448 18.6284 18.2595 18.4956 18.0994 18.3218C17.9412 18.146 17.8181 17.9331 17.7302 17.6831C17.6443 17.4312 17.6013 17.146 17.6013 16.8276V16.4966C17.6013 16.1782 17.6384 15.894 17.7126 15.644C17.7888 15.394 17.9001 15.1821 18.0466 15.0083C18.1931 14.8325 18.3728 14.6997 18.5857 14.6099C18.7986 14.5181 19.0427 14.4722 19.3181 14.4722C19.6443 14.4722 19.9167 14.5288 20.1355 14.6421C20.3562 14.7534 20.5281 14.9077 20.6511 15.105C20.7761 15.3022 20.8562 15.5269 20.8914 15.7788H20.3259C20.3005 15.6245 20.2498 15.4839 20.1736 15.3569C20.0994 15.23 19.9929 15.1284 19.8542 15.0522C19.7156 14.9741 19.5369 14.9351 19.3181 14.9351C19.1208 14.9351 18.95 14.9712 18.8054 15.0435C18.6609 15.1157 18.5417 15.2192 18.448 15.354C18.3542 15.4888 18.2839 15.6519 18.2371 15.8433C18.1921 16.0347 18.1697 16.2505 18.1697 16.4907V16.8276C18.1697 17.0737 18.198 17.2935 18.2546 17.4868C18.3132 17.6802 18.3962 17.8452 18.5037 17.9819C18.6111 18.1167 18.739 18.2192 18.8875 18.2896C19.0378 18.3599 19.2039 18.395 19.3855 18.395C19.5867 18.395 19.7498 18.3784 19.8748 18.3452C19.9998 18.3101 20.0974 18.269 20.1677 18.2222C20.238 18.1733 20.2917 18.1274 20.3289 18.0845V17.1294H19.3416V16.6724H20.8914Z" fill="#F0803D"/>
</g>
<defs>
<linearGradient id="paint0_linear_304_443" x1="19.167" y1="6.23" x2="19.167" y2="31.134" gradientUnits="userSpaceOnUse">
<stop stop-color="#FFF33B"/>
<stop offset="0.014" stop-color="#FEE72E"/>
<stop offset="0.042" stop-color="#FED51B"/>
<stop offset="0.07" stop-color="#FDCA10"/>
<stop offset="0.1" stop-color="#FDC70C"/>
<stop offset="0.4" stop-color="#F3903F"/>
<stop offset="0.8" stop-color="#ED683C"/>
<stop offset="1" stop-color="#E93E3A"/>
</linearGradient>
<linearGradient id="paint1_linear_304_443" x1="19.1671" y1="6.22654" x2="19.1671" y2="31.1383" gradientUnits="userSpaceOnUse">
<stop stop-color="#FFF33B"/>
<stop offset="0.014" stop-color="#FEE72E"/>
<stop offset="0.042" stop-color="#FED51B"/>
<stop offset="0.07" stop-color="#FDCA10"/>
<stop offset="0.1" stop-color="#FDC70C"/>
<stop offset="0.4" stop-color="#F3903F"/>
<stop offset="0.8" stop-color="#ED683C"/>
<stop offset="1" stop-color="#E93E3A"/>
</linearGradient>
<linearGradient id="paint2_linear_304_443" x1="19.167" y1="6.22675" x2="19.167" y2="31.1289" gradientUnits="userSpaceOnUse">
<stop stop-color="#FFF33B"/>
<stop offset="0.014" stop-color="#FEE72E"/>
<stop offset="0.042" stop-color="#FED51B"/>
<stop offset="0.07" stop-color="#FDCA10"/>
<stop offset="0.1" stop-color="#FDC70C"/>
<stop offset="0.4" stop-color="#F3903F"/>
<stop offset="0.8" stop-color="#ED683C"/>
<stop offset="1" stop-color="#E93E3A"/>
</linearGradient>
<clipPath id="clip0_304_443">
<rect width="198" height="36" rx="10" fill="white"/>
</clipPath>
</defs>
</svg>
