<svg width="176" height="77" viewBox="0 0 176 77" fill="none" xmlns="http://www.w3.org/2000/svg">
<path d="M151.137 21.5652L158.76 42C156.514 41.6746 154.269 41.2684 151.98 40.9016L147.687 29.6094L143.274 39.9688C141.106 39.6039 138.978 39.4797 136.813 39.1957L144.557 21.3207L137.535 3H144.035L147.968 13.2371L152.181 3H158.76L151.137 21.5652ZM132.4 3H126.501V38.4246C128.426 38.5469 130.433 38.6277 132.4 38.8704V3ZM121.405 38.0184C116.029 37.6516 110.652 37.3281 105.155 37.2059V3H111.173V31.4375C114.623 31.5184 118.074 31.8024 121.405 31.9641V38.0184ZM98.7351 16.8539V22.9457H90.5108V36.7996H84.5711V3H101.424V9.09375H90.5108V16.8539H98.7351ZM74.4587 9.09375V37.125C72.4533 37.125 70.407 37.125 68.4407 37.2059V9.09375H62.2217V3H80.7186V9.09375H74.4587ZM55.7216 23.2711C53.0738 23.2711 49.9438 23.2711 47.6964 23.3934V32.4531C51.2267 32.2086 54.7589 31.9246 58.3283 31.8024V37.6516L41.6766 38.9945V3H58.3283V9.09375H47.6964V17.2996C50.0239 17.2996 53.5952 17.1774 55.7216 17.1774V23.2711ZM22.3772 19.8594V41.1461C20.2117 41.3906 18.2846 41.6746 16.2383 42V3H21.9769L29.8009 25.1406V3H35.8189V39.4797C33.6925 39.8465 31.527 39.9688 29.2386 40.2922L22.3772 19.8594Z" fill="#E50914"/>
<rect x="24.5" y="52.5" width="125" height="14" rx="3.5" fill="white" stroke="#E50914"/>
<path d="M32.2457 63V57.1818H35.973V58.0653H33.2997V59.6449H35.7173V60.5284H33.2997V63H32.2457ZM42.1321 60.0909C42.1321 60.7178 42.0147 61.2547 41.7798 61.7017C41.5469 62.1468 41.2287 62.4877 40.8253 62.7244C40.4238 62.9612 39.9683 63.0795 39.4588 63.0795C38.9493 63.0795 38.4929 62.9612 38.0895 62.7244C37.688 62.4858 37.3698 62.1439 37.1349 61.6989C36.902 61.2519 36.7855 60.7159 36.7855 60.0909C36.7855 59.464 36.902 58.928 37.1349 58.483C37.3698 58.036 37.688 57.6941 38.0895 57.4574C38.4929 57.2206 38.9493 57.1023 39.4588 57.1023C39.9683 57.1023 40.4238 57.2206 40.8253 57.4574C41.2287 57.6941 41.5469 58.036 41.7798 58.483C42.0147 58.928 42.1321 59.464 42.1321 60.0909ZM41.0724 60.0909C41.0724 59.6496 41.0033 59.2775 40.8651 58.9744C40.7287 58.6695 40.5393 58.4394 40.2969 58.2841C40.0545 58.1269 39.7751 58.0483 39.4588 58.0483C39.1425 58.0483 38.8632 58.1269 38.6207 58.2841C38.3783 58.4394 38.188 58.6695 38.0497 58.9744C37.9134 59.2775 37.8452 59.6496 37.8452 60.0909C37.8452 60.5322 37.9134 60.9053 38.0497 61.2102C38.188 61.5133 38.3783 61.7434 38.6207 61.9006C38.8632 62.0559 39.1425 62.1335 39.4588 62.1335C39.7751 62.1335 40.0545 62.0559 40.2969 61.9006C40.5393 61.7434 40.7287 61.5133 40.8651 61.2102C41.0033 60.9053 41.0724 60.5322 41.0724 60.0909ZM43.1286 63V57.1818H45.3104C45.7573 57.1818 46.1323 57.2595 46.4354 57.4148C46.7403 57.5701 46.9704 57.7879 47.1257 58.0682C47.2829 58.3466 47.3615 58.6714 47.3615 59.0426C47.3615 59.4157 47.282 59.7396 47.1229 60.0142C46.9657 60.2869 46.7337 60.4981 46.4268 60.6477C46.12 60.7955 45.7431 60.8693 45.2962 60.8693H43.7422V59.9943H45.1541C45.4155 59.9943 45.6295 59.9583 45.7962 59.8864C45.9628 59.8125 46.0859 59.7055 46.1655 59.5653C46.2469 59.4233 46.2876 59.2491 46.2876 59.0426C46.2876 58.8362 46.2469 58.66 46.1655 58.5142C46.084 58.3665 45.96 58.2547 45.7933 58.179C45.6267 58.1013 45.4117 58.0625 45.1484 58.0625H44.1825V63H43.1286ZM46.1342 60.3636L47.5746 63H46.3984L44.9837 60.3636H46.1342ZM52.2876 63H50.3161V57.1818H52.3274C52.9051 57.1818 53.4013 57.2983 53.8161 57.5312C54.2327 57.7623 54.5528 58.0947 54.7763 58.5284C54.9998 58.9621 55.1115 59.4811 55.1115 60.0852C55.1115 60.6913 54.9988 61.2121 54.7734 61.6477C54.55 62.0833 54.227 62.4176 53.8047 62.6506C53.3842 62.8835 52.8786 63 52.2876 63ZM51.37 62.0881H52.2365C52.6418 62.0881 52.9799 62.0142 53.2507 61.8665C53.5215 61.7169 53.7251 61.4943 53.8615 61.1989C53.9979 60.9015 54.0661 60.5303 54.0661 60.0852C54.0661 59.6402 53.9979 59.2708 53.8615 58.9773C53.7251 58.6818 53.5234 58.4612 53.2564 58.3153C52.9912 58.1676 52.6617 58.0938 52.2678 58.0938H51.37V62.0881ZM56.1129 63V57.1818H59.897V58.0653H57.1669V59.6449H59.701V60.5284H57.1669V62.1165H59.9197V63H56.1129ZM60.9723 57.1818H62.2621L63.9893 61.3977H64.0575L65.7848 57.1818H67.0746V63H66.0632V59.0028H66.0092L64.4013 62.983H63.6456L62.0376 58.9943H61.9837V63H60.9723V57.1818ZM73.4212 60.0909C73.4212 60.7178 73.3037 61.2547 73.0689 61.7017C72.8359 62.1468 72.5178 62.4877 72.1143 62.7244C71.7128 62.9612 71.2573 63.0795 70.7479 63.0795C70.2384 63.0795 69.782 62.9612 69.3786 62.7244C68.977 62.4858 68.6589 62.1439 68.424 61.6989C68.1911 61.2519 68.0746 60.7159 68.0746 60.0909C68.0746 59.464 68.1911 58.928 68.424 58.483C68.6589 58.036 68.977 57.6941 69.3786 57.4574C69.782 57.2206 70.2384 57.1023 70.7479 57.1023C71.2573 57.1023 71.7128 57.2206 72.1143 57.4574C72.5178 57.6941 72.8359 58.036 73.0689 58.483C73.3037 58.928 73.4212 59.464 73.4212 60.0909ZM72.3615 60.0909C72.3615 59.6496 72.2924 59.2775 72.1541 58.9744C72.0178 58.6695 71.8284 58.4394 71.5859 58.2841C71.3435 58.1269 71.0642 58.0483 70.7479 58.0483C70.4316 58.0483 70.1522 58.1269 69.9098 58.2841C69.6674 58.4394 69.477 58.6695 69.3388 58.9744C69.2024 59.2775 69.1342 59.6496 69.1342 60.0909C69.1342 60.5322 69.2024 60.9053 69.3388 61.2102C69.477 61.5133 69.6674 61.7434 69.9098 61.9006C70.1522 62.0559 70.4316 62.1335 70.7479 62.1335C71.0642 62.1335 71.3435 62.0559 71.5859 61.9006C71.8284 61.7434 72.0178 61.5133 72.1541 61.2102C72.2924 60.9053 72.3615 60.5322 72.3615 60.0909ZM76.402 63V57.1818H78.5838C79.0308 57.1818 79.4058 57.2652 79.7088 57.4318C80.0137 57.5985 80.2438 57.8277 80.3991 58.1193C80.5563 58.4091 80.6349 58.7386 80.6349 59.108C80.6349 59.4811 80.5563 59.8125 80.3991 60.1023C80.242 60.392 80.0099 60.6203 79.7031 60.7869C79.3963 60.9517 79.0185 61.0341 78.5696 61.0341H77.1236V60.1676H78.4276C78.6889 60.1676 78.9029 60.1222 79.0696 60.0312C79.2363 59.9403 79.3594 59.8153 79.4389 59.6562C79.5204 59.4972 79.5611 59.3144 79.5611 59.108C79.5611 58.9015 79.5204 58.7197 79.4389 58.5625C79.3594 58.4053 79.2353 58.2831 79.0668 58.196C78.9001 58.107 78.6851 58.0625 78.4219 58.0625H77.456V63H76.402ZM85.218 57.1818H86.272V60.983C86.272 61.3996 86.1735 61.7661 85.9766 62.0824C85.7815 62.3987 85.5069 62.6458 85.1527 62.8239C84.7985 63 84.3847 63.0881 83.9112 63.0881C83.4358 63.0881 83.0211 63 82.6669 62.8239C82.3127 62.6458 82.0381 62.3987 81.843 62.0824C81.648 61.7661 81.5504 61.3996 81.5504 60.983V57.1818H82.6044V60.8949C82.6044 61.1373 82.6574 61.3532 82.7635 61.5426C82.8714 61.732 83.023 61.8807 83.218 61.9886C83.4131 62.0947 83.6442 62.1477 83.9112 62.1477C84.1783 62.1477 84.4093 62.0947 84.6044 61.9886C84.8014 61.8807 84.9529 61.732 85.0589 61.5426C85.165 61.3532 85.218 61.1373 85.218 60.8949V57.1818ZM87.4176 63V57.1818H89.5994C90.0464 57.1818 90.4214 57.2595 90.7244 57.4148C91.0294 57.5701 91.2595 57.7879 91.4148 58.0682C91.572 58.3466 91.6506 58.6714 91.6506 59.0426C91.6506 59.4157 91.571 59.7396 91.4119 60.0142C91.2547 60.2869 91.0227 60.4981 90.7159 60.6477C90.4091 60.7955 90.0322 60.8693 89.5852 60.8693H88.0312V59.9943H89.4432C89.7045 59.9943 89.9186 59.9583 90.0852 59.8864C90.2519 59.8125 90.375 59.7055 90.4545 59.5653C90.536 59.4233 90.5767 59.2491 90.5767 59.0426C90.5767 58.8362 90.536 58.66 90.4545 58.5142C90.3731 58.3665 90.2491 58.2547 90.0824 58.179C89.9157 58.1013 89.7008 58.0625 89.4375 58.0625H88.4716V63H87.4176ZM90.4233 60.3636L91.8636 63H90.6875L89.2727 60.3636H90.4233ZM92.6207 63V57.1818H94.8026C95.2495 57.1818 95.6245 57.2652 95.9276 57.4318C96.2325 57.5985 96.4626 57.8277 96.6179 58.1193C96.7751 58.4091 96.8537 58.7386 96.8537 59.108C96.8537 59.4811 96.7751 59.8125 96.6179 60.1023C96.4607 60.392 96.2287 60.6203 95.9219 60.7869C95.6151 60.9517 95.2372 61.0341 94.7884 61.0341H93.3423V60.1676H94.6463C94.9077 60.1676 95.1217 60.1222 95.2884 60.0312C95.455 59.9403 95.5781 59.8153 95.6577 59.6562C95.7391 59.4972 95.7798 59.3144 95.7798 59.108C95.7798 58.9015 95.7391 58.7197 95.6577 58.5625C95.5781 58.4053 95.4541 58.2831 95.2855 58.196C95.1188 58.107 94.9039 58.0625 94.6406 58.0625H93.6747V63H92.6207ZM102.968 60.0909C102.968 60.7178 102.851 61.2547 102.616 61.7017C102.383 62.1468 102.065 62.4877 101.661 62.7244C101.26 62.9612 100.804 63.0795 100.295 63.0795C99.7853 63.0795 99.3288 62.9612 98.9254 62.7244C98.5239 62.4858 98.2057 62.1439 97.9709 61.6989C97.7379 61.2519 97.6214 60.7159 97.6214 60.0909C97.6214 59.464 97.7379 58.928 97.9709 58.483C98.2057 58.036 98.5239 57.6941 98.9254 57.4574C99.3288 57.2206 99.7853 57.1023 100.295 57.1023C100.804 57.1023 101.26 57.2206 101.661 57.4574C102.065 57.6941 102.383 58.036 102.616 58.483C102.851 58.928 102.968 59.464 102.968 60.0909ZM101.908 60.0909C101.908 59.6496 101.839 59.2775 101.701 58.9744C101.565 58.6695 101.375 58.4394 101.133 58.2841C100.89 58.1269 100.611 58.0483 100.295 58.0483C99.9785 58.0483 99.6991 58.1269 99.4567 58.2841C99.2143 58.4394 99.0239 58.6695 98.8857 58.9744C98.7493 59.2775 98.6811 59.6496 98.6811 60.0909C98.6811 60.5322 98.7493 60.9053 98.8857 61.2102C99.0239 61.5133 99.2143 61.7434 99.4567 61.9006C99.6991 62.0559 99.9785 62.1335 100.295 62.1335C100.611 62.1335 100.89 62.0559 101.133 61.9006C101.375 61.7434 101.565 61.5133 101.701 61.2102C101.839 60.9053 101.908 60.5322 101.908 60.0909ZM107.126 58.7812C107.1 58.5331 106.988 58.34 106.791 58.2017C106.596 58.0634 106.342 57.9943 106.03 57.9943C105.81 57.9943 105.622 58.0275 105.464 58.0938C105.307 58.16 105.187 58.25 105.104 58.3636C105.02 58.4773 104.978 58.607 104.976 58.7528C104.976 58.8741 105.003 58.9792 105.058 59.0682C105.115 59.1572 105.192 59.233 105.288 59.2955C105.385 59.3561 105.492 59.4072 105.609 59.4489C105.727 59.4905 105.845 59.5256 105.964 59.554L106.51 59.6903C106.73 59.7415 106.941 59.8106 107.143 59.8977C107.348 59.9848 107.531 60.0947 107.692 60.2273C107.855 60.3598 107.983 60.5199 108.078 60.7074C108.173 60.8949 108.22 61.1146 108.22 61.3665C108.22 61.7074 108.133 62.0076 107.959 62.267C107.785 62.5246 107.533 62.7263 107.203 62.8722C106.875 63.0161 106.479 63.0881 106.013 63.0881C105.56 63.0881 105.167 63.018 104.834 62.8778C104.502 62.7377 104.243 62.5331 104.055 62.2642C103.87 61.9953 103.769 61.6676 103.754 61.2812H104.791C104.806 61.4839 104.869 61.6525 104.979 61.7869C105.089 61.9214 105.232 62.0218 105.408 62.0881C105.586 62.1544 105.785 62.1875 106.004 62.1875C106.233 62.1875 106.434 62.1534 106.607 62.0852C106.781 62.0152 106.917 61.9186 107.016 61.7955C107.114 61.6705 107.164 61.5246 107.166 61.358C107.164 61.2064 107.12 61.0814 107.033 60.983C106.946 60.8826 106.823 60.7992 106.666 60.733C106.511 60.6648 106.329 60.6042 106.121 60.5511L105.459 60.3807C104.98 60.2576 104.601 60.071 104.322 59.821C104.046 59.5691 103.908 59.2348 103.908 58.8182C103.908 58.4754 104 58.1752 104.186 57.9176C104.374 57.66 104.628 57.4602 104.95 57.3182C105.272 57.1742 105.637 57.1023 106.044 57.1023C106.457 57.1023 106.819 57.1742 107.129 57.3182C107.442 57.4602 107.687 57.6581 107.865 57.9119C108.043 58.1638 108.135 58.4536 108.141 58.7812H107.126ZM109.16 63V57.1818H112.944V58.0653H110.214V59.6449H112.748V60.5284H110.214V62.1165H112.967V63H109.16ZM117.181 58.7812C117.155 58.5331 117.043 58.34 116.846 58.2017C116.651 58.0634 116.397 57.9943 116.085 57.9943C115.865 57.9943 115.676 58.0275 115.519 58.0938C115.362 58.16 115.242 58.25 115.158 58.3636C115.075 58.4773 115.032 58.607 115.031 58.7528C115.031 58.8741 115.058 58.9792 115.113 59.0682C115.17 59.1572 115.246 59.233 115.343 59.2955C115.44 59.3561 115.547 59.4072 115.664 59.4489C115.781 59.4905 115.9 59.5256 116.019 59.554L116.565 59.6903C116.784 59.7415 116.996 59.8106 117.198 59.8977C117.403 59.9848 117.585 60.0947 117.746 60.2273C117.909 60.3598 118.038 60.5199 118.133 60.7074C118.228 60.8949 118.275 61.1146 118.275 61.3665C118.275 61.7074 118.188 62.0076 118.013 62.267C117.839 62.5246 117.587 62.7263 117.258 62.8722C116.93 63.0161 116.533 63.0881 116.067 63.0881C115.615 63.0881 115.222 63.018 114.888 62.8778C114.557 62.7377 114.298 62.5331 114.11 62.2642C113.924 61.9953 113.824 61.6676 113.809 61.2812H114.846C114.861 61.4839 114.924 61.6525 115.033 61.7869C115.143 61.9214 115.286 62.0218 115.462 62.0881C115.64 62.1544 115.839 62.1875 116.059 62.1875C116.288 62.1875 116.489 62.1534 116.661 62.0852C116.835 62.0152 116.972 61.9186 117.07 61.7955C117.169 61.6705 117.219 61.5246 117.221 61.358C117.219 61.2064 117.174 61.0814 117.087 60.983C117 60.8826 116.878 60.7992 116.721 60.733C116.566 60.6648 116.384 60.6042 116.175 60.5511L115.513 60.3807C115.034 60.2576 114.656 60.071 114.377 59.821C114.101 59.5691 113.962 59.2348 113.962 58.8182C113.962 58.4754 114.055 58.1752 114.241 57.9176C114.428 57.66 114.683 57.4602 115.005 57.3182C115.327 57.1742 115.692 57.1023 116.099 57.1023C116.512 57.1023 116.873 57.1742 117.184 57.3182C117.496 57.4602 117.742 57.6581 117.92 57.9119C118.098 58.1638 118.19 58.4536 118.195 58.7812H117.181ZM126.398 60.0909C126.398 60.7178 126.28 61.2547 126.045 61.7017C125.813 62.1468 125.494 62.4877 125.091 62.7244C124.689 62.9612 124.234 63.0795 123.724 63.0795C123.215 63.0795 122.759 62.9612 122.355 62.7244C121.954 62.4858 121.635 62.1439 121.401 61.6989C121.168 61.2519 121.051 60.7159 121.051 60.0909C121.051 59.464 121.168 58.928 121.401 58.483C121.635 58.036 121.954 57.6941 122.355 57.4574C122.759 57.2206 123.215 57.1023 123.724 57.1023C124.234 57.1023 124.689 57.2206 125.091 57.4574C125.494 57.6941 125.813 58.036 126.045 58.483C126.28 58.928 126.398 59.464 126.398 60.0909ZM125.338 60.0909C125.338 59.6496 125.269 59.2775 125.131 58.9744C124.994 58.6695 124.805 58.4394 124.562 58.2841C124.32 58.1269 124.041 58.0483 123.724 58.0483C123.408 58.0483 123.129 58.1269 122.886 58.2841C122.644 58.4394 122.454 58.6695 122.315 58.9744C122.179 59.2775 122.111 59.6496 122.111 60.0909C122.111 60.5322 122.179 60.9053 122.315 61.2102C122.454 61.5133 122.644 61.7434 122.886 61.9006C123.129 62.0559 123.408 62.1335 123.724 62.1335C124.041 62.1335 124.32 62.0559 124.562 61.9006C124.805 61.7434 124.994 61.5133 125.131 61.2102C125.269 60.9053 125.338 60.5322 125.338 60.0909ZM132.175 57.1818V63H131.238L128.496 59.0369H128.448V63H127.394V57.1818H128.337L131.076 61.1477H131.127V57.1818H132.175ZM133.324 63V57.1818H134.378V62.1165H136.94V63H133.324ZM136.871 57.1818H138.062L139.485 59.7557H139.542L140.965 57.1818H142.156L140.039 60.8295V63H138.988V60.8295L136.871 57.1818Z" fill="#FF0000"/>
</svg>
