<svg width="162" height="40" viewBox="0 0 162 40" fill="none" xmlns="http://www.w3.org/2000/svg">
<path d="M6.13 31V10H9.31L19.84 25.81V10H23.02V31H19.84L9.31 15.19V31H6.13ZM27.2823 31V10H40.6323V12.58H30.4623V19.12H39.7323V21.64H30.4623V28.42H40.6323V31H27.2823ZM49.341 31V12.58H43.131V10H58.701V12.58H52.521V31H49.341ZM61.6769 31V10H74.8469V12.58H64.8569V19.21H73.1369V21.76H64.8569V31H61.6769ZM77.9659 31V10H81.1459V28.48H90.6859V31H77.9659ZM94.1085 31V10H97.2885V31H94.1085ZM110.91 31.36C108.83 31.36 107.03 30.91 105.51 30.01C104.01 29.09 102.85 27.82 102.03 26.2C101.21 24.56 100.8 22.67 100.8 20.53C100.8 18.37 101.21 16.48 102.03 14.86C102.85 13.22 104.01 11.94 105.51 11.02C107.03 10.1 108.83 9.64 110.91 9.64C113.37 9.64 115.38 10.24 116.94 11.44C118.5 12.64 119.49 14.32 119.91 16.48H116.37C116.09 15.26 115.49 14.29 114.57 13.57C113.65 12.85 112.42 12.49 110.88 12.49C108.78 12.49 107.12 13.21 105.9 14.65C104.68 16.07 104.07 18.03 104.07 20.53C104.07 23.01 104.68 24.96 105.9 26.38C107.12 27.8 108.78 28.51 110.88 28.51C112.42 28.51 113.65 28.17 114.57 27.49C115.49 26.81 116.09 25.88 116.37 24.7H119.91C119.49 26.78 118.5 28.41 116.94 29.59C115.38 30.77 113.37 31.36 110.91 31.36ZM123.405 31V10H126.585V19L134.865 10H138.795L131.025 18.37L138.975 31H135.105L128.745 20.8L126.585 23.14V31H123.405ZM148.675 31.36C147.135 31.36 145.785 31.09 144.625 30.55C143.465 30.01 142.555 29.24 141.895 28.24C141.255 27.24 140.925 26.05 140.905 24.67H144.265C144.285 25.79 144.675 26.74 145.435 27.52C146.195 28.3 147.265 28.69 148.645 28.69C149.865 28.69 150.815 28.4 151.495 27.82C152.195 27.22 152.545 26.46 152.545 25.54C152.545 24.8 152.375 24.2 152.035 23.74C151.715 23.28 151.265 22.9 150.685 22.6C150.125 22.3 149.475 22.03 148.735 21.79C147.995 21.55 147.215 21.29 146.395 21.01C144.775 20.47 143.555 19.77 142.735 18.91C141.935 18.05 141.535 16.92 141.535 15.52C141.515 14.34 141.785 13.31 142.345 12.43C142.925 11.55 143.725 10.87 144.745 10.39C145.785 9.89 146.995 9.64 148.375 9.64C149.735 9.64 150.925 9.89 151.945 10.39C152.985 10.89 153.795 11.59 154.375 12.49C154.955 13.37 155.255 14.4 155.275 15.58H151.915C151.915 15.04 151.775 14.53 151.495 14.05C151.215 13.55 150.805 13.14 150.265 12.82C149.725 12.5 149.065 12.34 148.285 12.34C147.285 12.32 146.455 12.57 145.795 13.09C145.155 13.61 144.835 14.33 144.835 15.25C144.835 16.07 145.075 16.7 145.555 17.14C146.035 17.58 146.695 17.95 147.535 18.25C148.375 18.53 149.335 18.86 150.415 19.24C151.455 19.58 152.385 19.99 153.205 20.47C154.025 20.95 154.675 21.58 155.155 22.36C155.655 23.14 155.905 24.13 155.905 25.33C155.905 26.39 155.635 27.38 155.095 28.3C154.555 29.2 153.745 29.94 152.665 30.52C151.585 31.08 150.255 31.36 148.675 31.36Z" fill="#E50914"/>
</svg>
