<svg width="177" height="27" viewBox="0 0 177 27" fill="none" xmlns="http://www.w3.org/2000/svg">
<path d="M21.07 5.58083L12.2696 3.01376C12.2024 2.99541 12.1315 2.99541 12.0642 3.01376L3.26401 5.58083C3.1879 5.60303 3.12103 5.64931 3.07343 5.71272C3.02583 5.77613 3.00007 5.85326 3 5.93255V12.5328C3.00052 13.6281 3.21751 14.7126 3.6385 15.7239C4.05948 16.7351 4.67617 17.6532 5.45311 18.4253V18.4291L11.9066 24.8936C11.9762 24.9618 12.0696 25 12.167 25C12.2644 25 12.3578 24.9618 12.4273 24.8936L18.8809 18.4255C19.6578 17.6533 20.2745 16.7352 20.6955 15.724C21.1165 14.7127 21.3335 13.6282 21.334 12.5329V5.93255C21.334 5.85321 21.3083 5.776 21.2607 5.71252C21.2131 5.64904 21.1461 5.60272 21.07 5.5805V5.58083ZM20.6006 12.5331C20.5999 13.5325 20.4017 14.522 20.0172 15.4446C19.6327 16.3671 19.0695 17.2045 18.3602 17.9086L12.167 24.1125L5.9738 17.9084C5.26441 17.2043 4.70126 16.3669 4.31675 15.4443C3.93223 14.5217 3.73395 13.5322 3.73331 12.5328V6.20761L12.1669 3.74685L20.6006 6.20761V12.5331Z" fill="url(#paint0_linear_304_443)"/>
<path d="M19.6032 6.68054L12.2697 4.54285C12.203 4.52087 12.131 4.52087 12.0643 4.54285L4.73081 6.68054C4.65464 6.70276 4.58773 6.74909 4.54013 6.81257C4.49252 6.87605 4.46679 6.95325 4.4668 7.0326V12.5328C4.46765 13.4361 4.64689 14.3303 4.99424 15.1641C5.34158 15.998 5.85018 16.755 6.49086 17.3917L11.9067 22.8149C11.9406 22.8498 11.981 22.8774 12.0257 22.8963C12.0705 22.9152 12.1185 22.925 12.1671 22.925C12.2156 22.925 12.2637 22.9152 12.3084 22.8963C12.3531 22.8774 12.3936 22.8498 12.4274 22.8149L17.8396 17.3917C18.4814 16.7557 18.991 15.999 19.339 15.1651C19.687 14.3313 19.8666 13.4368 19.8673 12.5332V7.0326C19.8673 6.95325 19.8416 6.87605 19.794 6.81257C19.7464 6.74909 19.6795 6.70276 19.6033 6.68054H19.6032ZM19.1338 12.5328C19.1323 13.3401 18.9716 14.1392 18.6607 14.8842C18.3499 15.6293 17.8951 16.3057 17.3224 16.8747L12.1668 22.0376L7.01122 16.8747C6.43813 16.306 5.98308 15.6296 5.67221 14.8845C5.36134 14.1394 5.20078 13.3402 5.19978 12.5328V7.30809L12.1665 5.27671L19.134 7.30809L19.1338 12.5328Z" fill="url(#paint1_linear_304_443)"/>
<path d="M12.167 7.76587C11.2242 7.76587 10.3026 8.04544 9.51869 8.56923C8.73478 9.09302 8.1238 9.83751 7.76301 10.7085C7.40221 11.5796 7.30781 12.538 7.49174 13.4627C7.67567 14.3874 8.12968 15.2368 8.79634 15.9034C9.463 16.5701 10.3124 17.0241 11.2371 17.208C12.1617 17.392 13.1202 17.2976 13.9912 16.9368C14.8623 16.576 15.6068 15.965 16.1305 15.1811C16.6543 14.3972 16.9339 13.4755 16.9339 12.5327C16.9339 11.2685 16.4317 10.056 15.5377 9.16206C14.6438 8.26809 13.4313 7.76587 12.167 7.76587V7.76587ZM12.167 16.5662C11.3693 16.5662 10.5895 16.3297 9.92616 15.8864C9.26286 15.4432 8.74588 14.8133 8.44059 14.0763C8.13531 13.3393 8.05543 12.5283 8.21107 11.7459C8.3667 10.9634 8.75085 10.2447 9.31494 9.68066C9.87903 9.11657 10.5977 8.73242 11.3801 8.57679C12.1626 8.42116 12.9735 8.50103 13.7106 8.80631C14.4476 9.1116 15.0775 9.62858 15.5207 10.2919C15.9639 10.9552 16.2005 11.735 16.2005 12.5327C16.2005 13.6025 15.7755 14.6284 15.0191 15.3848C14.2627 16.1413 13.2368 16.5662 12.167 16.5662V16.5662Z" fill="url(#paint2_linear_304_443)"/>
<path d="M13.8914 12.6724V14.2339C13.8386 14.312 13.7546 14.3999 13.6394 14.4976C13.5242 14.5933 13.365 14.6772 13.1619 14.7495C12.9607 14.8198 12.7009 14.855 12.3826 14.855C12.1228 14.855 11.8835 14.8101 11.6648 14.7202C11.448 14.6284 11.2595 14.4956 11.0994 14.3218C10.9412 14.146 10.8181 13.9331 10.7302 13.6831C10.6443 13.4312 10.6013 13.146 10.6013 12.8276V12.4966C10.6013 12.1782 10.6384 11.894 10.7126 11.644C10.7888 11.394 10.9001 11.1821 11.0466 11.0083C11.1931 10.8325 11.3728 10.6997 11.5857 10.6099C11.7986 10.5181 12.0427 10.4722 12.3181 10.4722C12.6443 10.4722 12.9167 10.5288 13.1355 10.6421C13.3562 10.7534 13.5281 10.9077 13.6511 11.105C13.7761 11.3022 13.8562 11.5269 13.8914 11.7788H13.3259C13.3005 11.6245 13.2498 11.4839 13.1736 11.3569C13.0994 11.23 12.9929 11.1284 12.8542 11.0522C12.7156 10.9741 12.5369 10.9351 12.3181 10.9351C12.1208 10.9351 11.95 10.9712 11.8054 11.0435C11.6609 11.1157 11.5417 11.2192 11.448 11.354C11.3542 11.4888 11.2839 11.6519 11.2371 11.8433C11.1921 12.0347 11.1697 12.2505 11.1697 12.4907V12.8276C11.1697 13.0737 11.198 13.2935 11.2546 13.4868C11.3132 13.6802 11.3962 13.8452 11.5037 13.9819C11.6111 14.1167 11.739 14.2192 11.8875 14.2896C12.0378 14.3599 12.2039 14.395 12.3855 14.395C12.5867 14.395 12.7498 14.3784 12.8748 14.3452C12.9998 14.3101 13.0974 14.269 13.1677 14.2222C13.238 14.1733 13.2917 14.1274 13.3289 14.0845V13.1294H12.3416V12.6724H13.8914Z" fill="#F0803D"/>
<defs>
<linearGradient id="paint0_linear_304_443" x1="12.167" y1="2.23" x2="12.167" y2="27.134" gradientUnits="userSpaceOnUse">
<stop stop-color="#FFF33B"/>
<stop offset="0.014" stop-color="#FEE72E"/>
<stop offset="0.042" stop-color="#FED51B"/>
<stop offset="0.07" stop-color="#FDCA10"/>
<stop offset="0.1" stop-color="#FDC70C"/>
<stop offset="0.4" stop-color="#F3903F"/>
<stop offset="0.8" stop-color="#ED683C"/>
<stop offset="1" stop-color="#E93E3A"/>
</linearGradient>
<linearGradient id="paint1_linear_304_443" x1="12.1671" y1="2.22654" x2="12.1671" y2="27.1383" gradientUnits="userSpaceOnUse">
<stop stop-color="#FFF33B"/>
<stop offset="0.014" stop-color="#FEE72E"/>
<stop offset="0.042" stop-color="#FED51B"/>
<stop offset="0.07" stop-color="#FDCA10"/>
<stop offset="0.1" stop-color="#FDC70C"/>
<stop offset="0.4" stop-color="#F3903F"/>
<stop offset="0.8" stop-color="#ED683C"/>
<stop offset="1" stop-color="#E93E3A"/>
</linearGradient>
<linearGradient id="paint2_linear_304_443" x1="12.167" y1="2.22675" x2="12.167" y2="27.1289" gradientUnits="userSpaceOnUse">
<stop stop-color="#FFF33B"/>
<stop offset="0.014" stop-color="#FEE72E"/>
<stop offset="0.042" stop-color="#FED51B"/>
<stop offset="0.07" stop-color="#FDCA10"/>
<stop offset="0.1" stop-color="#FDC70C"/>
<stop offset="0.4" stop-color="#F3903F"/>
<stop offset="0.8" stop-color="#ED683C"/>
<stop offset="1" stop-color="#E93E3A"/>
</linearGradient>
</defs>
</svg>
