<svg width="337" height="135" viewBox="0 0 337 135" fill="none" xmlns="http://www.w3.org/2000/svg">
<path d="M81.7645 76.9017C78.5108 69.7989 73.2738 64.9725 67.0176 63.3119C60.7613 61.6513 53.7879 63.2363 47.3812 67.7753C41.6225 71.8551 37.2452 77.7607 35.6709 83.5733C34.9062 86.3968 35.1887 88.7774 36.51 90.6484C37.8125 92.4949 39.9085 93.5589 42.3883 94.2167C45.0268 94.917 48.1018 95.1583 51.1213 95.395C53.7613 95.6021 56.255 95.7978 58.0862 96.2839C59.6666 96.7034 61.7835 97.7076 64.0238 98.7708C69.2602 101.256 75.1953 104.072 79.6159 102.034C81.7174 101.067 83.1656 99.1633 83.9194 96.3799C85.4955 90.5677 84.6893 83.2859 81.7645 76.9017Z" fill="#A660E4"/>
<path d="M90.7674 45.517C89.7054 42.45 87.5806 40.2885 84.9376 39.587C82.2945 38.8854 79.3624 39.7047 76.893 41.8343C74.6244 43.7906 72.8823 46.6885 71.9873 49.9934C71.0922 53.2982 71.1359 56.6717 72.112 59.4877C73.174 62.5546 75.2988 64.7161 77.9418 65.4177C80.5849 66.1192 83.517 65.3 85.9864 63.1703C88.2546 61.2155 89.9979 58.3175 90.8932 55.0116C91.7886 51.7056 91.7431 48.3344 90.7674 45.517Z" fill="#A660E4"/>
<path d="M69.2537 39.7801C68.1918 36.7128 66.0675 34.5498 63.4244 33.8483C60.7813 33.1467 57.8488 33.9678 55.3786 36.0972C53.11 38.0535 51.3679 40.9514 50.4728 44.2563C49.5778 47.5611 49.6218 50.9332 50.5976 53.7506C51.6596 56.8176 53.7843 58.9791 56.4274 59.6806C59.0705 60.3822 62.0025 59.5629 64.472 57.4333C66.7406 55.477 68.4826 52.5794 69.3777 49.2742C70.2729 45.969 70.2295 42.5975 69.2537 39.7801Z" fill="#A660E4"/>
<path d="M103.117 70.518C103.06 67.9119 102.01 65.7505 100.16 64.4322C99.3902 63.9 98.52 63.5283 97.6014 63.3391C96.6829 63.1499 95.7348 63.1471 94.8136 63.3309C92.1138 63.8142 89.5285 65.6056 87.7215 68.2461C86.2772 70.299 85.5052 72.7454 85.5118 75.2481C85.5691 77.8542 86.6194 80.0156 88.4694 81.334C89.1098 81.7896 89.8279 82.1259 90.5893 82.3266C91.6428 82.5986 92.7444 82.6362 93.816 82.4365C96.5158 81.9531 99.1011 80.1618 100.908 77.5217C102.352 75.4682 103.124 73.0212 103.117 70.518Z" fill="#A660E4"/>
<path d="M46.5779 57.2564C46.3473 54.0752 45.0144 51.2443 42.921 49.4888C42.2162 48.8735 41.3938 48.4065 40.5029 48.1154C39.6119 47.8243 38.6706 47.7153 37.735 47.7946C35.4669 48.0201 33.4651 49.3715 32.0984 51.5996C30.8279 53.7633 30.2601 56.2639 30.4732 58.7567V58.7567C30.7037 61.938 32.0367 64.7689 34.1301 66.5244C34.9571 67.228 35.9299 67.741 36.9796 68.0272C37.7402 68.2304 38.532 68.2949 39.3168 68.2175C41.5852 67.9922 43.5866 66.6407 44.9533 64.4126C46.2231 62.249 46.7907 59.7489 46.5779 57.2564V57.2564Z" fill="#A660E4"/>
<path d="M146.547 41.3789V73H138.324V59.7188H135.863V73H127.641V41.3789H135.863V52.6875H138.324V41.3789H146.547ZM156.684 57.1211H149.281V55.3828C149.281 53.3776 149.509 51.8346 149.965 50.7539C150.434 49.6602 151.365 48.6966 152.758 47.8633C154.151 47.0299 155.961 46.6133 158.188 46.6133C160.857 46.6133 162.868 47.0885 164.223 48.0391C165.577 48.9766 166.391 50.1354 166.664 51.5156C166.938 52.8828 167.074 55.7083 167.074 59.9922V73H159.398V70.6953C158.917 71.6198 158.292 72.3164 157.523 72.7852C156.768 73.2409 155.863 73.4688 154.809 73.4688C153.428 73.4688 152.159 73.0846 151 72.3164C149.854 71.5352 149.281 69.8359 149.281 67.2188V65.0898C149.281 63.1497 149.587 61.8281 150.199 61.125C150.811 60.4219 152.328 59.6016 154.75 58.6641C157.341 57.6484 158.728 56.9648 158.91 56.6133C159.092 56.2617 159.184 55.5456 159.184 54.4648C159.184 53.1107 159.079 52.2318 158.871 51.8281C158.676 51.4115 158.344 51.2031 157.875 51.2031C157.341 51.2031 157.009 51.3789 156.879 51.7305C156.749 52.069 156.684 52.9609 156.684 54.4062V57.1211ZM159.184 60.6758C157.921 61.6003 157.185 62.375 156.977 63C156.781 63.625 156.684 64.5234 156.684 65.6953C156.684 67.0365 156.768 67.9023 156.938 68.293C157.12 68.6836 157.471 68.8789 157.992 68.8789C158.487 68.8789 158.806 68.7292 158.949 68.4297C159.105 68.1172 159.184 67.3099 159.184 66.0078V60.6758ZM177.816 47.082L177.68 49.3672C178.383 48.4427 179.158 47.7526 180.004 47.2969C180.85 46.8411 181.775 46.6133 182.777 46.6133C184.001 46.6133 185.056 46.9453 185.941 47.6094C186.84 48.2604 187.4 49.0156 187.621 49.875C187.842 50.7344 187.953 52.1927 187.953 54.25V65.168C187.953 67.5247 187.81 69.2044 187.523 70.207C187.25 71.1966 186.677 71.9909 185.805 72.5898C184.945 73.1758 183.904 73.4688 182.68 73.4688C181.703 73.4688 180.798 73.2409 179.965 72.7852C179.132 72.3294 178.37 71.6523 177.68 70.7539V76.6914H169.789V47.082H177.816ZM180.062 54.6211C180.062 53.0195 180.004 52.0495 179.887 51.7109C179.77 51.3724 179.444 51.2031 178.91 51.2031C178.389 51.2031 178.051 51.3984 177.895 51.7891C177.751 52.1797 177.68 53.1237 177.68 54.6211V65.3633C177.68 66.9258 177.758 67.9023 177.914 68.293C178.07 68.6836 178.409 68.8789 178.93 68.8789C179.438 68.8789 179.75 68.7031 179.867 68.3516C179.997 67.987 180.062 67.1146 180.062 65.7344V54.6211ZM198.598 47.082L198.461 49.3672C199.164 48.4427 199.939 47.7526 200.785 47.2969C201.632 46.8411 202.556 46.6133 203.559 46.6133C204.783 46.6133 205.837 46.9453 206.723 47.6094C207.621 48.2604 208.181 49.0156 208.402 49.875C208.624 50.7344 208.734 52.1927 208.734 54.25V65.168C208.734 67.5247 208.591 69.2044 208.305 70.207C208.031 71.1966 207.458 71.9909 206.586 72.5898C205.727 73.1758 204.685 73.4688 203.461 73.4688C202.484 73.4688 201.579 73.2409 200.746 72.7852C199.913 72.3294 199.151 71.6523 198.461 70.7539V76.6914H190.57V47.082H198.598ZM200.844 54.6211C200.844 53.0195 200.785 52.0495 200.668 51.7109C200.551 51.3724 200.225 51.2031 199.691 51.2031C199.171 51.2031 198.832 51.3984 198.676 51.7891C198.533 52.1797 198.461 53.1237 198.461 54.6211V65.3633C198.461 66.9258 198.539 67.9023 198.695 68.293C198.852 68.6836 199.19 68.8789 199.711 68.8789C200.219 68.8789 200.531 68.7031 200.648 68.3516C200.779 67.987 200.844 67.1146 200.844 65.7344V54.6211ZM227.875 47.082L225.609 65.832C225.258 68.8008 224.958 70.8255 224.711 71.9062C224.477 72.987 224.079 73.8789 223.52 74.582C222.96 75.2852 222.178 75.7995 221.176 76.125C220.186 76.4635 218.598 76.6328 216.41 76.6328H211.625V72.4922C212.849 72.4922 213.637 72.4336 213.988 72.3164C214.34 72.1862 214.516 71.9062 214.516 71.4766C214.516 71.2682 214.353 70.3633 214.027 68.7617L209.711 47.082H216.879L219.457 64.5625L220.707 47.082H227.875ZM236.586 41.3789H244.867C247.107 41.3789 248.826 41.5547 250.023 41.9062C251.234 42.2578 252.139 42.7656 252.738 43.4297C253.35 44.0938 253.76 44.901 253.969 45.8516C254.19 46.7891 254.301 48.2474 254.301 50.2266V52.9805C254.301 54.9987 254.092 56.4701 253.676 57.3945C253.259 58.319 252.491 59.0286 251.371 59.5234C250.264 60.0182 248.812 60.2656 247.016 60.2656H244.809V73H236.586V41.3789ZM244.809 46.7891V54.8359C245.043 54.849 245.245 54.8555 245.414 54.8555C246.169 54.8555 246.69 54.6732 246.977 54.3086C247.276 53.931 247.426 53.1562 247.426 51.9844V49.3867C247.426 48.306 247.257 47.6029 246.918 47.2773C246.579 46.9518 245.876 46.7891 244.809 46.7891ZM274.301 60.5H264.086V66.1055C264.086 67.2773 264.171 68.0326 264.34 68.3711C264.509 68.7096 264.835 68.8789 265.316 68.8789C265.915 68.8789 266.312 68.6576 266.508 68.2148C266.716 67.7591 266.82 66.8867 266.82 65.5977V62.1797H274.301V64.0938C274.301 65.6953 274.197 66.9258 273.988 67.7852C273.793 68.6445 273.324 69.5625 272.582 70.5391C271.84 71.5156 270.896 72.2513 269.75 72.7461C268.617 73.2279 267.191 73.4688 265.473 73.4688C263.806 73.4688 262.335 73.2279 261.059 72.7461C259.783 72.2643 258.786 71.6068 258.07 70.7734C257.367 69.9271 256.879 69.0026 256.605 68C256.332 66.9844 256.195 65.513 256.195 63.5859V56.0273C256.195 53.7617 256.501 51.9779 257.113 50.6758C257.725 49.3607 258.728 48.3581 260.121 47.668C261.514 46.9648 263.116 46.6133 264.926 46.6133C267.139 46.6133 268.962 47.0365 270.395 47.8828C271.84 48.7161 272.849 49.8294 273.422 51.2227C274.008 52.6029 274.301 54.5495 274.301 57.0625V60.5ZM266.391 56.2812V54.3867C266.391 53.0456 266.319 52.1797 266.176 51.7891C266.033 51.3984 265.74 51.2031 265.297 51.2031C264.75 51.2031 264.411 51.3724 264.281 51.7109C264.151 52.0365 264.086 52.9284 264.086 54.3867V56.2812H266.391ZM285.219 43.625V47.707H287.348V51.8086H285.219V65.6758C285.219 67.3815 285.303 68.332 285.473 68.5273C285.655 68.7227 286.391 68.8203 287.68 68.8203V73H284.496C282.699 73 281.417 72.9284 280.648 72.7852C279.88 72.6289 279.203 72.2839 278.617 71.75C278.031 71.2031 277.667 70.5846 277.523 69.8945C277.38 69.1914 277.309 67.5508 277.309 64.9727V51.8086H275.609V47.707H277.309V43.625H285.219ZM305.199 55.3633H298.207V53.957C298.207 52.7591 298.135 52.0039 297.992 51.6914C297.862 51.3659 297.523 51.2031 296.977 51.2031C296.534 51.2031 296.202 51.3529 295.98 51.6523C295.759 51.9388 295.648 52.375 295.648 52.9609C295.648 53.7552 295.701 54.3411 295.805 54.7188C295.922 55.0833 296.254 55.487 296.801 55.9297C297.361 56.3724 298.5 57.0169 300.219 57.8633C302.51 58.9831 304.014 60.0378 304.73 61.0273C305.447 62.0169 305.805 63.4557 305.805 65.3438C305.805 67.4531 305.531 69.0482 304.984 70.1289C304.438 71.1966 303.52 72.0234 302.23 72.6094C300.954 73.1823 299.411 73.4688 297.602 73.4688C295.596 73.4688 293.878 73.1562 292.445 72.5312C291.026 71.9062 290.049 71.0599 289.516 69.9922C288.982 68.9245 288.715 67.3099 288.715 65.1484V63.8984H295.707V65.5391C295.707 66.9323 295.792 67.8372 295.961 68.2539C296.143 68.6706 296.495 68.8789 297.016 68.8789C297.576 68.8789 297.966 68.7422 298.188 68.4688C298.409 68.1823 298.52 67.5898 298.52 66.6914C298.52 65.4544 298.376 64.6797 298.09 64.3672C297.79 64.0547 296.26 63.1302 293.5 61.5938C291.182 60.2917 289.77 59.1133 289.262 58.0586C288.754 56.9909 288.5 55.7279 288.5 54.2695C288.5 52.1992 288.773 50.6758 289.32 49.6992C289.867 48.7096 290.792 47.9479 292.094 47.4141C293.409 46.8802 294.932 46.6133 296.664 46.6133C298.383 46.6133 299.841 46.8346 301.039 47.2773C302.25 47.707 303.174 48.2799 303.812 48.9961C304.464 49.7122 304.854 50.3763 304.984 50.9883C305.128 51.6003 305.199 52.5573 305.199 53.8594V55.3633Z" fill="black"/>
<path d="M133.584 96.8662H129.405V95.1797H133.584C134.393 95.1797 135.049 95.0508 135.55 94.793C136.051 94.5352 136.416 94.1771 136.646 93.7188C136.882 93.2604 137 92.7376 137 92.1504C137 91.6133 136.882 91.1084 136.646 90.6357C136.416 90.1631 136.051 89.7835 135.55 89.4971C135.049 89.2035 134.393 89.0566 133.584 89.0566H129.889V103H127.815V87.3594H133.584C134.766 87.3594 135.765 87.5635 136.581 87.9717C137.397 88.3799 138.017 88.9456 138.439 89.6689C138.862 90.3851 139.073 91.2051 139.073 92.1289C139.073 93.1315 138.862 93.9873 138.439 94.6963C138.017 95.4053 137.397 95.946 136.581 96.3184C135.765 96.6836 134.766 96.8662 133.584 96.8662ZM146.066 103.215C145.257 103.215 144.523 103.079 143.864 102.807C143.213 102.527 142.65 102.137 142.178 101.636C141.712 101.134 141.354 100.54 141.104 99.8525C140.853 99.165 140.728 98.4131 140.728 97.5967V97.1455C140.728 96.2002 140.867 95.3587 141.146 94.6211C141.426 93.8763 141.805 93.2461 142.285 92.7305C142.765 92.2148 143.309 91.8245 143.918 91.5596C144.527 91.2946 145.157 91.1621 145.809 91.1621C146.639 91.1621 147.355 91.3053 147.957 91.5918C148.566 91.8783 149.063 92.2793 149.45 92.7949C149.837 93.3034 150.123 93.9049 150.31 94.5996C150.496 95.2871 150.589 96.0391 150.589 96.8555V97.7471H141.909V96.125H148.602V95.9746C148.573 95.459 148.465 94.9577 148.279 94.4707C148.1 93.9837 147.814 93.5827 147.42 93.2676C147.026 92.9525 146.489 92.7949 145.809 92.7949C145.357 92.7949 144.942 92.8916 144.562 93.085C144.183 93.2712 143.857 93.5505 143.585 93.9229C143.313 94.2952 143.102 94.75 142.951 95.2871C142.801 95.8242 142.726 96.4437 142.726 97.1455V97.5967C142.726 98.1481 142.801 98.6673 142.951 99.1543C143.109 99.6341 143.334 100.057 143.628 100.422C143.929 100.787 144.29 101.074 144.713 101.281C145.143 101.489 145.63 101.593 146.174 101.593C146.876 101.593 147.47 101.45 147.957 101.163C148.444 100.877 148.87 100.493 149.235 100.014L150.438 100.97C150.188 101.349 149.869 101.711 149.482 102.055C149.096 102.398 148.619 102.678 148.054 102.893C147.495 103.107 146.833 103.215 146.066 103.215ZM157.775 91.377V92.9023H151.491V91.377H157.775ZM153.618 88.5518H155.605V100.121C155.605 100.515 155.666 100.812 155.788 101.013C155.91 101.213 156.067 101.346 156.261 101.41C156.454 101.475 156.662 101.507 156.884 101.507C157.049 101.507 157.22 101.493 157.399 101.464C157.586 101.428 157.725 101.399 157.818 101.378L157.829 103C157.672 103.05 157.464 103.097 157.206 103.14C156.955 103.19 156.651 103.215 156.293 103.215C155.806 103.215 155.358 103.118 154.95 102.925C154.542 102.731 154.216 102.409 153.973 101.958C153.736 101.5 153.618 100.884 153.618 100.11V88.5518ZM168.088 87.3594V103H166.015V87.3594H168.088ZM173.545 93.8584V103H171.558V91.377H173.438L173.545 93.8584ZM173.072 96.748L172.245 96.7158C172.252 95.9209 172.37 95.1868 172.6 94.5137C172.829 93.8333 173.151 93.2425 173.566 92.7412C173.982 92.2399 174.476 91.8532 175.049 91.5811C175.629 91.3018 176.27 91.1621 176.972 91.1621C177.545 91.1621 178.06 91.2409 178.519 91.3984C178.977 91.5488 179.367 91.7923 179.689 92.1289C180.019 92.4655 180.27 92.9023 180.441 93.4395C180.613 93.9694 180.699 94.6175 180.699 95.3838V103H178.701V95.3623C178.701 94.7536 178.612 94.2666 178.433 93.9014C178.254 93.529 177.992 93.2604 177.648 93.0957C177.305 92.9238 176.882 92.8379 176.381 92.8379C175.887 92.8379 175.436 92.9417 175.027 93.1494C174.626 93.3571 174.279 93.6436 173.985 94.0088C173.699 94.374 173.473 94.793 173.309 95.2656C173.151 95.7311 173.072 96.2253 173.072 96.748ZM190.485 99.917C190.485 99.6305 190.421 99.3656 190.292 99.1221C190.17 98.8714 189.916 98.6458 189.529 98.4453C189.15 98.2376 188.577 98.0586 187.811 97.9082C187.166 97.7721 186.582 97.611 186.06 97.4248C185.544 97.2386 185.104 97.013 184.738 96.748C184.38 96.4831 184.104 96.1715 183.911 95.8135C183.718 95.4554 183.621 95.0365 183.621 94.5566C183.621 94.0983 183.721 93.665 183.922 93.2568C184.13 92.8486 184.42 92.487 184.792 92.1719C185.172 91.8568 185.626 91.6097 186.156 91.4307C186.686 91.2516 187.277 91.1621 187.929 91.1621C188.86 91.1621 189.655 91.3268 190.313 91.6562C190.972 91.9857 191.477 92.4261 191.828 92.9775C192.179 93.5218 192.354 94.127 192.354 94.793H190.367C190.367 94.4707 190.271 94.1592 190.077 93.8584C189.891 93.5505 189.615 93.2962 189.25 93.0957C188.892 92.8952 188.451 92.7949 187.929 92.7949C187.377 92.7949 186.93 92.8809 186.586 93.0527C186.249 93.2174 186.002 93.4287 185.845 93.6865C185.694 93.9443 185.619 94.2165 185.619 94.5029C185.619 94.7178 185.655 94.9111 185.727 95.083C185.805 95.2477 185.941 95.4017 186.135 95.5449C186.328 95.681 186.6 95.8099 186.951 95.9316C187.302 96.0534 187.75 96.1751 188.294 96.2969C189.246 96.5117 190.031 96.7695 190.646 97.0703C191.262 97.3711 191.721 97.7399 192.021 98.1768C192.322 98.6136 192.473 99.1436 192.473 99.7666C192.473 100.275 192.365 100.741 192.15 101.163C191.943 101.586 191.638 101.951 191.237 102.259C190.843 102.56 190.371 102.796 189.819 102.968C189.275 103.132 188.663 103.215 187.982 103.215C186.958 103.215 186.092 103.032 185.383 102.667C184.674 102.302 184.137 101.829 183.771 101.249C183.406 100.669 183.224 100.057 183.224 99.4121H185.222C185.25 99.9564 185.408 100.39 185.694 100.712C185.981 101.027 186.332 101.253 186.747 101.389C187.162 101.518 187.574 101.582 187.982 101.582C188.527 101.582 188.981 101.51 189.347 101.367C189.719 101.224 190.002 101.027 190.195 100.776C190.389 100.526 190.485 100.239 190.485 99.917ZM202.194 100.314V91.377H204.192V103H202.291L202.194 100.314ZM202.57 97.8652L203.397 97.8438C203.397 98.6172 203.315 99.3333 203.15 99.9922C202.993 100.644 202.735 101.21 202.377 101.689C202.019 102.169 201.55 102.545 200.97 102.817C200.39 103.082 199.684 103.215 198.854 103.215C198.288 103.215 197.769 103.132 197.296 102.968C196.83 102.803 196.429 102.549 196.093 102.205C195.756 101.861 195.495 101.414 195.309 100.862C195.13 100.311 195.04 99.6484 195.04 98.875V91.377H197.027V98.8965C197.027 99.4193 197.085 99.8525 197.199 100.196C197.321 100.533 197.482 100.801 197.683 101.002C197.89 101.195 198.119 101.331 198.37 101.41C198.628 101.489 198.893 101.528 199.165 101.528C200.01 101.528 200.68 101.367 201.174 101.045C201.668 100.715 202.022 100.275 202.237 99.7236C202.459 99.165 202.57 98.5456 202.57 97.8652ZM209.209 93.2031V103H207.222V91.377H209.155L209.209 93.2031ZM212.84 91.3125L212.829 93.1602C212.664 93.1243 212.507 93.1029 212.356 93.0957C212.213 93.0814 212.049 93.0742 211.862 93.0742C211.404 93.0742 210.999 93.1458 210.648 93.2891C210.298 93.4323 210 93.6328 209.757 93.8906C209.513 94.1484 209.32 94.4564 209.177 94.8145C209.041 95.1654 208.951 95.5521 208.908 95.9746L208.35 96.2969C208.35 95.5951 208.418 94.9362 208.554 94.3203C208.697 93.7044 208.915 93.1602 209.209 92.6875C209.503 92.2077 209.875 91.8353 210.326 91.5703C210.785 91.2982 211.329 91.1621 211.959 91.1621C212.102 91.1621 212.267 91.18 212.453 91.2158C212.639 91.2445 212.768 91.2767 212.84 91.3125ZM221.101 101.013V95.0293C221.101 94.571 221.007 94.1735 220.821 93.8369C220.642 93.4932 220.37 93.2282 220.005 93.042C219.64 92.8558 219.188 92.7627 218.651 92.7627C218.15 92.7627 217.71 92.8486 217.33 93.0205C216.958 93.1924 216.664 93.418 216.449 93.6973C216.242 93.9766 216.138 94.2773 216.138 94.5996H214.15C214.15 94.1842 214.258 93.7725 214.473 93.3643C214.688 92.9561 214.995 92.5872 215.396 92.2578C215.805 91.9212 216.292 91.6562 216.857 91.4629C217.43 91.2624 218.068 91.1621 218.77 91.1621C219.615 91.1621 220.359 91.3053 221.004 91.5918C221.656 91.8783 222.164 92.3115 222.529 92.8916C222.902 93.4645 223.088 94.1842 223.088 95.0508V100.465C223.088 100.852 223.12 101.263 223.185 101.7C223.256 102.137 223.36 102.513 223.496 102.828V103H221.423C221.323 102.771 221.244 102.466 221.187 102.087C221.129 101.7 221.101 101.342 221.101 101.013ZM221.444 95.9531L221.466 97.3496H219.457C218.891 97.3496 218.386 97.3962 217.942 97.4893C217.498 97.5752 217.126 97.7077 216.825 97.8867C216.524 98.0658 216.295 98.2913 216.138 98.5635C215.98 98.8285 215.901 99.14 215.901 99.498C215.901 99.8633 215.984 100.196 216.148 100.497C216.313 100.798 216.56 101.038 216.89 101.217C217.226 101.389 217.638 101.475 218.125 101.475C218.734 101.475 219.271 101.346 219.736 101.088C220.202 100.83 220.571 100.515 220.843 100.143C221.122 99.7702 221.272 99.4085 221.294 99.0576L222.143 100.014C222.092 100.314 221.956 100.647 221.734 101.013C221.512 101.378 221.215 101.729 220.843 102.065C220.478 102.395 220.041 102.671 219.532 102.893C219.031 103.107 218.465 103.215 217.835 103.215C217.047 103.215 216.356 103.061 215.762 102.753C215.174 102.445 214.716 102.033 214.387 101.518C214.064 100.995 213.903 100.411 213.903 99.7666C213.903 99.1436 214.025 98.5957 214.269 98.123C214.512 97.6432 214.863 97.2458 215.321 96.9307C215.78 96.6084 216.331 96.3649 216.976 96.2002C217.62 96.0355 218.34 95.9531 219.135 95.9531H221.444ZM228.201 93.8584V103H226.214V91.377H228.094L228.201 93.8584ZM227.729 96.748L226.901 96.7158C226.909 95.9209 227.027 95.1868 227.256 94.5137C227.485 93.8333 227.807 93.2425 228.223 92.7412C228.638 92.2399 229.132 91.8532 229.705 91.5811C230.285 91.3018 230.926 91.1621 231.628 91.1621C232.201 91.1621 232.716 91.2409 233.175 91.3984C233.633 91.5488 234.023 91.7923 234.346 92.1289C234.675 92.4655 234.926 92.9023 235.098 93.4395C235.27 93.9694 235.355 94.6175 235.355 95.3838V103H233.357V95.3623C233.357 94.7536 233.268 94.2666 233.089 93.9014C232.91 93.529 232.648 93.2604 232.305 93.0957C231.961 92.9238 231.538 92.8379 231.037 92.8379C230.543 92.8379 230.092 92.9417 229.684 93.1494C229.283 93.3571 228.935 93.6436 228.642 94.0088C228.355 94.374 228.13 94.793 227.965 95.2656C227.807 95.7311 227.729 96.2253 227.729 96.748ZM243.025 101.582C243.498 101.582 243.935 101.485 244.336 101.292C244.737 101.099 245.066 100.834 245.324 100.497C245.582 100.153 245.729 99.763 245.765 99.3262H247.655C247.619 100.014 247.387 100.655 246.957 101.249C246.535 101.836 245.979 102.312 245.292 102.678C244.604 103.036 243.849 103.215 243.025 103.215C242.152 103.215 241.389 103.061 240.737 102.753C240.093 102.445 239.556 102.022 239.126 101.485C238.703 100.948 238.385 100.332 238.17 99.6377C237.962 98.9359 237.858 98.1947 237.858 97.4141V96.9629C237.858 96.1823 237.962 95.4447 238.17 94.75C238.385 94.0482 238.703 93.4287 239.126 92.8916C239.556 92.3545 240.093 91.932 240.737 91.624C241.389 91.3161 242.152 91.1621 243.025 91.1621C243.935 91.1621 244.73 91.3483 245.41 91.7207C246.09 92.0859 246.624 92.5872 247.011 93.2246C247.405 93.8548 247.619 94.571 247.655 95.373H245.765C245.729 94.8932 245.593 94.46 245.356 94.0732C245.127 93.6865 244.812 93.3786 244.411 93.1494C244.017 92.9131 243.555 92.7949 243.025 92.7949C242.417 92.7949 241.905 92.9167 241.489 93.1602C241.081 93.3965 240.755 93.7188 240.512 94.127C240.275 94.528 240.104 94.9756 239.996 95.4697C239.896 95.9567 239.846 96.4544 239.846 96.9629V97.4141C239.846 97.9225 239.896 98.4238 239.996 98.918C240.096 99.4121 240.265 99.8597 240.501 100.261C240.744 100.662 241.07 100.984 241.479 101.228C241.894 101.464 242.41 101.582 243.025 101.582ZM254.713 103.215C253.904 103.215 253.17 103.079 252.511 102.807C251.859 102.527 251.297 102.137 250.824 101.636C250.359 101.134 250.001 100.54 249.75 99.8525C249.499 99.165 249.374 98.4131 249.374 97.5967V97.1455C249.374 96.2002 249.514 95.3587 249.793 94.6211C250.072 93.8763 250.452 93.2461 250.932 92.7305C251.411 92.2148 251.956 91.8245 252.564 91.5596C253.173 91.2946 253.803 91.1621 254.455 91.1621C255.286 91.1621 256.002 91.3053 256.604 91.5918C257.212 91.8783 257.71 92.2793 258.097 92.7949C258.483 93.3034 258.77 93.9049 258.956 94.5996C259.142 95.2871 259.235 96.0391 259.235 96.8555V97.7471H250.556V96.125H257.248V95.9746C257.219 95.459 257.112 94.9577 256.926 94.4707C256.747 93.9837 256.46 93.5827 256.066 93.2676C255.673 92.9525 255.135 92.7949 254.455 92.7949C254.004 92.7949 253.589 92.8916 253.209 93.085C252.829 93.2712 252.504 93.5505 252.231 93.9229C251.959 94.2952 251.748 94.75 251.598 95.2871C251.447 95.8242 251.372 96.4437 251.372 97.1455V97.5967C251.372 98.1481 251.447 98.6673 251.598 99.1543C251.755 99.6341 251.981 100.057 252.274 100.422C252.575 100.787 252.937 101.074 253.359 101.281C253.789 101.489 254.276 101.593 254.82 101.593C255.522 101.593 256.117 101.45 256.604 101.163C257.09 100.877 257.517 100.493 257.882 100.014L259.085 100.97C258.834 101.349 258.516 101.711 258.129 102.055C257.742 102.398 257.266 102.678 256.7 102.893C256.142 103.107 255.479 103.215 254.713 103.215Z" fill="black"/>
</svg>
