<svg width="176" height="63" viewBox="0 0 176 63" fill="none" xmlns="http://www.w3.org/2000/svg">
<path d="M151.137 21.5652L158.76 42C156.514 41.6746 154.269 41.2684 151.98 40.9016L147.687 29.6094L143.274 39.9688C141.106 39.6039 138.978 39.4797 136.813 39.1957L144.557 21.3207L137.535 3H144.035L147.968 13.2371L152.181 3H158.76L151.137 21.5652ZM132.4 3H126.501V38.4246C128.426 38.5469 130.433 38.6277 132.4 38.8704V3ZM121.405 38.0184C116.029 37.6516 110.652 37.3281 105.155 37.2059V3H111.173V31.4375C114.623 31.5184 118.074 31.8024 121.405 31.9641V38.0184ZM98.7351 16.8539V22.9457H90.5108V36.7996H84.5711V3H101.424V9.09375H90.5108V16.8539H98.7351ZM74.4587 9.09375V37.125C72.4533 37.125 70.407 37.125 68.4407 37.2059V9.09375H62.2217V3H80.7186V9.09375H74.4587ZM55.7216 23.2711C53.0738 23.2711 49.9438 23.2711 47.6964 23.3934V32.4531C51.2267 32.2086 54.7589 31.9246 58.3283 31.8024V37.6516L41.6766 38.9945V3H58.3283V9.09375H47.6964V17.2996C50.0239 17.2996 53.5952 17.1774 55.7216 17.1774V23.2711ZM22.3772 19.8594V41.1461C20.2117 41.3906 18.2846 41.6746 16.2383 42V3H21.9769L29.8009 25.1406V3H35.8189V39.4797C33.6925 39.8465 31.527 39.9688 29.2386 40.2922L22.3772 19.8594Z" fill="#E50914"/>
<path d="M32.6392 55V49.1818H36.2472V49.9375H33.517V51.7102H35.9886V52.4631H33.517V55H32.6392ZM42.3807 52.0909C42.3807 52.7121 42.267 53.2462 42.0398 53.6932C41.8125 54.1383 41.5009 54.4811 41.1051 54.7216C40.7112 54.9602 40.2633 55.0795 39.7614 55.0795C39.2576 55.0795 38.8078 54.9602 38.4119 54.7216C38.018 54.4811 37.7074 54.1373 37.4801 53.6903C37.2528 53.2434 37.1392 52.7102 37.1392 52.0909C37.1392 51.4697 37.2528 50.9366 37.4801 50.4915C37.7074 50.0445 38.018 49.7017 38.4119 49.4631C38.8078 49.2225 39.2576 49.1023 39.7614 49.1023C40.2633 49.1023 40.7112 49.2225 41.1051 49.4631C41.5009 49.7017 41.8125 50.0445 42.0398 50.4915C42.267 50.9366 42.3807 51.4697 42.3807 52.0909ZM41.5114 52.0909C41.5114 51.6174 41.4347 51.2187 41.2812 50.8949C41.1297 50.5691 40.9214 50.3229 40.6562 50.1562C40.393 49.9877 40.0947 49.9034 39.7614 49.9034C39.4261 49.9034 39.1269 49.9877 38.8636 50.1562C38.6004 50.3229 38.392 50.5691 38.2386 50.8949C38.0871 51.2187 38.0114 51.6174 38.0114 52.0909C38.0114 52.5644 38.0871 52.964 38.2386 53.2898C38.392 53.6136 38.6004 53.8598 38.8636 54.0284C39.1269 54.1951 39.4261 54.2784 39.7614 54.2784C40.0947 54.2784 40.393 54.1951 40.6562 54.0284C40.9214 53.8598 41.1297 53.6136 41.2812 53.2898C41.4347 52.964 41.5114 52.5644 41.5114 52.0909ZM43.4751 55V49.1818H45.549C45.9998 49.1818 46.3738 49.2595 46.6712 49.4148C46.9704 49.5701 47.1939 49.785 47.3416 50.0597C47.4893 50.3324 47.5632 50.6477 47.5632 51.0057C47.5632 51.3617 47.4884 51.6752 47.3388 51.946C47.1911 52.215 46.9676 52.4242 46.6683 52.5739C46.371 52.7235 45.9969 52.7983 45.5462 52.7983H43.9751V52.0426H45.4666C45.7507 52.0426 45.9818 52.0019 46.1598 51.9205C46.3397 51.839 46.4714 51.7206 46.5547 51.5653C46.638 51.41 46.6797 51.2235 46.6797 51.0057C46.6797 50.786 46.6371 50.5956 46.5518 50.4347C46.4685 50.2737 46.3369 50.1506 46.157 50.0653C45.9789 49.9782 45.745 49.9347 45.4553 49.9347H44.353V55H43.4751ZM46.3473 52.375L47.7848 55H46.7848L45.3757 52.375H46.3473ZM52.6321 55H50.7486V49.1818H52.6918C53.2618 49.1818 53.7514 49.2983 54.1605 49.5312C54.5696 49.7623 54.883 50.0947 55.1009 50.5284C55.3205 50.9602 55.4304 51.4782 55.4304 52.0824C55.4304 52.6884 55.3196 53.2093 55.098 53.6449C54.8783 54.0805 54.5601 54.4157 54.1435 54.6506C53.7268 54.8835 53.223 55 52.6321 55ZM51.6264 54.233H52.5838C53.027 54.233 53.3954 54.1496 53.6889 53.983C53.9825 53.8144 54.2022 53.571 54.348 53.2528C54.4938 52.9328 54.5668 52.5426 54.5668 52.0824C54.5668 51.6259 54.4938 51.2386 54.348 50.9205C54.2041 50.6023 53.9891 50.3608 53.7031 50.196C53.4171 50.0312 53.062 49.9489 52.6378 49.9489H51.6264V54.233ZM56.522 55V49.1818H60.1697V49.9375H57.3999V51.7102H59.9794V52.4631H57.3999V54.2443H60.2038V55H56.522ZM61.3423 49.1818H62.4077L64.2599 53.7045H64.3281L66.1804 49.1818H67.2457V55H66.4105V50.7898H66.3565L64.6406 54.9915H63.9474L62.2315 50.7869H62.1776V55H61.3423V49.1818ZM73.576 52.0909C73.576 52.7121 73.4624 53.2462 73.2351 53.6932C73.0078 54.1383 72.6963 54.4811 72.3004 54.7216C71.9065 54.9602 71.4586 55.0795 70.9567 55.0795C70.4529 55.0795 70.0031 54.9602 69.6072 54.7216C69.2133 54.4811 68.9027 54.1373 68.6754 53.6903C68.4482 53.2434 68.3345 52.7102 68.3345 52.0909C68.3345 51.4697 68.4482 50.9366 68.6754 50.4915C68.9027 50.0445 69.2133 49.7017 69.6072 49.4631C70.0031 49.2225 70.4529 49.1023 70.9567 49.1023C71.4586 49.1023 71.9065 49.2225 72.3004 49.4631C72.6963 49.7017 73.0078 50.0445 73.2351 50.4915C73.4624 50.9366 73.576 51.4697 73.576 52.0909ZM72.7067 52.0909C72.7067 51.6174 72.63 51.2187 72.4766 50.8949C72.325 50.5691 72.1167 50.3229 71.8516 50.1562C71.5883 49.9877 71.29 49.9034 70.9567 49.9034C70.6214 49.9034 70.3222 49.9877 70.0589 50.1562C69.7957 50.3229 69.5874 50.5691 69.4339 50.8949C69.2824 51.2187 69.2067 51.6174 69.2067 52.0909C69.2067 52.5644 69.2824 52.964 69.4339 53.2898C69.5874 53.6136 69.7957 53.8598 70.0589 54.0284C70.3222 54.1951 70.6214 54.2784 70.9567 54.2784C71.29 54.2784 71.5883 54.1951 71.8516 54.0284C72.1167 53.8598 72.325 53.6136 72.4766 53.2898C72.63 52.964 72.7067 52.5644 72.7067 52.0909ZM76.7876 55V49.1818H78.8615C79.3142 49.1818 79.6892 49.2642 79.9865 49.429C80.2839 49.5937 80.5064 49.8191 80.6541 50.1051C80.8018 50.3892 80.8757 50.7093 80.8757 51.0653C80.8757 51.4233 80.8009 51.7453 80.6513 52.0312C80.5036 52.3153 80.2801 52.5407 79.9808 52.7074C79.6835 52.8722 79.3094 52.9545 78.8587 52.9545H77.4325V52.2102H78.7791C79.0651 52.2102 79.2971 52.161 79.4751 52.0625C79.6532 51.9621 79.7839 51.8258 79.8672 51.6534C79.9505 51.4811 79.9922 51.285 79.9922 51.0653C79.9922 50.8456 79.9505 50.6506 79.8672 50.4801C79.7839 50.3097 79.6522 50.1761 79.4723 50.0795C79.2943 49.983 79.0594 49.9347 78.7678 49.9347H77.6655V55H76.7876ZM85.6463 49.1818H86.527V53.0085C86.527 53.4157 86.4313 53.7765 86.2401 54.0909C86.0488 54.4034 85.7798 54.6496 85.4332 54.8295C85.0866 55.0076 84.6804 55.0966 84.2145 55.0966C83.7505 55.0966 83.3452 55.0076 82.9986 54.8295C82.652 54.6496 82.383 54.4034 82.1918 54.0909C82.0005 53.7765 81.9048 53.4157 81.9048 53.0085V49.1818H82.7827V52.9375C82.7827 53.2008 82.8404 53.4347 82.956 53.6392C83.0734 53.8438 83.2391 54.0047 83.4531 54.1222C83.6671 54.2377 83.9209 54.2955 84.2145 54.2955C84.5099 54.2955 84.7647 54.2377 84.9787 54.1222C85.1946 54.0047 85.3594 53.8438 85.473 53.6392C85.5885 53.4347 85.6463 53.2008 85.6463 52.9375V49.1818ZM87.8033 55V49.1818H89.8771C90.3279 49.1818 90.7019 49.2595 90.9993 49.4148C91.2985 49.5701 91.522 49.785 91.6697 50.0597C91.8175 50.3324 91.8913 50.6477 91.8913 51.0057C91.8913 51.3617 91.8165 51.6752 91.6669 51.946C91.5192 52.215 91.2957 52.4242 90.9964 52.5739C90.6991 52.7235 90.325 52.7983 89.8743 52.7983H88.3033V52.0426H89.7947C90.0788 52.0426 90.3099 52.0019 90.4879 51.9205C90.6679 51.839 90.7995 51.7206 90.8828 51.5653C90.9661 51.41 91.0078 51.2235 91.0078 51.0057C91.0078 50.786 90.9652 50.5956 90.88 50.4347C90.7966 50.2737 90.665 50.1506 90.4851 50.0653C90.3071 49.9782 90.0732 49.9347 89.7834 49.9347H88.6811V55H87.8033ZM90.6754 52.375L92.1129 55H91.1129L89.7038 52.375H90.6754ZM92.9595 55V49.1818H95.0334C95.486 49.1818 95.861 49.2642 96.1584 49.429C96.4557 49.5937 96.6783 49.8191 96.826 50.1051C96.9737 50.3892 97.0476 50.7093 97.0476 51.0653C97.0476 51.4233 96.9728 51.7453 96.8232 52.0312C96.6754 52.3153 96.4519 52.5407 96.1527 52.7074C95.8554 52.8722 95.4813 52.9545 95.0305 52.9545H93.6044V52.2102H94.951C95.237 52.2102 95.469 52.161 95.647 52.0625C95.825 51.9621 95.9557 51.8258 96.0391 51.6534C96.1224 51.4811 96.1641 51.285 96.1641 51.0653C96.1641 50.8456 96.1224 50.6506 96.0391 50.4801C95.9557 50.3097 95.8241 50.1761 95.6442 50.0795C95.4661 49.983 95.2313 49.9347 94.9396 49.9347H93.8374V55H92.9595ZM103.131 52.0909C103.131 52.7121 103.017 53.2462 102.79 53.6932C102.563 54.1383 102.251 54.4811 101.855 54.7216C101.461 54.9602 101.013 55.0795 100.511 55.0795C100.008 55.0795 99.5578 54.9602 99.1619 54.7216C98.768 54.4811 98.4574 54.1373 98.2301 53.6903C98.0028 53.2434 97.8892 52.7102 97.8892 52.0909C97.8892 51.4697 98.0028 50.9366 98.2301 50.4915C98.4574 50.0445 98.768 49.7017 99.1619 49.4631C99.5578 49.2225 100.008 49.1023 100.511 49.1023C101.013 49.1023 101.461 49.2225 101.855 49.4631C102.251 49.7017 102.563 50.0445 102.79 50.4915C103.017 50.9366 103.131 51.4697 103.131 52.0909ZM102.261 52.0909C102.261 51.6174 102.185 51.2187 102.031 50.8949C101.88 50.5691 101.671 50.3229 101.406 50.1562C101.143 49.9877 100.845 49.9034 100.511 49.9034C100.176 49.9034 99.8769 49.9877 99.6136 50.1562C99.3504 50.3229 99.142 50.5691 98.9886 50.8949C98.8371 51.2187 98.7614 51.6174 98.7614 52.0909C98.7614 52.5644 98.8371 52.964 98.9886 53.2898C99.142 53.6136 99.3504 53.8598 99.6136 54.0284C99.8769 54.1951 100.176 54.2784 100.511 54.2784C100.845 54.2784 101.143 54.1951 101.406 54.0284C101.671 53.8598 101.88 53.6136 102.031 53.2898C102.185 52.964 102.261 52.5644 102.261 52.0909ZM107.398 50.7102C107.368 50.4413 107.243 50.233 107.023 50.0852C106.804 49.9356 106.527 49.8608 106.194 49.8608C105.955 49.8608 105.749 49.8987 105.575 49.9744C105.4 50.0483 105.265 50.1506 105.168 50.2812C105.074 50.41 105.026 50.5568 105.026 50.7216C105.026 50.8598 105.058 50.9792 105.123 51.0795C105.189 51.1799 105.275 51.2642 105.381 51.3324C105.489 51.3987 105.605 51.4545 105.728 51.5C105.851 51.5436 105.969 51.5795 106.083 51.608L106.651 51.7557C106.837 51.8011 107.027 51.8627 107.222 51.9403C107.417 52.018 107.598 52.1203 107.765 52.2472C107.932 52.3741 108.066 52.5312 108.168 52.7188C108.272 52.9062 108.325 53.1307 108.325 53.392C108.325 53.7216 108.239 54.0142 108.069 54.2699C107.9 54.5256 107.655 54.7273 107.333 54.875C107.013 55.0227 106.626 55.0966 106.171 55.0966C105.736 55.0966 105.359 55.0275 105.04 54.8892C104.722 54.7509 104.473 54.5549 104.293 54.3011C104.113 54.0455 104.014 53.7424 103.995 53.392H104.876C104.893 53.6023 104.961 53.7775 105.08 53.9176C105.201 54.0559 105.356 54.1591 105.543 54.2273C105.733 54.2936 105.94 54.3267 106.165 54.3267C106.414 54.3267 106.634 54.2879 106.827 54.2102C107.022 54.1307 107.176 54.0208 107.288 53.8807C107.399 53.7386 107.455 53.5729 107.455 53.3835C107.455 53.2112 107.406 53.0701 107.308 52.9602C107.211 52.8504 107.079 52.7595 106.913 52.6875C106.748 52.6155 106.561 52.5521 106.353 52.4972L105.665 52.3097C105.2 52.1828 104.83 51.9962 104.558 51.75C104.287 51.5038 104.151 51.178 104.151 50.7727C104.151 50.4375 104.242 50.1449 104.424 49.8949C104.606 49.6449 104.852 49.4508 105.163 49.3125C105.473 49.1723 105.824 49.1023 106.214 49.1023C106.608 49.1023 106.955 49.1714 107.256 49.3097C107.559 49.4479 107.798 49.6383 107.972 49.8807C108.147 50.1212 108.237 50.3977 108.245 50.7102H107.398ZM109.374 55V49.1818H113.021V49.9375H110.251V51.7102H112.831V52.4631H110.251V54.2443H113.055V55H109.374ZM117.367 50.7102C117.337 50.4413 117.212 50.233 116.992 50.0852C116.772 49.9356 116.496 49.8608 116.163 49.8608C115.924 49.8608 115.718 49.8987 115.543 49.9744C115.369 50.0483 115.234 50.1506 115.137 50.2812C115.042 50.41 114.995 50.5568 114.995 50.7216C114.995 50.8598 115.027 50.9792 115.092 51.0795C115.158 51.1799 115.244 51.2642 115.35 51.3324C115.458 51.3987 115.574 51.4545 115.697 51.5C115.82 51.5436 115.938 51.5795 116.052 51.608L116.62 51.7557C116.806 51.8011 116.996 51.8627 117.191 51.9403C117.386 52.018 117.567 52.1203 117.734 52.2472C117.9 52.3741 118.035 52.5312 118.137 52.7188C118.241 52.9062 118.293 53.1307 118.293 53.392C118.293 53.7216 118.208 54.0142 118.038 54.2699C117.869 54.5256 117.624 54.7273 117.302 54.875C116.982 55.0227 116.594 55.0966 116.14 55.0966C115.704 55.0966 115.327 55.0275 115.009 54.8892C114.691 54.7509 114.442 54.5549 114.262 54.3011C114.082 54.0455 113.983 53.7424 113.964 53.392H114.844C114.862 53.6023 114.93 53.7775 115.049 53.9176C115.17 54.0559 115.325 54.1591 115.512 54.2273C115.701 54.2936 115.909 54.3267 116.134 54.3267C116.382 54.3267 116.603 54.2879 116.796 54.2102C116.991 54.1307 117.145 54.0208 117.256 53.8807C117.368 53.7386 117.424 53.5729 117.424 53.3835C117.424 53.2112 117.375 53.0701 117.276 52.9602C117.18 52.8504 117.048 52.7595 116.881 52.6875C116.717 52.6155 116.53 52.5521 116.322 52.4972L115.634 52.3097C115.168 52.1828 114.799 51.9962 114.526 51.75C114.255 51.5038 114.12 51.178 114.12 50.7727C114.12 50.4375 114.211 50.1449 114.393 49.8949C114.575 49.6449 114.821 49.4508 115.131 49.3125C115.442 49.1723 115.792 49.1023 116.183 49.1023C116.576 49.1023 116.924 49.1714 117.225 49.3097C117.528 49.4479 117.767 49.6383 117.941 49.8807C118.115 50.1212 118.206 50.3977 118.214 50.7102H117.367ZM126.513 52.0909C126.513 52.7121 126.4 53.2462 126.173 53.6932C125.945 54.1383 125.634 54.4811 125.238 54.7216C124.844 54.9602 124.396 55.0795 123.894 55.0795C123.39 55.0795 122.941 54.9602 122.545 54.7216C122.151 54.4811 121.84 54.1373 121.613 53.6903C121.386 53.2434 121.272 52.7102 121.272 52.0909C121.272 51.4697 121.386 50.9366 121.613 50.4915C121.84 50.0445 122.151 49.7017 122.545 49.4631C122.941 49.2225 123.39 49.1023 123.894 49.1023C124.396 49.1023 124.844 49.2225 125.238 49.4631C125.634 49.7017 125.945 50.0445 126.173 50.4915C126.4 50.9366 126.513 51.4697 126.513 52.0909ZM125.644 52.0909C125.644 51.6174 125.567 51.2187 125.414 50.8949C125.263 50.5691 125.054 50.3229 124.789 50.1562C124.526 49.9877 124.228 49.9034 123.894 49.9034C123.559 49.9034 123.26 49.9877 122.996 50.1562C122.733 50.3229 122.525 50.5691 122.371 50.8949C122.22 51.2187 122.144 51.6174 122.144 52.0909C122.144 52.5644 122.22 52.964 122.371 53.2898C122.525 53.6136 122.733 53.8598 122.996 54.0284C123.26 54.1951 123.559 54.2784 123.894 54.2784C124.228 54.2784 124.526 54.1951 124.789 54.0284C125.054 53.8598 125.263 53.6136 125.414 53.2898C125.567 52.964 125.644 52.5644 125.644 52.0909ZM132.304 49.1818V55H131.497L128.54 50.733H128.486V55H127.608V49.1818H128.42L131.381 53.4545H131.435V49.1818H132.304ZM133.585 55V49.1818H134.462V54.2443H137.099V55H133.585ZM137.222 49.1818H138.219L139.739 51.8267H139.801L141.321 49.1818H142.318L140.207 52.7159V55H139.332V52.7159L137.222 49.1818Z" fill="#FF0000"/>
<rect x="28.5" y="44.5" width="117" height="14" stroke="#E50914"/>
</svg>
