<svg width="176" height="77" viewBox="0 0 176 77" fill="none" xmlns="http://www.w3.org/2000/svg">
<g clip-path="url(#clip0_533_2)">
<path d="M151.137 21.5652L158.76 42C156.514 41.6746 154.269 41.2684 151.98 40.9016L147.687 29.6094L143.274 39.9688C141.106 39.6039 138.978 39.4797 136.813 39.1957L144.557 21.3207L137.535 3H144.035L147.968 13.2371L152.181 3H158.76L151.137 21.5652ZM132.4 3H126.501V38.4246C128.426 38.5469 130.433 38.6278 132.4 38.8704V3ZM121.405 38.0184C116.029 37.6516 110.652 37.3281 105.155 37.2059V3H111.173V31.4375C114.623 31.5184 118.074 31.8024 121.405 31.9641V38.0184ZM98.7351 16.8539V22.9457H90.5108V36.7996H84.5711V3H101.424V9.09375H90.5108V16.8539H98.7351ZM74.4587 9.09375V37.125C72.4533 37.125 70.407 37.125 68.4407 37.2059V9.09375H62.2217V3H80.7186V9.09375H74.4587ZM55.7216 23.2711C53.0738 23.2711 49.9438 23.2711 47.6964 23.3934V32.4531C51.2267 32.2086 54.7589 31.9246 58.3283 31.8024V37.6516L41.6766 38.9945V3H58.3283V9.09375H47.6964V17.2996C50.0239 17.2996 53.5952 17.1774 55.7216 17.1774V23.2711ZM22.3772 19.8594V41.1461C20.2117 41.3906 18.2846 41.6746 16.2383 42V3H21.9769L29.8009 25.1406V3H35.8189V39.4797C33.6925 39.8465 31.527 39.9688 29.2386 40.2922L22.3772 19.8594Z" fill="#E50914"/>
<rect x="7.5" y="53.5" width="163" height="12" rx="3.5" fill="white" stroke="#E50914"/>
<path d="M34.6392 63V57.1818H38.2472V57.9375H35.517V59.7102H37.9886V60.4631H35.517V63H34.6392ZM44.3807 60.0909C44.3807 60.7121 44.267 61.2462 44.0398 61.6932C43.8125 62.1383 43.5009 62.4811 43.1051 62.7216C42.7112 62.9602 42.2633 63.0795 41.7614 63.0795C41.2576 63.0795 40.8078 62.9602 40.4119 62.7216C40.018 62.4811 39.7074 62.1373 39.4801 61.6903C39.2528 61.2434 39.1392 60.7102 39.1392 60.0909C39.1392 59.4697 39.2528 58.9366 39.4801 58.4915C39.7074 58.0445 40.018 57.7017 40.4119 57.4631C40.8078 57.2225 41.2576 57.1023 41.7614 57.1023C42.2633 57.1023 42.7112 57.2225 43.1051 57.4631C43.5009 57.7017 43.8125 58.0445 44.0398 58.4915C44.267 58.9366 44.3807 59.4697 44.3807 60.0909ZM43.5114 60.0909C43.5114 59.6174 43.4347 59.2187 43.2812 58.8949C43.1297 58.5691 42.9214 58.3229 42.6562 58.1562C42.393 57.9877 42.0947 57.9034 41.7614 57.9034C41.4261 57.9034 41.1269 57.9877 40.8636 58.1562C40.6004 58.3229 40.392 58.5691 40.2386 58.8949C40.0871 59.2187 40.0114 59.6174 40.0114 60.0909C40.0114 60.5644 40.0871 60.964 40.2386 61.2898C40.392 61.6136 40.6004 61.8598 40.8636 62.0284C41.1269 62.1951 41.4261 62.2784 41.7614 62.2784C42.0947 62.2784 42.393 62.1951 42.6562 62.0284C42.9214 61.8598 43.1297 61.6136 43.2812 61.2898C43.4347 60.964 43.5114 60.5644 43.5114 60.0909ZM45.4751 63V57.1818H47.549C47.9998 57.1818 48.3738 57.2595 48.6712 57.4148C48.9704 57.5701 49.1939 57.785 49.3416 58.0597C49.4893 58.3324 49.5632 58.6477 49.5632 59.0057C49.5632 59.3617 49.4884 59.6752 49.3388 59.946C49.1911 60.215 48.9676 60.4242 48.6683 60.5739C48.371 60.7235 47.9969 60.7983 47.5462 60.7983H45.9751V60.0426H47.4666C47.7507 60.0426 47.9818 60.0019 48.1598 59.9205C48.3397 59.839 48.4714 59.7206 48.5547 59.5653C48.638 59.41 48.6797 59.2235 48.6797 59.0057C48.6797 58.786 48.6371 58.5956 48.5518 58.4347C48.4685 58.2737 48.3369 58.1506 48.157 58.0653C47.9789 57.9782 47.745 57.9347 47.4553 57.9347H46.353V63H45.4751ZM48.3473 60.375L49.7848 63H48.7848L47.3757 60.375H48.3473ZM54.6321 63H52.7486V57.1818H54.6918C55.2618 57.1818 55.7514 57.2983 56.1605 57.5312C56.5696 57.7623 56.883 58.0947 57.1009 58.5284C57.3205 58.9602 57.4304 59.4782 57.4304 60.0824C57.4304 60.6884 57.3196 61.2093 57.098 61.6449C56.8783 62.0805 56.5601 62.4157 56.1435 62.6506C55.7268 62.8835 55.223 63 54.6321 63ZM53.6264 62.233H54.5838C55.027 62.233 55.3954 62.1496 55.6889 61.983C55.9825 61.8144 56.2022 61.571 56.348 61.2528C56.4938 60.9328 56.5668 60.5426 56.5668 60.0824C56.5668 59.6259 56.4938 59.2386 56.348 58.9205C56.2041 58.6023 55.9891 58.3608 55.7031 58.196C55.4171 58.0312 55.062 57.9489 54.6378 57.9489H53.6264V62.233ZM58.522 63V57.1818H62.1697V57.9375H59.3999V59.7102H61.9794V60.4631H59.3999V62.2443H62.2038V63H58.522ZM63.3423 57.1818H64.4077L66.2599 61.7045H66.3281L68.1804 57.1818H69.2457V63H68.4105V58.7898H68.3565L66.6406 62.9915H65.9474L64.2315 58.7869H64.1776V63H63.3423V57.1818ZM75.576 60.0909C75.576 60.7121 75.4624 61.2462 75.2351 61.6932C75.0078 62.1383 74.6963 62.4811 74.3004 62.7216C73.9065 62.9602 73.4586 63.0795 72.9567 63.0795C72.4529 63.0795 72.0031 62.9602 71.6072 62.7216C71.2133 62.4811 70.9027 62.1373 70.6754 61.6903C70.4482 61.2434 70.3345 60.7102 70.3345 60.0909C70.3345 59.4697 70.4482 58.9366 70.6754 58.4915C70.9027 58.0445 71.2133 57.7017 71.6072 57.4631C72.0031 57.2225 72.4529 57.1023 72.9567 57.1023C73.4586 57.1023 73.9065 57.2225 74.3004 57.4631C74.6963 57.7017 75.0078 58.0445 75.2351 58.4915C75.4624 58.9366 75.576 59.4697 75.576 60.0909ZM74.7067 60.0909C74.7067 59.6174 74.63 59.2187 74.4766 58.8949C74.325 58.5691 74.1167 58.3229 73.8516 58.1562C73.5883 57.9877 73.29 57.9034 72.9567 57.9034C72.6214 57.9034 72.3222 57.9877 72.0589 58.1562C71.7957 58.3229 71.5874 58.5691 71.4339 58.8949C71.2824 59.2187 71.2067 59.6174 71.2067 60.0909C71.2067 60.5644 71.2824 60.964 71.4339 61.2898C71.5874 61.6136 71.7957 61.8598 72.0589 62.0284C72.3222 62.1951 72.6214 62.2784 72.9567 62.2784C73.29 62.2784 73.5883 62.1951 73.8516 62.0284C74.1167 61.8598 74.325 61.6136 74.4766 61.2898C74.63 60.964 74.7067 60.5644 74.7067 60.0909ZM78.7876 63V57.1818H80.8615C81.3142 57.1818 81.6892 57.2642 81.9865 57.429C82.2839 57.5937 82.5064 57.8191 82.6541 58.1051C82.8018 58.3892 82.8757 58.7093 82.8757 59.0653C82.8757 59.4233 82.8009 59.7453 82.6513 60.0312C82.5036 60.3153 82.2801 60.5407 81.9808 60.7074C81.6835 60.8722 81.3094 60.9545 80.8587 60.9545H79.4325V60.2102H80.7791C81.0651 60.2102 81.2971 60.161 81.4751 60.0625C81.6532 59.9621 81.7839 59.8258 81.8672 59.6534C81.9505 59.4811 81.9922 59.285 81.9922 59.0653C81.9922 58.8456 81.9505 58.6506 81.8672 58.4801C81.7839 58.3097 81.6522 58.1761 81.4723 58.0795C81.2943 57.983 81.0594 57.9347 80.7678 57.9347H79.6655V63H78.7876ZM87.6463 57.1818H88.527V61.0085C88.527 61.4157 88.4313 61.7765 88.2401 62.0909C88.0488 62.4034 87.7798 62.6496 87.4332 62.8295C87.0866 63.0076 86.6804 63.0966 86.2145 63.0966C85.7505 63.0966 85.3452 63.0076 84.9986 62.8295C84.652 62.6496 84.383 62.4034 84.1918 62.0909C84.0005 61.7765 83.9048 61.4157 83.9048 61.0085V57.1818H84.7827V60.9375C84.7827 61.2008 84.8404 61.4347 84.956 61.6392C85.0734 61.8438 85.2391 62.0047 85.4531 62.1222C85.6671 62.2377 85.9209 62.2955 86.2145 62.2955C86.5099 62.2955 86.7647 62.2377 86.9787 62.1222C87.1946 62.0047 87.3594 61.8438 87.473 61.6392C87.5885 61.4347 87.6463 61.2008 87.6463 60.9375V57.1818ZM89.8033 63V57.1818H91.8771C92.3279 57.1818 92.7019 57.2595 92.9993 57.4148C93.2985 57.5701 93.522 57.785 93.6697 58.0597C93.8175 58.3324 93.8913 58.6477 93.8913 59.0057C93.8913 59.3617 93.8165 59.6752 93.6669 59.946C93.5192 60.215 93.2957 60.4242 92.9964 60.5739C92.6991 60.7235 92.325 60.7983 91.8743 60.7983H90.3033V60.0426H91.7947C92.0788 60.0426 92.3099 60.0019 92.4879 59.9205C92.6679 59.839 92.7995 59.7206 92.8828 59.5653C92.9661 59.41 93.0078 59.2235 93.0078 59.0057C93.0078 58.786 92.9652 58.5956 92.88 58.4347C92.7966 58.2737 92.665 58.1506 92.4851 58.0653C92.3071 57.9782 92.0732 57.9347 91.7834 57.9347H90.6811V63H89.8033ZM92.6754 60.375L94.1129 63H93.1129L91.7038 60.375H92.6754ZM94.9595 63V57.1818H97.0334C97.486 57.1818 97.861 57.2642 98.1584 57.429C98.4557 57.5937 98.6783 57.8191 98.826 58.1051C98.9737 58.3892 99.0476 58.7093 99.0476 59.0653C99.0476 59.4233 98.9728 59.7453 98.8232 60.0312C98.6754 60.3153 98.4519 60.5407 98.1527 60.7074C97.8554 60.8722 97.4813 60.9545 97.0305 60.9545H95.6044V60.2102H96.951C97.237 60.2102 97.469 60.161 97.647 60.0625C97.825 59.9621 97.9557 59.8258 98.0391 59.6534C98.1224 59.4811 98.1641 59.285 98.1641 59.0653C98.1641 58.8456 98.1224 58.6506 98.0391 58.4801C97.9557 58.3097 97.8241 58.1761 97.6442 58.0795C97.4661 57.983 97.2313 57.9347 96.9396 57.9347H95.8374V63H94.9595ZM105.131 60.0909C105.131 60.7121 105.017 61.2462 104.79 61.6932C104.563 62.1383 104.251 62.4811 103.855 62.7216C103.461 62.9602 103.013 63.0795 102.511 63.0795C102.008 63.0795 101.558 62.9602 101.162 62.7216C100.768 62.4811 100.457 62.1373 100.23 61.6903C100.003 61.2434 99.8892 60.7102 99.8892 60.0909C99.8892 59.4697 100.003 58.9366 100.23 58.4915C100.457 58.0445 100.768 57.7017 101.162 57.4631C101.558 57.2225 102.008 57.1023 102.511 57.1023C103.013 57.1023 103.461 57.2225 103.855 57.4631C104.251 57.7017 104.563 58.0445 104.79 58.4915C105.017 58.9366 105.131 59.4697 105.131 60.0909ZM104.261 60.0909C104.261 59.6174 104.185 59.2187 104.031 58.8949C103.88 58.5691 103.671 58.3229 103.406 58.1562C103.143 57.9877 102.845 57.9034 102.511 57.9034C102.176 57.9034 101.877 57.9877 101.614 58.1562C101.35 58.3229 101.142 58.5691 100.989 58.8949C100.837 59.2187 100.761 59.6174 100.761 60.0909C100.761 60.5644 100.837 60.964 100.989 61.2898C101.142 61.6136 101.35 61.8598 101.614 62.0284C101.877 62.1951 102.176 62.2784 102.511 62.2784C102.845 62.2784 103.143 62.1951 103.406 62.0284C103.671 61.8598 103.88 61.6136 104.031 61.2898C104.185 60.964 104.261 60.5644 104.261 60.0909ZM109.398 58.7102C109.368 58.4413 109.243 58.233 109.023 58.0852C108.804 57.9356 108.527 57.8608 108.194 57.8608C107.955 57.8608 107.749 57.8987 107.575 57.9744C107.4 58.0483 107.265 58.1506 107.168 58.2812C107.074 58.41 107.026 58.5568 107.026 58.7216C107.026 58.8598 107.058 58.9792 107.123 59.0795C107.189 59.1799 107.275 59.2642 107.381 59.3324C107.489 59.3987 107.605 59.4545 107.728 59.5C107.851 59.5436 107.969 59.5795 108.083 59.608L108.651 59.7557C108.837 59.8011 109.027 59.8627 109.222 59.9403C109.417 60.018 109.598 60.1203 109.765 60.2472C109.932 60.3741 110.066 60.5312 110.168 60.7188C110.272 60.9062 110.325 61.1307 110.325 61.392C110.325 61.7216 110.239 62.0142 110.069 62.2699C109.9 62.5256 109.655 62.7273 109.333 62.875C109.013 63.0227 108.626 63.0966 108.171 63.0966C107.736 63.0966 107.359 63.0275 107.04 62.8892C106.722 62.7509 106.473 62.5549 106.293 62.3011C106.113 62.0455 106.014 61.7424 105.995 61.392H106.876C106.893 61.6023 106.961 61.7775 107.08 61.9176C107.201 62.0559 107.356 62.1591 107.543 62.2273C107.733 62.2936 107.94 62.3267 108.165 62.3267C108.414 62.3267 108.634 62.2879 108.827 62.2102C109.022 62.1307 109.176 62.0208 109.288 61.8807C109.399 61.7386 109.455 61.5729 109.455 61.3835C109.455 61.2112 109.406 61.0701 109.308 60.9602C109.211 60.8504 109.079 60.7595 108.913 60.6875C108.748 60.6155 108.561 60.5521 108.353 60.4972L107.665 60.3097C107.2 60.1828 106.83 59.9962 106.558 59.75C106.287 59.5038 106.151 59.178 106.151 58.7727C106.151 58.4375 106.242 58.1449 106.424 57.8949C106.606 57.6449 106.852 57.4508 107.163 57.3125C107.473 57.1723 107.824 57.1023 108.214 57.1023C108.608 57.1023 108.955 57.1714 109.256 57.3097C109.559 57.4479 109.798 57.6383 109.972 57.8807C110.147 58.1212 110.237 58.3977 110.245 58.7102H109.398ZM111.374 63V57.1818H115.021V57.9375H112.251V59.7102H114.831V60.4631H112.251V62.2443H115.055V63H111.374ZM119.367 58.7102C119.337 58.4413 119.212 58.233 118.992 58.0852C118.772 57.9356 118.496 57.8608 118.163 57.8608C117.924 57.8608 117.718 57.8987 117.543 57.9744C117.369 58.0483 117.234 58.1506 117.137 58.2812C117.042 58.41 116.995 58.5568 116.995 58.7216C116.995 58.8598 117.027 58.9792 117.092 59.0795C117.158 59.1799 117.244 59.2642 117.35 59.3324C117.458 59.3987 117.574 59.4545 117.697 59.5C117.82 59.5436 117.938 59.5795 118.052 59.608L118.62 59.7557C118.806 59.8011 118.996 59.8627 119.191 59.9403C119.386 60.018 119.567 60.1203 119.734 60.2472C119.9 60.3741 120.035 60.5312 120.137 60.7188C120.241 60.9062 120.293 61.1307 120.293 61.392C120.293 61.7216 120.208 62.0142 120.038 62.2699C119.869 62.5256 119.624 62.7273 119.302 62.875C118.982 63.0227 118.594 63.0966 118.14 63.0966C117.704 63.0966 117.327 63.0275 117.009 62.8892C116.691 62.7509 116.442 62.5549 116.262 62.3011C116.082 62.0455 115.983 61.7424 115.964 61.392H116.844C116.862 61.6023 116.93 61.7775 117.049 61.9176C117.17 62.0559 117.325 62.1591 117.512 62.2273C117.701 62.2936 117.909 62.3267 118.134 62.3267C118.382 62.3267 118.603 62.2879 118.796 62.2102C118.991 62.1307 119.145 62.0208 119.256 61.8807C119.368 61.7386 119.424 61.5729 119.424 61.3835C119.424 61.2112 119.375 61.0701 119.276 60.9602C119.18 60.8504 119.048 60.7595 118.881 60.6875C118.717 60.6155 118.53 60.5521 118.322 60.4972L117.634 60.3097C117.168 60.1828 116.799 59.9962 116.526 59.75C116.255 59.5038 116.12 59.178 116.12 58.7727C116.12 58.4375 116.211 58.1449 116.393 57.8949C116.575 57.6449 116.821 57.4508 117.131 57.3125C117.442 57.1723 117.792 57.1023 118.183 57.1023C118.576 57.1023 118.924 57.1714 119.225 57.3097C119.528 57.4479 119.767 57.6383 119.941 57.8807C120.115 58.1212 120.206 58.3977 120.214 58.7102H119.367ZM128.513 60.0909C128.513 60.7121 128.4 61.2462 128.173 61.6932C127.945 62.1383 127.634 62.4811 127.238 62.7216C126.844 62.9602 126.396 63.0795 125.894 63.0795C125.39 63.0795 124.941 62.9602 124.545 62.7216C124.151 62.4811 123.84 62.1373 123.613 61.6903C123.386 61.2434 123.272 60.7102 123.272 60.0909C123.272 59.4697 123.386 58.9366 123.613 58.4915C123.84 58.0445 124.151 57.7017 124.545 57.4631C124.941 57.2225 125.39 57.1023 125.894 57.1023C126.396 57.1023 126.844 57.2225 127.238 57.4631C127.634 57.7017 127.945 58.0445 128.173 58.4915C128.4 58.9366 128.513 59.4697 128.513 60.0909ZM127.644 60.0909C127.644 59.6174 127.567 59.2187 127.414 58.8949C127.263 58.5691 127.054 58.3229 126.789 58.1562C126.526 57.9877 126.228 57.9034 125.894 57.9034C125.559 57.9034 125.26 57.9877 124.996 58.1562C124.733 58.3229 124.525 58.5691 124.371 58.8949C124.22 59.2187 124.144 59.6174 124.144 60.0909C124.144 60.5644 124.22 60.964 124.371 61.2898C124.525 61.6136 124.733 61.8598 124.996 62.0284C125.26 62.1951 125.559 62.2784 125.894 62.2784C126.228 62.2784 126.526 62.1951 126.789 62.0284C127.054 61.8598 127.263 61.6136 127.414 61.2898C127.567 60.964 127.644 60.5644 127.644 60.0909ZM134.304 57.1818V63H133.497L130.54 58.733H130.486V63H129.608V57.1818H130.42L133.381 61.4545H133.435V57.1818H134.304ZM135.585 63V57.1818H136.462V62.2443H139.099V63H135.585ZM139.222 57.1818H140.219L141.739 59.8267H141.801L143.321 57.1818H144.318L142.207 60.7159V63H141.332V60.7159L139.222 57.1818Z" fill="#FF0000"/>
</g>
<defs>
<clipPath id="clip0_533_2">
<rect width="176" height="77" fill="white"/>
</clipPath>
</defs>
</svg>
