<svg width="580" height="83" viewBox="0 0 580 83" fill="none" xmlns="http://www.w3.org/2000/svg">
<path d="M93.3804 19.8872C96.4126 19.8872 99.0347 20.4731 101.247 21.645C104.455 23.3296 106.417 26.2812 107.135 30.5H102.807C102.279 28.1416 101.188 26.4277 99.5327 25.3584C97.8774 24.2744 95.79 23.7324 93.2705 23.7324C90.2822 23.7324 87.7627 24.853 85.7119 27.0942C83.6758 29.3354 82.6577 32.6753 82.6577 37.1138C82.6577 40.9517 83.5 44.0791 85.1846 46.4961C86.8691 48.8984 89.6157 50.0996 93.4243 50.0996C96.3394 50.0996 98.749 49.2573 100.653 47.5728C102.572 45.8735 103.554 43.1343 103.598 39.355H93.4902V35.7295H107.663V53H104.85L103.795 48.8472C102.316 50.4731 101.005 51.6011 99.8623 52.231C97.9434 53.3149 95.5044 53.8569 92.5454 53.8569C88.7222 53.8569 85.4336 52.6191 82.6797 50.1436C79.6768 47.0381 78.1753 42.7754 78.1753 37.3555C78.1753 31.9502 79.6401 27.6509 82.5698 24.4575C85.353 21.4106 88.9565 19.8872 93.3804 19.8872ZM119.198 20.7222V40.6733C119.198 43.0171 119.638 44.9653 120.517 46.5181C121.82 48.8618 124.018 50.0337 127.108 50.0337C130.814 50.0337 133.334 48.7666 134.667 46.2324C135.385 44.8555 135.744 43.0024 135.744 40.6733V20.7222H140.182V38.8496C140.182 42.8193 139.647 45.8735 138.578 48.0122C136.615 51.9087 132.909 53.8569 127.46 53.8569C122.011 53.8569 118.312 51.9087 116.364 48.0122C115.294 45.8735 114.76 42.8193 114.76 38.8496V20.7222H119.198ZM163.539 39.7725L158.639 25.5122L153.432 39.7725H163.539ZM156.354 20.7222H161.298L173.009 53H168.219L164.945 43.332H152.179L148.686 53H144.203L156.354 20.7222ZM191.994 35.5098C194.044 35.5098 195.663 35.0996 196.85 34.2793C198.051 33.459 198.651 31.9795 198.651 29.8408C198.651 27.541 197.816 25.9736 196.146 25.1387C195.253 24.6992 194.059 24.4795 192.565 24.4795H181.886V35.5098H191.994ZM177.514 20.7222H192.455C194.916 20.7222 196.945 21.0811 198.542 21.7988C201.574 23.1758 203.09 25.7173 203.09 29.4233C203.09 31.3569 202.687 32.939 201.881 34.1694C201.09 35.3999 199.977 36.3887 198.542 37.1357C199.801 37.6484 200.746 38.3223 201.376 39.1572C202.021 39.9922 202.379 41.3472 202.453 43.2222L202.606 47.5508C202.65 48.7812 202.753 49.6968 202.914 50.2974C203.178 51.3228 203.646 51.9819 204.32 52.2749V53H198.959C198.812 52.7217 198.695 52.3628 198.607 51.9233C198.52 51.4839 198.446 50.6343 198.388 49.3745L198.124 43.9912C198.021 41.8818 197.238 40.4683 195.773 39.7505C194.938 39.355 193.627 39.1572 191.84 39.1572H181.886V53H177.514V20.7222ZM221.898 49.2646C223.378 49.2646 224.594 49.1108 225.546 48.8032C227.245 48.2319 228.637 47.1333 229.721 45.5073C230.585 44.2036 231.208 42.5337 231.588 40.4976C231.808 39.2817 231.918 38.1538 231.918 37.1138C231.918 33.1147 231.12 30.0093 229.523 27.7974C227.941 25.5854 225.385 24.4795 221.854 24.4795H214.098V49.2646H221.898ZM209.704 20.7222H222.777C227.216 20.7222 230.658 22.2969 233.104 25.4463C235.287 28.2881 236.378 31.9282 236.378 36.3667C236.378 39.7944 235.734 42.8926 234.445 45.6611C232.174 50.5537 228.271 53 222.733 53H209.704V20.7222ZM243.014 20.7222H247.431V53H243.014V20.7222ZM268.48 19.8433C274.179 19.8433 278.397 21.6743 281.137 25.3364C283.275 28.1929 284.345 31.8477 284.345 36.3008C284.345 41.1201 283.122 45.1265 280.675 48.3198C277.804 52.0698 273.71 53.9448 268.393 53.9448C263.427 53.9448 259.523 52.3042 256.681 49.0229C254.147 45.8589 252.88 41.8599 252.88 37.0259C252.88 32.6606 253.964 28.9253 256.132 25.8198C258.915 21.8354 263.031 19.8433 268.48 19.8433ZM268.92 50.0337C272.772 50.0337 275.556 48.6567 277.27 45.9028C278.998 43.1343 279.862 39.9556 279.862 36.3667C279.862 32.5728 278.866 29.5186 276.874 27.2041C274.896 24.8896 272.187 23.7324 268.744 23.7324C265.404 23.7324 262.68 24.8823 260.57 27.1821C258.461 29.4673 257.406 32.8438 257.406 37.3115C257.406 40.8857 258.307 43.9033 260.109 46.3643C261.925 48.8105 264.862 50.0337 268.92 50.0337ZM303.087 20.7222H307.504V53H303.087V20.7222ZM314.623 20.7222H319.787L336.09 46.8696V20.7222H340.243V53H335.343L318.798 26.8745V53H314.623V20.7222ZM349.999 42.585C350.102 44.416 350.534 45.9028 351.295 47.0454C352.746 49.1841 355.302 50.2534 358.964 50.2534C360.604 50.2534 362.099 50.019 363.446 49.5503C366.054 48.6421 367.357 47.0161 367.357 44.6724C367.357 42.9146 366.808 41.6621 365.709 40.915C364.596 40.1826 362.853 39.5454 360.48 39.0034L356.107 38.0146C353.251 37.3701 351.229 36.6597 350.043 35.8833C347.992 34.5356 346.967 32.5215 346.967 29.8408C346.967 26.9404 347.97 24.5601 349.977 22.6997C351.984 20.8394 354.826 19.9092 358.502 19.9092C361.886 19.9092 364.757 20.7295 367.116 22.3701C369.489 23.9961 370.675 26.6035 370.675 30.1924H366.566C366.347 28.4639 365.878 27.1382 365.16 26.2153C363.827 24.5308 361.564 23.6885 358.371 23.6885C355.792 23.6885 353.939 24.2305 352.812 25.3145C351.684 26.3984 351.12 27.6582 351.12 29.0938C351.12 30.6758 351.779 31.833 353.097 32.5654C353.961 33.0342 355.917 33.6201 358.964 34.3232L363.49 35.356C365.673 35.854 367.357 36.5352 368.544 37.3994C370.595 38.9082 371.62 41.0981 371.62 43.9692C371.62 47.5435 370.316 50.0996 367.709 51.6377C365.116 53.1758 362.099 53.9448 358.656 53.9448C354.643 53.9448 351.5 52.9194 349.23 50.8687C346.959 48.8325 345.846 46.0713 345.89 42.585H349.999ZM381.903 20.7222V40.6733C381.903 43.0171 382.343 44.9653 383.222 46.5181C384.525 48.8618 386.723 50.0337 389.813 50.0337C393.52 50.0337 396.039 48.7666 397.372 46.2324C398.09 44.8555 398.449 43.0024 398.449 40.6733V20.7222H402.887V38.8496C402.887 42.8193 402.353 45.8735 401.283 48.0122C399.32 51.9087 395.614 53.8569 390.165 53.8569C384.716 53.8569 381.017 51.9087 379.069 48.0122C378 45.8735 377.465 42.8193 377.465 38.8496V20.7222H381.903ZM424.684 35.5098C426.735 35.5098 428.354 35.0996 429.54 34.2793C430.741 33.459 431.342 31.9795 431.342 29.8408C431.342 27.541 430.507 25.9736 428.837 25.1387C427.943 24.6992 426.75 24.4795 425.255 24.4795H414.577V35.5098H424.684ZM410.204 20.7222H425.146C427.606 20.7222 429.635 21.0811 431.232 21.7988C434.264 23.1758 435.78 25.7173 435.78 29.4233C435.78 31.3569 435.377 32.939 434.572 34.1694C433.781 35.3999 432.667 36.3887 431.232 37.1357C432.492 37.6484 433.437 38.3223 434.066 39.1572C434.711 39.9922 435.07 41.3472 435.143 43.2222L435.297 47.5508C435.341 48.7812 435.443 49.6968 435.604 50.2974C435.868 51.3228 436.337 51.9819 437.011 52.2749V53H431.649C431.503 52.7217 431.386 52.3628 431.298 51.9233C431.21 51.4839 431.137 50.6343 431.078 49.3745L430.814 43.9912C430.712 41.8818 429.928 40.4683 428.463 39.7505C427.628 39.355 426.317 39.1572 424.53 39.1572H414.577V53H410.204V20.7222ZM458.764 39.7725L453.864 25.5122L448.656 39.7725H458.764ZM451.579 20.7222H456.522L468.234 53H463.444L460.17 43.332H447.404L443.91 53H439.428L451.579 20.7222ZM472.211 20.7222H477.375L493.678 46.8696V20.7222H497.831V53H492.931L476.386 26.8745V53H472.211V20.7222ZM518.332 19.8433C522.418 19.8433 525.59 20.9199 527.846 23.0732C530.102 25.2266 531.354 27.6729 531.603 30.4121H527.34C526.857 28.332 525.89 26.6841 524.44 25.4683C523.004 24.2524 520.983 23.6445 518.375 23.6445C515.197 23.6445 512.626 24.7651 510.663 27.0063C508.715 29.2329 507.741 32.6533 507.741 37.2676C507.741 41.0469 508.62 44.1157 510.377 46.4741C512.15 48.8179 514.787 49.9897 518.288 49.9897C521.51 49.9897 523.964 48.752 525.648 46.2764C526.542 44.9727 527.208 43.2588 527.648 41.1348H531.911C531.53 44.5332 530.27 47.3823 528.131 49.6821C525.568 52.4507 522.111 53.835 517.76 53.835C514.01 53.835 510.861 52.6997 508.312 50.4292C504.958 47.4263 503.28 42.79 503.28 36.5205C503.28 31.7598 504.54 27.856 507.06 24.8091C509.784 21.4985 513.542 19.8433 518.332 19.8433ZM537.667 20.7222H561.2V24.6772H541.93V34.4771H559.75V38.2124H541.93V49.1548H561.53V53H537.667V20.7222Z" fill="white"/>
<path d="M62.8003 17.2726L38.0598 10.038C37.8708 9.98634 37.6714 9.98634 37.4824 10.038L12.7422 17.2726C12.5282 17.3352 12.3402 17.4656 12.2064 17.6443C12.0726 17.823 12.0002 18.0404 12 18.2638V36.8646C12.0015 39.9516 12.6115 43.0079 13.795 45.8578C14.9785 48.7078 16.7122 51.2951 18.8964 53.4712V53.4817L37.0393 71.7003C37.2347 71.8924 37.4975 72 37.7712 72C38.0449 72 38.3077 71.8924 38.5032 71.7003L56.646 53.4715C58.8302 51.2954 60.5639 48.7081 61.7475 45.8581C62.931 43.0082 63.541 39.9519 63.5425 36.8649V18.2638C63.5425 18.0402 63.4701 17.8226 63.3363 17.6437C63.2025 17.4648 63.0144 17.3343 62.8003 17.2717V17.2726ZM61.4806 36.8655C61.4788 39.6822 60.9214 42.4708 59.8405 45.0707C58.7595 47.6706 57.1764 50.0306 55.1822 52.0149L37.7714 69.499L20.3603 52.0143C18.366 50.03 16.7828 47.67 15.7018 45.07C14.6208 42.47 14.0634 39.6814 14.0616 36.8646V19.039L37.7711 12.104L61.4806 19.039V36.8655Z" fill="url(#paint0_linear_302_405)"/>
<path d="M58.6764 20.3717L38.0597 14.3472C37.8722 14.2853 37.6698 14.2853 37.4823 14.3472L16.8655 20.3717C16.6514 20.4343 16.4633 20.5649 16.3294 20.7438C16.1956 20.9227 16.1233 21.1403 16.1233 21.3639V36.8646C16.1257 39.4102 16.6296 41.9304 17.6061 44.2803C18.5826 46.6302 20.0124 48.7637 21.8135 50.5582L37.0392 65.8419C37.1343 65.94 37.2481 66.0181 37.3738 66.0713C37.4995 66.1246 37.6346 66.152 37.7711 66.152C37.9076 66.152 38.0427 66.1246 38.1684 66.0713C38.2941 66.0181 38.4079 65.94 38.503 65.8419L53.7182 50.5582C55.5226 48.7658 56.9552 46.6331 57.9336 44.2831C58.912 41.9331 59.4168 39.4123 59.4189 36.8658V21.3639C59.4189 21.1403 59.3466 20.9227 59.2128 20.7438C59.079 20.5649 58.8909 20.4343 58.6767 20.3717H58.6764ZM57.3568 36.8646C57.3526 39.1397 56.9006 41.3917 56.0267 43.4914C55.1529 45.5912 53.8743 47.4974 52.2642 49.1009L37.7703 63.6511L23.2765 49.1009C21.6653 47.4982 20.386 45.5921 19.5121 43.4922C18.6381 41.3923 18.1868 39.1399 18.1839 36.8646V22.1403L37.7694 16.4154L57.3574 22.1403L57.3568 36.8646Z" fill="url(#paint1_linear_302_405)"/>
<path d="M37.7713 23.4304C35.1208 23.4304 32.5298 24.2183 30.326 25.6945C28.1222 27.1706 26.4045 29.2687 25.3902 31.7235C24.3759 34.1783 24.1105 36.8794 24.6276 39.4854C25.1447 42.0913 26.421 44.4851 28.2952 46.3638C30.1694 48.2426 32.5573 49.5221 35.1568 50.0405C37.7564 50.5588 40.4509 50.2928 42.8997 49.276C45.3484 48.2592 47.4414 46.5373 48.9139 44.3281C50.3865 42.1189 51.1724 39.5215 51.1724 36.8645C51.1724 33.3016 49.7605 29.8846 47.2473 27.3652C44.7341 24.8458 41.3255 23.4304 37.7713 23.4304V23.4304ZM37.7713 48.2317C35.5286 48.2317 33.3362 47.565 31.4715 46.316C29.6068 45.0669 28.1534 43.2916 27.2951 41.2145C26.4369 39.1375 26.2123 36.8519 26.6499 34.6469C27.0874 32.4419 28.1674 30.4164 29.7532 28.8267C31.339 27.237 33.3595 26.1544 35.5591 25.7158C37.7587 25.2772 40.0387 25.5023 42.1106 26.3626C44.1826 27.223 45.9536 28.6799 47.1996 30.5493C48.4455 32.4186 49.1106 34.6163 49.1106 36.8645C49.1106 39.8793 47.9159 42.7706 45.7894 44.9023C43.6628 47.0341 40.7786 48.2317 37.7713 48.2317V48.2317Z" fill="url(#paint2_linear_302_405)"/>
<path d="M37.9521 29.7549C39.165 29.7549 40.2139 29.9893 41.0986 30.458C42.3818 31.1318 43.167 32.3125 43.4541 34H41.7227C41.5117 33.0566 41.0752 32.3711 40.4131 31.9434C39.751 31.5098 38.916 31.293 37.9082 31.293C36.7129 31.293 35.7051 31.7412 34.8848 32.6377C34.0703 33.5342 33.6631 34.8701 33.6631 36.6455C33.6631 38.1807 34 39.4316 34.6738 40.3984C35.3477 41.3594 36.4463 41.8398 37.9697 41.8398C39.1357 41.8398 40.0996 41.5029 40.8613 40.8291C41.6289 40.1494 42.0215 39.0537 42.0391 37.542H37.9961V36.0918H43.665V43H42.54L42.1182 41.3389C41.5264 41.9893 41.002 42.4404 40.5449 42.6924C39.7773 43.126 38.8018 43.3428 37.6182 43.3428C36.0889 43.3428 34.7734 42.8477 33.6719 41.8574C32.4707 40.6152 31.8701 38.9102 31.8701 36.7422C31.8701 34.5801 32.4561 32.8604 33.6279 31.583C34.7412 30.3643 36.1826 29.7549 37.9521 29.7549Z" fill="#F0803D"/>
<defs>
<linearGradient id="paint0_linear_302_405" x1="37.7712" y1="7.82924" x2="37.7712" y2="78.0141" gradientUnits="userSpaceOnUse">
<stop stop-color="#FFF33B"/>
<stop offset="0.014" stop-color="#FEE72E"/>
<stop offset="0.042" stop-color="#FED51B"/>
<stop offset="0.07" stop-color="#FDCA10"/>
<stop offset="0.1" stop-color="#FDC70C"/>
<stop offset="0.4" stop-color="#F3903F"/>
<stop offset="0.8" stop-color="#ED683C"/>
<stop offset="1" stop-color="#E93E3A"/>
</linearGradient>
<linearGradient id="paint1_linear_302_405" x1="37.7711" y1="7.81937" x2="37.7711" y2="78.026" gradientUnits="userSpaceOnUse">
<stop stop-color="#FFF33B"/>
<stop offset="0.014" stop-color="#FEE72E"/>
<stop offset="0.042" stop-color="#FED51B"/>
<stop offset="0.07" stop-color="#FDCA10"/>
<stop offset="0.1" stop-color="#FDC70C"/>
<stop offset="0.4" stop-color="#F3903F"/>
<stop offset="0.8" stop-color="#ED683C"/>
<stop offset="1" stop-color="#E93E3A"/>
</linearGradient>
<linearGradient id="paint2_linear_302_405" x1="37.7713" y1="7.82" x2="37.7713" y2="77.9997" gradientUnits="userSpaceOnUse">
<stop stop-color="#FFF33B"/>
<stop offset="0.014" stop-color="#FEE72E"/>
<stop offset="0.042" stop-color="#FED51B"/>
<stop offset="0.07" stop-color="#FDCA10"/>
<stop offset="0.1" stop-color="#FDC70C"/>
<stop offset="0.4" stop-color="#F3903F"/>
<stop offset="0.8" stop-color="#ED683C"/>
<stop offset="1" stop-color="#E93E3A"/>
</linearGradient>
</defs>
</svg>
