<svg width="308" height="89" viewBox="0 0 308 89" fill="none" xmlns="http://www.w3.org/2000/svg">
<g clip-path="url(#clip0_322_25)">
<path d="M118.547 22.3789V54H110.324V40.7188H107.863V54H99.6406V22.3789H107.863V33.6875H110.324V22.3789H118.547ZM128.684 38.1211H121.281V36.3828C121.281 34.3776 121.509 32.8346 121.965 31.7539C122.434 30.6602 123.365 29.6966 124.758 28.8633C126.151 28.0299 127.961 27.6133 130.188 27.6133C132.857 27.6133 134.868 28.0885 136.223 29.0391C137.577 29.9766 138.391 31.1354 138.664 32.5156C138.938 33.8828 139.074 36.7083 139.074 40.9922V54H131.398V51.6953C130.917 52.6198 130.292 53.3164 129.523 53.7852C128.768 54.2409 127.863 54.4688 126.809 54.4688C125.428 54.4688 124.159 54.0846 123 53.3164C121.854 52.5352 121.281 50.8359 121.281 48.2188V46.0898C121.281 44.1497 121.587 42.8281 122.199 42.125C122.811 41.4219 124.328 40.6016 126.75 39.6641C129.341 38.6484 130.728 37.9648 130.91 37.6133C131.092 37.2617 131.184 36.5456 131.184 35.4648C131.184 34.1107 131.079 33.2318 130.871 32.8281C130.676 32.4115 130.344 32.2031 129.875 32.2031C129.341 32.2031 129.009 32.3789 128.879 32.7305C128.749 33.069 128.684 33.9609 128.684 35.4062V38.1211ZM131.184 41.6758C129.921 42.6003 129.185 43.375 128.977 44C128.781 44.625 128.684 45.5234 128.684 46.6953C128.684 48.0365 128.768 48.9023 128.938 49.293C129.12 49.6836 129.471 49.8789 129.992 49.8789C130.487 49.8789 130.806 49.7292 130.949 49.4297C131.105 49.1172 131.184 48.3099 131.184 47.0078V41.6758ZM149.816 28.082L149.68 30.3672C150.383 29.4427 151.158 28.7526 152.004 28.2969C152.85 27.8411 153.775 27.6133 154.777 27.6133C156.001 27.6133 157.056 27.9453 157.941 28.6094C158.84 29.2604 159.4 30.0156 159.621 30.875C159.842 31.7344 159.953 33.1927 159.953 35.25V46.168C159.953 48.5247 159.81 50.2044 159.523 51.207C159.25 52.1966 158.677 52.9909 157.805 53.5898C156.945 54.1758 155.904 54.4688 154.68 54.4688C153.703 54.4688 152.798 54.2409 151.965 53.7852C151.132 53.3294 150.37 52.6523 149.68 51.7539V57.6914H141.789V28.082H149.816ZM152.062 35.6211C152.062 34.0195 152.004 33.0495 151.887 32.7109C151.77 32.3724 151.444 32.2031 150.91 32.2031C150.389 32.2031 150.051 32.3984 149.895 32.7891C149.751 33.1797 149.68 34.1237 149.68 35.6211V46.3633C149.68 47.9258 149.758 48.9023 149.914 49.293C150.07 49.6836 150.409 49.8789 150.93 49.8789C151.438 49.8789 151.75 49.7031 151.867 49.3516C151.997 48.987 152.062 48.1146 152.062 46.7344V35.6211ZM170.598 28.082L170.461 30.3672C171.164 29.4427 171.939 28.7526 172.785 28.2969C173.632 27.8411 174.556 27.6133 175.559 27.6133C176.783 27.6133 177.837 27.9453 178.723 28.6094C179.621 29.2604 180.181 30.0156 180.402 30.875C180.624 31.7344 180.734 33.1927 180.734 35.25V46.168C180.734 48.5247 180.591 50.2044 180.305 51.207C180.031 52.1966 179.458 52.9909 178.586 53.5898C177.727 54.1758 176.685 54.4688 175.461 54.4688C174.484 54.4688 173.579 54.2409 172.746 53.7852C171.913 53.3294 171.151 52.6523 170.461 51.7539V57.6914H162.57V28.082H170.598ZM172.844 35.6211C172.844 34.0195 172.785 33.0495 172.668 32.7109C172.551 32.3724 172.225 32.2031 171.691 32.2031C171.171 32.2031 170.832 32.3984 170.676 32.7891C170.533 33.1797 170.461 34.1237 170.461 35.6211V46.3633C170.461 47.9258 170.539 48.9023 170.695 49.293C170.852 49.6836 171.19 49.8789 171.711 49.8789C172.219 49.8789 172.531 49.7031 172.648 49.3516C172.779 48.987 172.844 48.1146 172.844 46.7344V35.6211ZM199.875 28.082L197.609 46.832C197.258 49.8008 196.958 51.8255 196.711 52.9062C196.477 53.987 196.079 54.8789 195.52 55.582C194.96 56.2852 194.178 56.7995 193.176 57.125C192.186 57.4635 190.598 57.6328 188.41 57.6328H183.625V53.4922C184.849 53.4922 185.637 53.4336 185.988 53.3164C186.34 53.1862 186.516 52.9062 186.516 52.4766C186.516 52.2682 186.353 51.3633 186.027 49.7617L181.711 28.082H188.879L191.457 45.5625L192.707 28.082H199.875ZM208.586 22.3789H216.867C219.107 22.3789 220.826 22.5547 222.023 22.9062C223.234 23.2578 224.139 23.7656 224.738 24.4297C225.35 25.0938 225.76 25.901 225.969 26.8516C226.19 27.7891 226.301 29.2474 226.301 31.2266V33.9805C226.301 35.9987 226.092 37.4701 225.676 38.3945C225.259 39.319 224.491 40.0286 223.371 40.5234C222.264 41.0182 220.812 41.2656 219.016 41.2656H216.809V54H208.586V22.3789ZM216.809 27.7891V35.8359C217.043 35.849 217.245 35.8555 217.414 35.8555C218.169 35.8555 218.69 35.6732 218.977 35.3086C219.276 34.931 219.426 34.1562 219.426 32.9844V30.3867C219.426 29.306 219.257 28.6029 218.918 28.2773C218.579 27.9518 217.876 27.7891 216.809 27.7891ZM246.301 41.5H236.086V47.1055C236.086 48.2773 236.171 49.0326 236.34 49.3711C236.509 49.7096 236.835 49.8789 237.316 49.8789C237.915 49.8789 238.312 49.6576 238.508 49.2148C238.716 48.7591 238.82 47.8867 238.82 46.5977V43.1797H246.301V45.0938C246.301 46.6953 246.197 47.9258 245.988 48.7852C245.793 49.6445 245.324 50.5625 244.582 51.5391C243.84 52.5156 242.896 53.2513 241.75 53.7461C240.617 54.2279 239.191 54.4688 237.473 54.4688C235.806 54.4688 234.335 54.2279 233.059 53.7461C231.783 53.2643 230.786 52.6068 230.07 51.7734C229.367 50.9271 228.879 50.0026 228.605 49C228.332 47.9844 228.195 46.513 228.195 44.5859V37.0273C228.195 34.7617 228.501 32.9779 229.113 31.6758C229.725 30.3607 230.728 29.3581 232.121 28.668C233.514 27.9648 235.116 27.6133 236.926 27.6133C239.139 27.6133 240.962 28.0365 242.395 28.8828C243.84 29.7161 244.849 30.8294 245.422 32.2227C246.008 33.6029 246.301 35.5495 246.301 38.0625V41.5ZM238.391 37.2812V35.3867C238.391 34.0456 238.319 33.1797 238.176 32.7891C238.033 32.3984 237.74 32.2031 237.297 32.2031C236.75 32.2031 236.411 32.3724 236.281 32.7109C236.151 33.0365 236.086 33.9284 236.086 35.3867V37.2812H238.391ZM257.219 24.625V28.707H259.348V32.8086H257.219V46.6758C257.219 48.3815 257.303 49.332 257.473 49.5273C257.655 49.7227 258.391 49.8203 259.68 49.8203V54H256.496C254.699 54 253.417 53.9284 252.648 53.7852C251.88 53.6289 251.203 53.2839 250.617 52.75C250.031 52.2031 249.667 51.5846 249.523 50.8945C249.38 50.1914 249.309 48.5508 249.309 45.9727V32.8086H247.609V28.707H249.309V24.625H257.219ZM277.199 36.3633H270.207V34.957C270.207 33.7591 270.135 33.0039 269.992 32.6914C269.862 32.3659 269.523 32.2031 268.977 32.2031C268.534 32.2031 268.202 32.3529 267.98 32.6523C267.759 32.9388 267.648 33.375 267.648 33.9609C267.648 34.7552 267.701 35.3411 267.805 35.7188C267.922 36.0833 268.254 36.487 268.801 36.9297C269.361 37.3724 270.5 38.0169 272.219 38.8633C274.51 39.9831 276.014 41.0378 276.73 42.0273C277.447 43.0169 277.805 44.4557 277.805 46.3438C277.805 48.4531 277.531 50.0482 276.984 51.1289C276.438 52.1966 275.52 53.0234 274.23 53.6094C272.954 54.1823 271.411 54.4688 269.602 54.4688C267.596 54.4688 265.878 54.1562 264.445 53.5312C263.026 52.9062 262.049 52.0599 261.516 50.9922C260.982 49.9245 260.715 48.3099 260.715 46.1484V44.8984H267.707V46.5391C267.707 47.9323 267.792 48.8372 267.961 49.2539C268.143 49.6706 268.495 49.8789 269.016 49.8789C269.576 49.8789 269.966 49.7422 270.188 49.4688C270.409 49.1823 270.52 48.5898 270.52 47.6914C270.52 46.4544 270.376 45.6797 270.09 45.3672C269.79 45.0547 268.26 44.1302 265.5 42.5938C263.182 41.2917 261.77 40.1133 261.262 39.0586C260.754 37.9909 260.5 36.7279 260.5 35.2695C260.5 33.1992 260.773 31.6758 261.32 30.6992C261.867 29.7096 262.792 28.9479 264.094 28.4141C265.409 27.8802 266.932 27.6133 268.664 27.6133C270.383 27.6133 271.841 27.8346 273.039 28.2773C274.25 28.707 275.174 29.2799 275.812 29.9961C276.464 30.7122 276.854 31.3763 276.984 31.9883C277.128 32.6003 277.199 33.5573 277.199 34.8594V36.3633Z" fill="black"/>
<path d="M105.584 77.8662H101.405V76.1797H105.584C106.393 76.1797 107.049 76.0508 107.55 75.793C108.051 75.5352 108.416 75.1771 108.646 74.7188C108.882 74.2604 109 73.7376 109 73.1504C109 72.6133 108.882 72.1084 108.646 71.6357C108.416 71.1631 108.051 70.7835 107.55 70.4971C107.049 70.2035 106.393 70.0566 105.584 70.0566H101.889V84H99.8154V68.3594H105.584C106.766 68.3594 107.765 68.5635 108.581 68.9717C109.397 69.3799 110.017 69.9456 110.439 70.6689C110.862 71.3851 111.073 72.2051 111.073 73.1289C111.073 74.1315 110.862 74.9873 110.439 75.6963C110.017 76.4053 109.397 76.946 108.581 77.3184C107.765 77.6836 106.766 77.8662 105.584 77.8662ZM118.066 84.2148C117.257 84.2148 116.523 84.0788 115.864 83.8066C115.213 83.5273 114.65 83.137 114.178 82.6357C113.712 82.1344 113.354 81.54 113.104 80.8525C112.853 80.165 112.728 79.4131 112.728 78.5967V78.1455C112.728 77.2002 112.867 76.3587 113.146 75.6211C113.426 74.8763 113.805 74.2461 114.285 73.7305C114.765 73.2148 115.309 72.8245 115.918 72.5596C116.527 72.2946 117.157 72.1621 117.809 72.1621C118.639 72.1621 119.355 72.3053 119.957 72.5918C120.566 72.8783 121.063 73.2793 121.45 73.7949C121.837 74.3034 122.123 74.9049 122.31 75.5996C122.496 76.2871 122.589 77.0391 122.589 77.8555V78.7471H113.909V77.125H120.602V76.9746C120.573 76.459 120.465 75.9577 120.279 75.4707C120.1 74.9837 119.814 74.5827 119.42 74.2676C119.026 73.9525 118.489 73.7949 117.809 73.7949C117.357 73.7949 116.942 73.8916 116.562 74.085C116.183 74.2712 115.857 74.5505 115.585 74.9229C115.313 75.2952 115.102 75.75 114.951 76.2871C114.801 76.8242 114.726 77.4437 114.726 78.1455V78.5967C114.726 79.1481 114.801 79.6673 114.951 80.1543C115.109 80.6341 115.334 81.0566 115.628 81.4219C115.929 81.7871 116.29 82.0736 116.713 82.2812C117.143 82.4889 117.63 82.5928 118.174 82.5928C118.876 82.5928 119.47 82.4495 119.957 82.1631C120.444 81.8766 120.87 81.4935 121.235 81.0137L122.438 81.9697C122.188 82.3493 121.869 82.7109 121.482 83.0547C121.096 83.3984 120.619 83.6777 120.054 83.8926C119.495 84.1074 118.833 84.2148 118.066 84.2148ZM129.775 72.377V73.9023H123.491V72.377H129.775ZM125.618 69.5518H127.605V81.1211C127.605 81.515 127.666 81.8122 127.788 82.0127C127.91 82.2132 128.067 82.3457 128.261 82.4102C128.454 82.4746 128.662 82.5068 128.884 82.5068C129.049 82.5068 129.22 82.4925 129.399 82.4639C129.586 82.4281 129.725 82.3994 129.818 82.3779L129.829 84C129.672 84.0501 129.464 84.0967 129.206 84.1396C128.955 84.1898 128.651 84.2148 128.293 84.2148C127.806 84.2148 127.358 84.1182 126.95 83.9248C126.542 83.7314 126.216 83.4092 125.973 82.958C125.736 82.4997 125.618 81.8838 125.618 81.1104V69.5518ZM140.088 68.3594V84H138.015V68.3594H140.088ZM145.545 74.8584V84H143.558V72.377H145.438L145.545 74.8584ZM145.072 77.748L144.245 77.7158C144.252 76.9209 144.37 76.1868 144.6 75.5137C144.829 74.8333 145.151 74.2425 145.566 73.7412C145.982 73.2399 146.476 72.8532 147.049 72.5811C147.629 72.3018 148.27 72.1621 148.972 72.1621C149.545 72.1621 150.06 72.2409 150.519 72.3984C150.977 72.5488 151.367 72.7923 151.689 73.1289C152.019 73.4655 152.27 73.9023 152.441 74.4395C152.613 74.9694 152.699 75.6175 152.699 76.3838V84H150.701V76.3623C150.701 75.7536 150.612 75.2666 150.433 74.9014C150.254 74.529 149.992 74.2604 149.648 74.0957C149.305 73.9238 148.882 73.8379 148.381 73.8379C147.887 73.8379 147.436 73.9417 147.027 74.1494C146.626 74.3571 146.279 74.6436 145.985 75.0088C145.699 75.374 145.473 75.793 145.309 76.2656C145.151 76.7311 145.072 77.2253 145.072 77.748ZM162.485 80.917C162.485 80.6305 162.421 80.3656 162.292 80.1221C162.17 79.8714 161.916 79.6458 161.529 79.4453C161.15 79.2376 160.577 79.0586 159.811 78.9082C159.166 78.7721 158.582 78.611 158.06 78.4248C157.544 78.2386 157.104 78.013 156.738 77.748C156.38 77.4831 156.104 77.1715 155.911 76.8135C155.718 76.4554 155.621 76.0365 155.621 75.5566C155.621 75.0983 155.721 74.665 155.922 74.2568C156.13 73.8486 156.42 73.487 156.792 73.1719C157.172 72.8568 157.626 72.6097 158.156 72.4307C158.686 72.2516 159.277 72.1621 159.929 72.1621C160.86 72.1621 161.655 72.3268 162.313 72.6562C162.972 72.9857 163.477 73.4261 163.828 73.9775C164.179 74.5218 164.354 75.127 164.354 75.793H162.367C162.367 75.4707 162.271 75.1592 162.077 74.8584C161.891 74.5505 161.615 74.2962 161.25 74.0957C160.892 73.8952 160.451 73.7949 159.929 73.7949C159.377 73.7949 158.93 73.8809 158.586 74.0527C158.249 74.2174 158.002 74.4287 157.845 74.6865C157.694 74.9443 157.619 75.2165 157.619 75.5029C157.619 75.7178 157.655 75.9111 157.727 76.083C157.805 76.2477 157.941 76.4017 158.135 76.5449C158.328 76.681 158.6 76.8099 158.951 76.9316C159.302 77.0534 159.75 77.1751 160.294 77.2969C161.246 77.5117 162.031 77.7695 162.646 78.0703C163.262 78.3711 163.721 78.7399 164.021 79.1768C164.322 79.6136 164.473 80.1436 164.473 80.7666C164.473 81.2751 164.365 81.7406 164.15 82.1631C163.943 82.5856 163.638 82.9508 163.237 83.2588C162.843 83.5596 162.371 83.7959 161.819 83.9678C161.275 84.1325 160.663 84.2148 159.982 84.2148C158.958 84.2148 158.092 84.0322 157.383 83.667C156.674 83.3018 156.137 82.8291 155.771 82.249C155.406 81.6689 155.224 81.0566 155.224 80.4121H157.222C157.25 80.9564 157.408 81.3896 157.694 81.7119C157.981 82.027 158.332 82.2526 158.747 82.3887C159.162 82.5176 159.574 82.582 159.982 82.582C160.527 82.582 160.981 82.5104 161.347 82.3672C161.719 82.224 162.002 82.027 162.195 81.7764C162.389 81.5257 162.485 81.2393 162.485 80.917ZM174.194 81.3145V72.377H176.192V84H174.291L174.194 81.3145ZM174.57 78.8652L175.397 78.8438C175.397 79.6172 175.315 80.3333 175.15 80.9922C174.993 81.6439 174.735 82.2096 174.377 82.6895C174.019 83.1693 173.55 83.5452 172.97 83.8174C172.39 84.0824 171.684 84.2148 170.854 84.2148C170.288 84.2148 169.769 84.1325 169.296 83.9678C168.83 83.8031 168.429 83.5488 168.093 83.2051C167.756 82.8613 167.495 82.4137 167.309 81.8623C167.13 81.3109 167.04 80.6484 167.04 79.875V72.377H169.027V79.8965C169.027 80.4193 169.085 80.8525 169.199 81.1963C169.321 81.5329 169.482 81.8014 169.683 82.002C169.89 82.1953 170.119 82.3314 170.37 82.4102C170.628 82.4889 170.893 82.5283 171.165 82.5283C172.01 82.5283 172.68 82.3672 173.174 82.0449C173.668 81.7155 174.022 81.2751 174.237 80.7236C174.459 80.165 174.57 79.5456 174.57 78.8652ZM181.209 74.2031V84H179.222V72.377H181.155L181.209 74.2031ZM184.84 72.3125L184.829 74.1602C184.664 74.1243 184.507 74.1029 184.356 74.0957C184.213 74.0814 184.049 74.0742 183.862 74.0742C183.404 74.0742 182.999 74.1458 182.648 74.2891C182.298 74.4323 182 74.6328 181.757 74.8906C181.513 75.1484 181.32 75.4564 181.177 75.8145C181.041 76.1654 180.951 76.5521 180.908 76.9746L180.35 77.2969C180.35 76.5951 180.418 75.9362 180.554 75.3203C180.697 74.7044 180.915 74.1602 181.209 73.6875C181.503 73.2077 181.875 72.8353 182.326 72.5703C182.785 72.2982 183.329 72.1621 183.959 72.1621C184.102 72.1621 184.267 72.18 184.453 72.2158C184.639 72.2445 184.768 72.2767 184.84 72.3125ZM193.101 82.0127V76.0293C193.101 75.571 193.007 75.1735 192.821 74.8369C192.642 74.4932 192.37 74.2282 192.005 74.042C191.64 73.8558 191.188 73.7627 190.651 73.7627C190.15 73.7627 189.71 73.8486 189.33 74.0205C188.958 74.1924 188.664 74.418 188.449 74.6973C188.242 74.9766 188.138 75.2773 188.138 75.5996H186.15C186.15 75.1842 186.258 74.7725 186.473 74.3643C186.688 73.9561 186.995 73.5872 187.396 73.2578C187.805 72.9212 188.292 72.6562 188.857 72.4629C189.43 72.2624 190.068 72.1621 190.77 72.1621C191.615 72.1621 192.359 72.3053 193.004 72.5918C193.656 72.8783 194.164 73.3115 194.529 73.8916C194.902 74.4645 195.088 75.1842 195.088 76.0508V81.4648C195.088 81.8516 195.12 82.2633 195.185 82.7002C195.256 83.137 195.36 83.513 195.496 83.8281V84H193.423C193.323 83.7708 193.244 83.4665 193.187 83.0869C193.129 82.7002 193.101 82.3421 193.101 82.0127ZM193.444 76.9531L193.466 78.3496H191.457C190.891 78.3496 190.386 78.3962 189.942 78.4893C189.498 78.5752 189.126 78.7077 188.825 78.8867C188.524 79.0658 188.295 79.2913 188.138 79.5635C187.98 79.8285 187.901 80.14 187.901 80.498C187.901 80.8633 187.984 81.1963 188.148 81.4971C188.313 81.7979 188.56 82.0378 188.89 82.2168C189.226 82.3887 189.638 82.4746 190.125 82.4746C190.734 82.4746 191.271 82.3457 191.736 82.0879C192.202 81.8301 192.571 81.515 192.843 81.1426C193.122 80.7702 193.272 80.4085 193.294 80.0576L194.143 81.0137C194.092 81.3145 193.956 81.6475 193.734 82.0127C193.512 82.3779 193.215 82.7288 192.843 83.0654C192.478 83.3949 192.041 83.6706 191.532 83.8926C191.031 84.1074 190.465 84.2148 189.835 84.2148C189.047 84.2148 188.356 84.0609 187.762 83.7529C187.174 83.445 186.716 83.0332 186.387 82.5176C186.064 81.9948 185.903 81.4111 185.903 80.7666C185.903 80.1436 186.025 79.5957 186.269 79.123C186.512 78.6432 186.863 78.2458 187.321 77.9307C187.78 77.6084 188.331 77.3649 188.976 77.2002C189.62 77.0355 190.34 76.9531 191.135 76.9531H193.444ZM200.201 74.8584V84H198.214V72.377H200.094L200.201 74.8584ZM199.729 77.748L198.901 77.7158C198.909 76.9209 199.027 76.1868 199.256 75.5137C199.485 74.8333 199.807 74.2425 200.223 73.7412C200.638 73.2399 201.132 72.8532 201.705 72.5811C202.285 72.3018 202.926 72.1621 203.628 72.1621C204.201 72.1621 204.716 72.2409 205.175 72.3984C205.633 72.5488 206.023 72.7923 206.346 73.1289C206.675 73.4655 206.926 73.9023 207.098 74.4395C207.27 74.9694 207.355 75.6175 207.355 76.3838V84H205.357V76.3623C205.357 75.7536 205.268 75.2666 205.089 74.9014C204.91 74.529 204.648 74.2604 204.305 74.0957C203.961 73.9238 203.538 73.8379 203.037 73.8379C202.543 73.8379 202.092 73.9417 201.684 74.1494C201.283 74.3571 200.935 74.6436 200.642 75.0088C200.355 75.374 200.13 75.793 199.965 76.2656C199.807 76.7311 199.729 77.2253 199.729 77.748ZM215.025 82.582C215.498 82.582 215.935 82.4854 216.336 82.292C216.737 82.0986 217.066 81.8337 217.324 81.4971C217.582 81.1533 217.729 80.763 217.765 80.3262H219.655C219.619 81.0137 219.387 81.6546 218.957 82.249C218.535 82.8363 217.979 83.3125 217.292 83.6777C216.604 84.0358 215.849 84.2148 215.025 84.2148C214.152 84.2148 213.389 84.0609 212.737 83.7529C212.093 83.445 211.556 83.0225 211.126 82.4854C210.703 81.9482 210.385 81.3324 210.17 80.6377C209.962 79.9359 209.858 79.1947 209.858 78.4141V77.9629C209.858 77.1823 209.962 76.4447 210.17 75.75C210.385 75.0482 210.703 74.4287 211.126 73.8916C211.556 73.3545 212.093 72.932 212.737 72.624C213.389 72.3161 214.152 72.1621 215.025 72.1621C215.935 72.1621 216.73 72.3483 217.41 72.7207C218.09 73.0859 218.624 73.5872 219.011 74.2246C219.405 74.8548 219.619 75.571 219.655 76.373H217.765C217.729 75.8932 217.593 75.46 217.356 75.0732C217.127 74.6865 216.812 74.3786 216.411 74.1494C216.017 73.9131 215.555 73.7949 215.025 73.7949C214.417 73.7949 213.905 73.9167 213.489 74.1602C213.081 74.3965 212.755 74.7188 212.512 75.127C212.275 75.528 212.104 75.9756 211.996 76.4697C211.896 76.9567 211.846 77.4544 211.846 77.9629V78.4141C211.846 78.9225 211.896 79.4238 211.996 79.918C212.096 80.4121 212.265 80.8597 212.501 81.2607C212.744 81.6618 213.07 81.984 213.479 82.2275C213.894 82.4639 214.41 82.582 215.025 82.582ZM226.713 84.2148C225.904 84.2148 225.17 84.0788 224.511 83.8066C223.859 83.5273 223.297 83.137 222.824 82.6357C222.359 82.1344 222.001 81.54 221.75 80.8525C221.499 80.165 221.374 79.4131 221.374 78.5967V78.1455C221.374 77.2002 221.514 76.3587 221.793 75.6211C222.072 74.8763 222.452 74.2461 222.932 73.7305C223.411 73.2148 223.956 72.8245 224.564 72.5596C225.173 72.2946 225.803 72.1621 226.455 72.1621C227.286 72.1621 228.002 72.3053 228.604 72.5918C229.212 72.8783 229.71 73.2793 230.097 73.7949C230.483 74.3034 230.77 74.9049 230.956 75.5996C231.142 76.2871 231.235 77.0391 231.235 77.8555V78.7471H222.556V77.125H229.248V76.9746C229.219 76.459 229.112 75.9577 228.926 75.4707C228.747 74.9837 228.46 74.5827 228.066 74.2676C227.673 73.9525 227.135 73.7949 226.455 73.7949C226.004 73.7949 225.589 73.8916 225.209 74.085C224.829 74.2712 224.504 74.5505 224.231 74.9229C223.959 75.2952 223.748 75.75 223.598 76.2871C223.447 76.8242 223.372 77.4437 223.372 78.1455V78.5967C223.372 79.1481 223.447 79.6673 223.598 80.1543C223.755 80.6341 223.981 81.0566 224.274 81.4219C224.575 81.7871 224.937 82.0736 225.359 82.2812C225.789 82.4889 226.276 82.5928 226.82 82.5928C227.522 82.5928 228.117 82.4495 228.604 82.1631C229.09 81.8766 229.517 81.4935 229.882 81.0137L231.085 81.9697C230.834 82.3493 230.516 82.7109 230.129 83.0547C229.742 83.3984 229.266 83.6777 228.7 83.8926C228.142 84.1074 227.479 84.2148 226.713 84.2148Z" fill="black"/>
<path d="M60.1276 60.7818C56.8739 53.6791 51.6369 48.8527 45.3806 47.1921C39.1243 45.5315 32.1509 47.1165 25.7443 51.6555C19.9856 55.7352 15.6082 61.6408 14.034 67.4535C13.2693 70.277 13.5517 72.6576 14.873 74.5286C16.1755 76.375 18.2715 77.439 20.7514 78.0969C23.3898 78.7972 26.4649 79.0384 29.4843 79.2751C32.1243 79.4823 34.618 79.678 36.4492 80.164C38.0297 80.5835 40.1465 81.5877 42.3869 82.6509C47.6232 85.136 53.5583 87.9519 57.979 85.9146C60.0804 84.9471 61.5286 83.0434 62.2825 80.26C63.8585 74.4479 63.0524 67.166 60.1276 60.7818Z" fill="#A660E4"/>
<path d="M69.1304 29.3971C68.0684 26.3301 65.9437 24.1686 63.3006 23.4671C60.6575 22.7655 57.7255 23.5848 55.2561 25.7144C52.9875 27.6707 51.2453 30.5686 50.3503 33.8735C49.4552 37.1783 49.4989 40.5518 50.475 43.3678C51.537 46.4348 53.6618 48.5962 56.3049 49.2978C58.948 49.9994 61.88 49.1801 64.3494 47.0505C66.6176 45.0956 68.3609 42.1976 69.2563 38.8917C70.1516 35.5857 70.1062 32.2145 69.1304 29.3971Z" fill="#A660E4"/>
<path d="M47.6168 23.6602C46.5549 20.5929 44.4305 18.4299 41.7874 17.7284C39.1443 17.0268 36.2118 17.8479 33.7416 19.9774C31.4731 21.9337 29.7309 24.8316 28.8359 28.1364C27.9408 31.4413 27.9849 34.8133 28.9606 37.6307C30.0226 40.6977 32.1474 42.8592 34.7905 43.5607C37.4336 44.2623 40.3656 43.443 42.835 41.3134C45.1036 39.3571 46.8456 36.4596 47.7408 33.1543C48.6359 29.8491 48.5925 26.4777 47.6168 23.6602Z" fill="#A660E4"/>
<path d="M81.4804 54.3981C81.423 51.792 80.3728 49.6306 78.5232 48.3123C77.7532 47.7802 76.883 47.4084 75.9645 47.2192C75.0459 47.03 74.0978 47.0272 73.1766 47.211C70.4768 47.6943 67.8915 49.4857 66.0846 52.1262C64.6402 54.1791 63.8682 56.6255 63.8748 59.1282C63.9322 61.7343 64.9824 63.8957 66.8324 65.2141C67.4728 65.6697 68.191 66.006 68.9523 66.2067C70.0058 66.4788 71.1074 66.5163 72.179 66.3166C74.8788 65.8333 77.4641 64.0419 79.271 61.4018C80.7155 59.3483 81.4875 56.9014 81.4804 54.3981Z" fill="#A660E4"/>
<path d="M24.9409 41.1366C24.7104 37.9553 23.3774 35.1244 21.284 33.3689C20.5792 32.7537 19.7569 32.2866 18.8659 31.9955C17.975 31.7045 17.0336 31.5954 16.098 31.6748C13.8299 31.9002 11.8282 33.2516 10.4615 35.4797C9.19095 37.6435 8.62313 40.144 8.83623 42.6369V42.6369C9.06675 45.8181 10.3997 48.649 12.4931 50.4045C13.3201 51.1081 14.2929 51.6212 15.3426 51.9073C16.1033 52.1105 16.895 52.175 17.6798 52.0977C19.9483 51.8723 21.9496 50.5209 23.3163 48.2927C24.5862 46.1291 25.1537 43.629 24.9409 41.1366V41.1366Z" fill="#A660E4"/>
</g>
<defs>
<clipPath id="clip0_322_25">
<rect width="308" height="89" fill="white"/>
</clipPath>
</defs>
</svg>
