<svg version="1.1" id="Logo2" xmlns="http://www.w3.org/2000/svg" xmlns:xlink="http://www.w3.org/1999/xlink" x="0px" y="0px" height="46px" width="190px" viewBox="154.1199951171875 394.3399963378906 971.889892578125 235.12002563476562" xml:space="preserve">
    <style type="text/css">

        .st0 {
            fill: #E5173F;
        }

        .st1 {
            fill: #58595B;
        }
    </style>
    <path class="st0" d="M422.98,501.22l-91.28-80.15h-0.01c-18.84-16.64-43.59-26.73-70.69-26.73c-59.03,0-106.88,47.85-106.88,106.88
	c0,59.02,47.85,106.87,106.88,106.87c27.1,0,51.85-10.08,70.69-26.72h0.01L422.98,501.22z M186.57,501.22
	c0-41.1,33.32-74.43,74.43-74.43c41.1,0,74.43,33.33,74.43,74.43c0,41.1-33.32,74.43-74.43,74.43
	C219.89,575.65,186.57,542.32,186.57,501.22" />
    <path class="st1" d="M458.6,522.83c0-16.65,14.15-28.45,54.88-34.21v-3.73c0-10.27-5.44-15.23-15.55-15.23
	c-12.44,0-21.61,5.43-29.7,12.43l-8.08-7.27c10.03-9.52,22.85-16.36,39.18-16.36c19.6,0,27.36,10.26,27.36,27.35v36.24
	c0,9.94,0.62,16,2.33,20.19h-13.68c-1.09-3.42-1.86-6.68-1.86-11.33c-9.17,8.54-19.44,12.59-31.72,12.59
	C467.63,543.5,458.6,536.03,458.6,522.83 M513.49,520.95v-23c-31.25,4.98-41.66,12.6-41.66,22.85c0,7.94,5.29,12.13,13.84,12.13
	C496.54,532.93,505.87,528.41,513.49,520.95" />
    <path class="st1" d="M544.89,501.21c0-30,19.27-42.75,37.61-42.75c18.5,0,27.21,10.88,32.18,23.01l-11.34,4.65
	c-4.04-10.55-10.42-16.31-21.15-16.31c-11.81,0-23.78,8.25-23.78,31.4c0,20.21,9.65,31.56,23.47,31.56
	c10.43,0,16.8-4.51,22.08-16.47l11.04,4.35c-6.38,13.68-15.86,23.31-33.58,23.31C562.46,543.96,544.89,529.36,544.89,501.21" />
    <path class="st1" d="M626.8,501.21c0-30,19.28-42.75,37.63-42.75c18.5,0,27.21,10.88,32.18,23.01l-11.35,4.65
	c-4.04-10.55-10.42-16.31-21.14-16.31c-11.81,0-23.77,8.25-23.77,31.4c0,20.21,9.63,31.56,23.46,31.56
	c10.42,0,16.79-4.51,22.07-16.47l11.05,4.35c-6.38,13.68-15.86,23.31-33.58,23.31C644.38,543.96,626.8,529.36,626.8,501.21" />
    <path class="st1" d="M708.74,501.21c0-29.85,19.9-42.75,37.15-42.75c19.43,0,34.21,13.67,34.21,43.38v2.79H722.1
	c0.46,18.5,11.19,28.45,24.72,28.45c11.81,0,18.5-4.83,24.72-13.37l7.77,6.84c-7.62,10.87-18.04,17.41-33.43,17.41
	C726.45,543.96,708.74,529.81,708.74,501.21 M767.34,494.21c-1.09-14.61-8.09-24.55-21.61-24.55c-11.04,0-21.46,7.6-23.33,24.55
	H767.34z" />
    <path class="st1" d="M791.74,529.81l8.08-8.08c6.23,6.68,14.47,11.35,25.65,11.35c12.75,0,19.75-4.51,19.75-12.91
	c0-8.24-7.15-11.34-21.15-14.61c-17.41-4.19-29.38-8.85-29.38-24.72c0-12.43,10.88-22.38,28.76-22.38c14.46,0,23.79,4.67,31.4,11.81
	l-6.99,8.86c-6.21-5.75-14.61-9.79-23.79-9.79c-11.97,0-16.63,5.28-16.63,11.03c0,7.63,6.53,10.42,19.43,13.38
	c18.5,4.51,31.25,9.02,31.25,25.96c0,15.7-14.15,24.09-32.8,24.09C810.56,543.8,798.42,537.9,791.74,529.81" />
    <path class="st1" d="M869.78,529.81l8.08-8.08c6.22,6.68,14.45,11.35,25.66,11.35c12.74,0,19.74-4.51,19.74-12.91
	c0-8.24-7.15-11.34-21.14-14.61c-17.42-4.19-29.39-8.85-29.39-24.72c0-12.43,10.89-22.38,28.77-22.38
	c14.45,0,23.79,4.67,31.41,11.81l-7.01,8.86c-6.21-5.75-14.62-9.79-23.78-9.79c-11.97,0-16.64,5.28-16.64,11.03
	c0,7.63,6.53,10.42,19.43,13.38c18.52,4.51,31.26,9.02,31.26,25.96c0,15.7-14.15,24.09-32.8,24.09
	C888.59,543.8,876.47,537.9,869.78,529.81" />
    <g>
    <path class="st0" d="M484.28,592.32h-10.5v36.39h-6.25v-36.39h-7.38v-2.82l7.38-2.26v-2.3c0-10.14,4.43-15.2,13.28-15.2
		c2.18,0,4.74,0.44,7.68,1.32l-1.62,5c-2.41-0.78-4.47-1.17-6.17-1.17c-2.36,0-4.1,0.79-5.23,2.35c-1.13,1.57-1.69,4.08-1.69,7.55
		v2.67h10.5V592.32z" />

    <path class="st0" d="M484.28,592.32h-10.5v36.39h-6.25v-36.39h-7.38v-2.82l7.38-2.26v-2.3c0-10.14,4.43-15.2,13.28-15.2
		c2.18,0,4.74,0.44,7.68,1.32l-1.62,5c-2.41-0.78-4.47-1.17-6.17-1.17c-2.36,0-4.1,0.79-5.23,2.35c-1.13,1.57-1.69,4.08-1.69,7.54
		v2.67h10.5V592.32z" />

    <path class="st0" d="M510.66,586.71c1.83,0,3.47,0.15,4.93,0.45l-0.86,5.8c-1.71-0.38-3.21-0.57-4.52-0.57
		c-3.34,0-6.19,1.35-8.56,4.06c-2.37,2.71-3.56,6.08-3.56,10.12v22.13h-6.25v-41.24H497l0.71,7.64h0.3
		c1.53-2.68,3.37-4.75,5.53-6.21C505.71,587.44,508.08,586.71,510.66,586.71z" />

    <path class="st0" d="M537.26,629.46c-6.1,0-10.91-1.86-14.43-5.57c-3.52-3.71-5.29-8.87-5.29-15.46c0-6.65,1.64-11.93,4.91-15.84
		c3.27-3.91,7.67-5.87,13.19-5.87c5.17,0,9.26,1.7,12.27,5.1c3.01,3.4,4.52,7.88,4.52,13.45v3.95h-28.41
		c0.13,4.84,1.35,8.52,3.67,11.02c2.32,2.51,5.59,3.76,9.8,3.76c4.44,0,8.83-0.93,13.17-2.78v5.57c-2.21,0.95-4.3,1.64-6.27,2.05
		C542.42,629.25,540.04,629.46,537.26,629.46z M535.57,591.94c-3.31,0-5.95,1.08-7.92,3.24c-1.97,2.16-3.13,5.14-3.48,8.96h21.56
		c0-3.94-0.88-6.96-2.63-9.05C541.34,592.99,538.83,591.94,535.57,591.94z" />

    <path class="st0" d="M577.03,629.46c-6.1,0-10.91-1.86-14.43-5.57c-3.52-3.71-5.29-8.87-5.29-15.46c0-6.65,1.64-11.93,4.91-15.84
		c3.27-3.91,7.67-5.87,13.19-5.87c5.17,0,9.26,1.7,12.27,5.1c3.01,3.4,4.52,7.88,4.52,13.45v3.95h-28.41
		c0.13,4.84,1.35,8.52,3.67,11.02c2.32,2.51,5.59,3.76,9.8,3.76c4.44,0,8.83-0.93,13.17-2.78v5.57c-2.21,0.95-4.3,1.64-6.26,2.05
		C582.19,629.25,579.81,629.46,577.03,629.46z M575.33,591.94c-3.31,0-5.95,1.08-7.92,3.24c-1.97,2.16-3.13,5.14-3.48,8.96h21.56
		c0-3.94-0.88-6.96-2.64-9.05S578.6,591.94,575.33,591.94z" />

    <path class="st0" d="M627.44,623.17h-0.34c-2.89,4.19-7.2,6.28-12.94,6.28c-5.4,0-9.59-1.84-12.59-5.53s-4.5-8.93-4.5-15.73
		c0-6.8,1.51-12.08,4.52-15.84c3.01-3.76,7.2-5.64,12.57-5.64c5.59,0,9.88,2.03,12.87,6.1h0.49l-0.26-2.97l-0.15-2.9v-16.78h6.25
		v58.55h-5.08L627.44,623.17z M614.95,624.23c4.27,0,7.36-1.16,9.28-3.48c1.92-2.32,2.88-6.07,2.88-11.23v-1.32
		c0-5.84-0.97-10.02-2.92-12.51c-1.94-2.5-5.05-3.74-9.31-3.74c-3.66,0-6.47,1.42-8.41,4.27c-1.94,2.85-2.92,6.87-2.92,12.06
		c0,5.27,0.97,9.25,2.9,11.93C608.38,622.88,611.21,624.23,614.95,624.23z" />

    <path class="st0" d="M678.73,608.05c0,6.72-1.69,11.97-5.08,15.75c-3.39,3.77-8.07,5.66-14.04,5.66c-3.69,0-6.96-0.87-9.82-2.6
		c-2.86-1.73-5.07-4.21-6.62-7.45c-1.55-3.23-2.33-7.02-2.33-11.36c0-6.72,1.68-11.96,5.04-15.71c3.36-3.75,8.03-5.62,14-5.62
		c5.77,0,10.35,1.92,13.75,5.76C677.03,596.31,678.73,601.5,678.73,608.05z M647.31,608.05c0,5.27,1.05,9.28,3.16,12.04
		c2.11,2.76,5.21,4.14,9.3,4.14s7.19-1.37,9.31-4.12c2.12-2.75,3.18-6.77,3.18-12.06c0-5.24-1.06-9.22-3.18-11.95
		c-2.12-2.72-5.25-4.08-9.39-4.08c-4.09,0-7.17,1.34-9.26,4.03C648.35,598.73,647.31,602.73,647.31,608.05z" />

    <path class="st0" d="M738.78,628.7v-26.83c0-3.29-0.7-5.75-2.11-7.4c-1.41-1.64-3.59-2.46-6.55-2.46c-3.89,0-6.76,1.12-8.62,3.35
		c-1.86,2.23-2.78,5.67-2.78,10.31v23.03h-6.25v-26.83c0-3.29-0.7-5.75-2.11-7.4c-1.41-1.64-3.6-2.46-6.58-2.46
		c-3.91,0-6.78,1.17-8.6,3.52c-1.82,2.35-2.73,6.19-2.73,11.53v21.64h-6.25v-41.24h5.08l1.02,5.64h0.3c1.18-2.01,2.84-3.57,4.99-4.7
		c2.14-1.13,4.55-1.69,7.21-1.69c6.45,0,10.66,2.33,12.64,7h0.3c1.23-2.16,3.01-3.86,5.34-5.12c2.33-1.25,4.99-1.88,7.98-1.88
		c4.66,0,8.16,1.2,10.48,3.59c2.32,2.4,3.48,6.23,3.48,11.5v26.9H738.78z" />

    <path class="st0" d="M784.76,624.3c1.1,0,2.17-0.08,3.2-0.25c1.03-0.16,1.84-0.33,2.45-0.51v4.78c-0.68,0.33-1.67,0.6-2.99,0.81
		c-1.32,0.21-2.5,0.32-3.56,0.32c-7.98,0-11.97-4.2-11.97-12.61v-24.54h-5.91v-3.01l5.91-2.6l2.63-8.81h3.61v9.56h11.97v4.85h-11.97
		v24.27c0,2.48,0.59,4.39,1.77,5.72C781.08,623.64,782.7,624.3,784.76,624.3z" />

    <path class="st0" d="M830.77,608.05c0,6.72-1.69,11.97-5.08,15.75c-3.39,3.77-8.07,5.66-14.04,5.66c-3.69,0-6.96-0.87-9.82-2.6
		c-2.86-1.73-5.07-4.21-6.62-7.45c-1.55-3.23-2.33-7.02-2.33-11.36c0-6.72,1.68-11.96,5.04-15.71c3.36-3.75,8.03-5.62,14-5.62
		c5.77,0,10.35,1.92,13.75,5.76C829.07,596.31,830.77,601.5,830.77,608.05z M799.35,608.05c0,5.27,1.05,9.28,3.16,12.04
		c2.11,2.76,5.21,4.14,9.3,4.14s7.19-1.37,9.31-4.12c2.12-2.75,3.18-6.77,3.18-12.06c0-5.24-1.06-9.22-3.18-11.95
		c-2.12-2.72-5.25-4.08-9.39-4.08c-4.09,0-7.17,1.34-9.26,4.03C800.39,598.73,799.35,602.73,799.35,608.05z" />

    <path class="st0" d="M882.09,623.17h-0.34c-2.89,4.19-7.2,6.28-12.94,6.28c-5.4,0-9.59-1.84-12.59-5.53s-4.5-8.93-4.5-15.73
		c0-6.8,1.51-12.08,4.52-15.84s7.2-5.64,12.57-5.64c5.59,0,9.88,2.03,12.87,6.1h0.49l-0.26-2.97l-0.15-2.9v-16.78H888v58.55h-5.08
		L882.09,623.17z M869.6,624.23c4.27,0,7.36-1.16,9.28-3.48c1.92-2.32,2.88-6.07,2.88-11.23v-1.32c0-5.84-0.97-10.02-2.92-12.51
		c-1.94-2.5-5.05-3.74-9.31-3.74c-3.66,0-6.47,1.42-8.41,4.27c-1.94,2.85-2.92,6.87-2.92,12.06c0,5.27,0.97,9.25,2.9,11.93
		C863.03,622.88,865.86,624.23,869.6,624.23z" />

    <path class="st0" d="M933.38,608.05c0,6.72-1.69,11.97-5.08,15.75c-3.39,3.77-8.07,5.66-14.04,5.66c-3.69,0-6.96-0.87-9.82-2.6
		c-2.86-1.73-5.07-4.21-6.62-7.45c-1.55-3.23-2.33-7.02-2.33-11.36c0-6.72,1.68-11.96,5.04-15.71c3.36-3.75,8.03-5.62,14-5.62
		c5.77,0,10.35,1.92,13.75,5.76C931.68,596.31,933.38,601.5,933.38,608.05z M901.96,608.05c0,5.27,1.05,9.28,3.16,12.04
		c2.11,2.76,5.21,4.14,9.3,4.14s7.19-1.37,9.31-4.12c2.12-2.75,3.18-6.77,3.18-12.06c0-5.24-1.06-9.22-3.18-11.95
		c-2.12-2.72-5.25-4.08-9.39-4.08c-4.09,0-7.17,1.34-9.26,4.03C903,598.73,901.96,602.73,901.96,608.05z" />

    <path class="st0" d="M1006.69,628.7v-26.83c0-3.29-0.7-5.75-2.11-7.4c-1.41-1.64-3.59-2.46-6.55-2.46c-3.89,0-6.76,1.12-8.62,3.35
		c-1.86,2.23-2.78,5.67-2.78,10.31v23.03h-6.25v-26.83c0-3.29-0.7-5.75-2.11-7.4c-1.41-1.64-3.6-2.46-6.58-2.46
		c-3.91,0-6.78,1.17-8.6,3.52c-1.82,2.35-2.73,6.19-2.73,11.53v21.64h-6.25v-41.24h5.08l1.02,5.64h0.3c1.18-2.01,2.84-3.57,4.99-4.7
		c2.14-1.13,4.55-1.69,7.21-1.69c6.45,0,10.66,2.33,12.64,7h0.3c1.23-2.16,3.01-3.86,5.34-5.12c2.33-1.25,4.99-1.88,7.98-1.88
		c4.66,0,8.16,1.2,10.48,3.59c2.32,2.4,3.48,6.23,3.48,11.5v26.9H1006.69z" />

    <path class="st0" d="M1057.94,608.05c0,6.72-1.69,11.97-5.08,15.75c-3.39,3.77-8.07,5.66-14.04,5.66c-3.69,0-6.96-0.87-9.82-2.6
		c-2.86-1.73-5.07-4.21-6.62-7.45c-1.55-3.23-2.33-7.02-2.33-11.36c0-6.72,1.68-11.96,5.04-15.71c3.36-3.75,8.03-5.62,14-5.62
		c5.77,0,10.35,1.92,13.75,5.76C1056.24,596.31,1057.94,601.5,1057.94,608.05z M1026.52,608.05c0,5.27,1.05,9.28,3.16,12.04
		c2.11,2.76,5.21,4.14,9.3,4.14c4.09,0,7.19-1.37,9.31-4.12c2.12-2.75,3.18-6.77,3.18-12.06c0-5.24-1.06-9.22-3.18-11.95
		c-2.12-2.72-5.25-4.08-9.39-4.08c-4.09,0-7.17,1.34-9.26,4.03C1027.56,598.73,1026.52,602.73,1026.52,608.05z" />

    <path class="st0" d="M1084.24,586.71c1.83,0,3.47,0.15,4.93,0.45l-0.87,5.8c-1.71-0.38-3.21-0.57-4.52-0.57
		c-3.34,0-6.19,1.35-8.56,4.06c-2.37,2.71-3.56,6.08-3.56,10.12v22.13h-6.25v-41.24h5.16l0.71,7.64h0.3
		c1.53-2.68,3.37-4.75,5.53-6.21C1079.28,587.44,1081.65,586.71,1084.24,586.71z" />

    <path class="st0" d="M1110.84,629.46c-6.1,0-10.91-1.86-14.43-5.57c-3.52-3.71-5.29-8.87-5.29-15.46c0-6.65,1.64-11.93,4.91-15.84
		c3.27-3.91,7.67-5.87,13.19-5.87c5.17,0,9.26,1.7,12.27,5.1c3.01,3.4,4.52,7.88,4.52,13.45v3.95h-28.41
		c0.13,4.84,1.35,8.52,3.67,11.02c2.32,2.51,5.59,3.76,9.8,3.76c4.44,0,8.83-0.93,13.17-2.78v5.57c-2.21,0.95-4.3,1.64-6.26,2.05
		C1116,629.25,1113.62,629.46,1110.84,629.46z M1109.14,591.94c-3.31,0-5.95,1.08-7.92,3.24c-1.97,2.16-3.13,5.14-3.48,8.96h21.56
		c0-3.94-0.88-6.96-2.63-9.05S1112.4,591.94,1109.14,591.94z" />

</g>
</svg>