<svg width="151" height="60" viewBox="0 0 151 60" fill="none" xmlns="http://www.w3.org/2000/svg">
<path d="M55.703 3.00907L43.067 35.2631L30.362 0.768066L16.897 35.1861L5.41203 3.00907H0.186035L16.692 48.1981L30.235 13.7791L42.927 48.2351L60.928 3.00907H55.703Z" fill="white"/>
<path d="M81.1249 25.968C79.0169 24.245 67.9769 18.51 66.5569 17.518C65.1419 16.529 64.4309 15.089 64.4309 13.199C64.4309 11.306 65.1519 9.769 66.5909 8.589C68.0299 7.401 69.7809 6.815 71.8439 6.815C73.1739 6.815 74.3099 7.071 75.2589 7.59C76.2039 8.107 77.1069 8.947 77.9639 10.107L78.4179 10.811C78.5439 10.902 78.7199 11.117 78.9349 11.455L82.7379 9.008C81.4909 6.815 79.9349 5.15 78.0619 4.009C76.1949 2.871 74.1839 2.302 72.0389 2.302C68.3849 2.302 65.3949 3.331 63.0739 5.395C60.7559 7.458 59.5969 10.106 59.5969 13.331C59.5969 16.379 60.6449 18.734 62.7509 20.386C64.8599 22.04 75.3649 27.493 76.9969 28.611C78.6309 29.726 79.4439 31.38 79.4439 33.574C79.4439 36.067 78.6229 38.137 76.9649 39.789C75.3089 41.448 73.2119 42.272 70.6819 42.272C68.4479 42.272 66.6009 41.585 65.1409 40.208C63.6789 38.831 62.6449 36.862 62.0439 34.282L57.4019 35.703C57.8059 37.443 58.3979 38.994 59.1619 40.345C59.9479 41.723 60.9189 42.893 62.0779 43.853C64.3759 45.769 67.2879 46.726 70.8139 46.726C74.5519 46.726 77.7289 45.443 80.3529 42.888C82.9709 40.331 84.2829 37.205 84.2829 33.506C84.2839 30.199 83.2319 27.683 81.1249 25.968Z" fill="white"/>
<path d="M135.251 23.01C136.334 22.702 137.485 22.547 138.714 22.547C141.989 22.547 144.641 23.607 146.662 25.724C148.69 27.834 149.708 30.326 149.708 33.198C149.708 35.217 149.222 37.108 148.25 38.876C147.285 40.642 145.403 43.042 142.607 46.055L133.746 55.618H150.187V59.058H126L139.609 44.362C142.366 41.401 144.163 39.211 144.997 37.783C145.831 36.359 146.245 34.852 146.245 33.275C146.245 31.272 145.5 29.546 144.001 28.104C142.51 26.663 140.68 25.938 138.515 25.938C137.277 25.938 136.154 26.163 135.14 26.611C135.229 25.747 135.261 23.332 135.251 23.01Z" fill="white"/>
<path d="M109.241 0.186035C95.7749 0.186035 84.8579 11.073 84.8579 24.502C84.8579 37.931 95.7749 48.818 109.241 48.818C122.707 48.818 133.624 37.931 133.624 24.502C133.624 11.073 122.707 0.186035 109.241 0.186035ZM109.241 44.299C98.4229 44.299 89.6539 35.436 89.6539 24.502C89.6539 13.568 98.4239 4.70503 109.241 4.70503C120.059 4.70503 128.828 13.568 128.828 24.502C128.828 35.436 120.059 44.299 109.241 44.299Z" fill="white"/>
<path d="M128.764 22.959L121.666 22.976L118.127 29.344L109.297 7.81799L101.353 25.501L89.6777 25.476C89.7247 26.45 89.8427 27.405 90.0237 28.337L103.201 28.365L109.177 15.064L117.738 35.933L123.351 25.833L128.781 25.82C128.809 25.384 128.829 24.945 128.829 24.502C128.828 23.982 128.803 23.469 128.764 22.959Z" fill="white"/>
</svg>
