<svg width="210" height="44" viewBox="0 0 210 44" fill="none" xmlns="http://www.w3.org/2000/svg">
<path d="M0.94 12.076H3.46V31.9H0.94V34H8.92V31.9H6.4V14.974C9.004 12.902 11.734 11.866 14.59 11.866C16.186 11.866 17.32 12.258 17.992 13.042C18.692 13.826 19.042 15.1 19.042 16.864V31.9H16.522V34H24.502V31.9H21.982V16.906C21.982 14.33 21.436 12.44 20.344 11.236C19.28 10.004 17.516 9.388 15.052 9.388C11.944 9.388 8.976 10.48 6.148 12.664L5.434 9.976H0.94V12.076ZM40.0171 34.588C41.8091 34.588 43.3071 34.378 44.5111 33.958C45.7431 33.538 46.6671 32.936 47.2831 32.152C47.9271 31.34 48.3891 30.514 48.6691 29.674C48.9491 28.806 49.1451 27.77 49.2571 26.566L46.8211 26.44C46.6531 28.288 46.0931 29.702 45.1411 30.682C44.1891 31.634 42.4531 32.11 39.9331 32.11C37.1611 32.11 35.2991 31.396 34.3471 29.968C33.4231 28.512 32.9471 26.076 32.9191 22.66H49.6351V21.988C49.6351 20.504 49.5791 19.23 49.4671 18.166C49.3551 17.074 49.1031 15.94 48.7111 14.764C48.3191 13.588 47.7731 12.636 47.0731 11.908C46.4011 11.18 45.4491 10.578 44.2171 10.102C43.0131 9.626 41.5571 9.388 39.8491 9.388C38.1411 9.388 36.6711 9.626 35.4391 10.102C34.2071 10.578 33.2411 11.18 32.5411 11.908C31.8411 12.636 31.2951 13.588 30.9031 14.764C30.5111 15.94 30.2591 17.074 30.1471 18.166C30.0351 19.23 29.9791 20.504 29.9791 21.988C29.9791 26.384 30.6651 29.59 32.0371 31.606C33.4371 33.594 36.0971 34.588 40.0171 34.588ZM39.8071 11.866C41.2351 11.866 42.4111 12.076 43.3351 12.496C44.2871 12.916 44.9871 13.56 45.4351 14.428C45.8831 15.268 46.1911 16.136 46.3591 17.032C46.5271 17.928 46.6251 19.034 46.6531 20.35H32.9191C32.9471 19.09 33.0451 18.012 33.2131 17.116C33.4091 16.22 33.7311 15.352 34.1791 14.512C34.6551 13.644 35.3551 12.986 36.2791 12.538C37.2311 12.09 38.4071 11.866 39.8071 11.866ZM64.9086 32.11C63.5646 32.11 62.4166 31.914 61.4646 31.522C60.5406 31.102 59.8266 30.612 59.3226 30.052C58.8466 29.464 58.4686 28.68 58.1886 27.7C57.9086 26.692 57.7406 25.796 57.6846 25.012C57.6286 24.2 57.6006 23.192 57.6006 21.988C57.6006 20.784 57.6286 19.79 57.6846 19.006C57.7406 18.194 57.9086 17.298 58.1886 16.318C58.4686 15.31 58.8466 14.526 59.3226 13.966C59.8266 13.378 60.5406 12.888 61.4646 12.496C62.4166 12.076 63.5646 11.866 64.9086 11.866C66.2526 11.866 67.3866 12.076 68.3106 12.496C69.2626 12.888 69.9766 13.378 70.4526 13.966C70.9566 14.526 71.3486 15.31 71.6286 16.318C71.9086 17.298 72.0766 18.194 72.1326 19.006C72.1886 19.79 72.2166 20.784 72.2166 21.988C72.2166 23.192 72.1886 24.2 72.1326 25.012C72.0766 25.796 71.9086 26.692 71.6286 27.7C71.3486 28.68 70.9566 29.464 70.4526 30.052C69.9766 30.612 69.2626 31.102 68.3106 31.522C67.3866 31.914 66.2526 32.11 64.9086 32.11ZM64.9086 34.588C66.1966 34.588 67.3446 34.462 68.3526 34.21C69.3886 33.958 70.2566 33.636 70.9566 33.244C71.6846 32.824 72.3006 32.292 72.8046 31.648C73.3366 31.004 73.7426 30.346 74.0226 29.674C74.3306 29.002 74.5686 28.218 74.7366 27.322C74.9046 26.398 75.0166 25.544 75.0726 24.76C75.1286 23.948 75.1566 23.024 75.1566 21.988C75.1566 20.952 75.1286 20.042 75.0726 19.258C75.0166 18.446 74.9046 17.592 74.7366 16.696C74.5686 15.772 74.3306 14.974 74.0226 14.302C73.7426 13.63 73.3366 12.972 72.8046 12.328C72.3006 11.684 71.6846 11.166 70.9566 10.774C70.2566 10.354 69.3886 10.018 68.3526 9.766C67.3446 9.514 66.1966 9.388 64.9086 9.388C63.6206 9.388 62.4586 9.514 61.4226 9.766C60.4146 10.018 59.5466 10.354 58.8186 10.774C58.1186 11.166 57.5026 11.684 56.9706 12.328C56.4666 12.972 56.0606 13.63 55.7526 14.302C55.4726 14.974 55.2486 15.772 55.0806 16.696C54.9126 17.592 54.8006 18.446 54.7446 19.258C54.6886 20.042 54.6606 20.952 54.6606 21.988C54.6606 23.024 54.6886 23.948 54.7446 24.76C54.8006 25.544 54.9126 26.398 55.0806 27.322C55.2486 28.218 55.4726 29.002 55.7526 29.674C56.0606 30.346 56.4666 31.004 56.9706 31.648C57.5026 32.292 58.1186 32.824 58.8186 33.244C59.5466 33.636 60.4146 33.958 61.4226 34.21C62.4586 34.462 63.6206 34.588 64.9086 34.588Z" fill="#F7F7F7"/>
<path d="M96.8874 34H102.221V31.144H99.7014V2.836H92.9394V5.692H95.4594V10.564C93.3314 9.78 91.2734 9.388 89.2854 9.388C87.6614 9.388 86.2614 9.626 85.0854 10.102C83.9094 10.578 82.9854 11.18 82.3134 11.908C81.6694 12.636 81.1514 13.588 80.7594 14.764C80.3954 15.94 80.1574 17.074 80.0454 18.166C79.9334 19.23 79.8774 20.504 79.8774 21.988C79.8774 23.472 79.9334 24.76 80.0454 25.852C80.1574 26.916 80.3954 28.036 80.7594 29.212C81.1234 30.388 81.6274 31.34 82.2714 32.068C82.9434 32.796 83.8534 33.398 85.0014 33.874C86.1774 34.35 87.5634 34.588 89.1594 34.588C91.7354 34.588 94.1434 33.678 96.3834 31.858L96.8874 34ZM90.1674 31.228C89.1314 31.228 88.2354 31.074 87.4794 30.766C86.7514 30.458 86.1634 30.052 85.7154 29.548C85.2954 29.016 84.9594 28.344 84.7074 27.532C84.4834 26.692 84.3294 25.852 84.2454 25.012C84.1614 24.172 84.1194 23.164 84.1194 21.988C84.1194 20.784 84.1614 19.762 84.2454 18.922C84.3294 18.054 84.4974 17.214 84.7494 16.402C85.0014 15.562 85.3514 14.89 85.7994 14.386C86.2474 13.882 86.8354 13.49 87.5634 13.21C88.3194 12.902 89.2154 12.748 90.2514 12.748C92.0154 12.748 93.7514 13.084 95.4594 13.756V29.296C93.8354 30.584 92.0714 31.228 90.1674 31.228ZM106.999 12.832H109.519V31.144H106.999V34H116.281V31.144H113.761V9.976H106.999V12.832ZM111.661 6.616C112.249 6.616 112.725 6.546 113.089 6.406C113.453 6.238 113.705 5.986 113.845 5.65C113.985 5.314 114.069 5.02 114.097 4.768C114.153 4.488 114.181 4.138 114.181 3.718C114.181 3.27 114.153 2.906 114.097 2.626C114.069 2.346 113.985 2.052 113.845 1.744C113.705 1.408 113.453 1.17 113.089 1.03C112.725 0.861999 112.249 0.778 111.661 0.778C110.933 0.778 110.373 0.945999 109.981 1.282C109.589 1.59 109.351 1.926 109.267 2.29C109.211 2.626 109.183 3.102 109.183 3.718C109.183 4.306 109.211 4.782 109.267 5.146C109.351 5.482 109.589 5.818 109.981 6.154C110.373 6.462 110.933 6.616 111.661 6.616ZM131.146 26.608C133.106 26.608 134.716 26.384 135.976 25.936C137.264 25.488 138.202 24.816 138.79 23.92C139.378 23.024 139.756 22.142 139.924 21.274C140.12 20.378 140.218 19.286 140.218 17.998C140.218 15.422 139.784 13.518 138.916 12.286L141.604 9.556L139.21 7.12L136.144 10.186C134.8 9.654 133.134 9.388 131.146 9.388C129.55 9.388 128.178 9.556 127.03 9.892C125.91 10.2 125.028 10.606 124.384 11.11C123.768 11.614 123.278 12.272 122.914 13.084C122.55 13.868 122.312 14.638 122.2 15.394C122.116 16.122 122.074 16.99 122.074 17.998C122.074 21.134 122.732 23.332 124.048 24.592L122.368 26.272C121.22 27.42 120.646 28.68 120.646 30.052C120.646 31.872 121.444 33.076 123.04 33.664C121.332 34.84 120.478 36.338 120.478 38.158C120.478 39.11 120.646 39.922 120.982 40.594C121.318 41.294 121.752 41.84 122.284 42.232C122.844 42.624 123.572 42.918 124.468 43.114C125.392 43.338 126.302 43.478 127.198 43.534C128.122 43.618 129.242 43.66 130.558 43.66C131.958 43.66 133.078 43.632 133.918 43.576C134.758 43.548 135.738 43.408 136.858 43.156C138.006 42.904 138.888 42.554 139.504 42.106C140.148 41.658 140.694 40.986 141.142 40.09C141.618 39.194 141.856 38.116 141.856 36.856C141.856 34.98 141.282 33.538 140.134 32.53C138.986 31.494 137.362 30.976 135.262 30.976H125.896C124.664 30.976 124.048 30.486 124.048 29.506C124.048 28.806 124.356 28.148 124.972 27.532L126.526 25.978C127.758 26.398 129.298 26.608 131.146 26.608ZM131.146 23.626C129.074 23.626 127.716 23.178 127.072 22.282C126.456 21.358 126.148 19.93 126.148 17.998C126.148 16.066 126.456 14.652 127.072 13.756C127.716 12.832 129.074 12.37 131.146 12.37C133.218 12.37 134.562 12.832 135.178 13.756C135.822 14.652 136.144 16.066 136.144 17.998C136.144 19.93 135.822 21.358 135.178 22.282C134.562 23.178 133.218 23.626 131.146 23.626ZM130.726 40.594C128.486 40.594 126.834 40.398 125.77 40.006C124.706 39.642 124.174 38.816 124.174 37.528C124.174 36.1 124.706 34.924 125.77 34H134.002C134.73 34 135.332 34.042 135.808 34.126C136.312 34.238 136.774 34.518 137.194 34.966C137.642 35.442 137.866 36.086 137.866 36.898C137.866 37.598 137.754 38.172 137.53 38.62C137.334 39.068 137.068 39.418 136.732 39.67C136.396 39.95 135.892 40.16 135.22 40.3C134.576 40.44 133.932 40.524 133.288 40.552C132.672 40.58 131.818 40.594 130.726 40.594ZM145.758 12.832H148.278V31.144H145.758V34H155.04V31.144H152.52V9.976H145.758V12.832ZM150.42 6.616C151.008 6.616 151.484 6.546 151.848 6.406C152.212 6.238 152.464 5.986 152.604 5.65C152.744 5.314 152.828 5.02 152.856 4.768C152.912 4.488 152.94 4.138 152.94 3.718C152.94 3.27 152.912 2.906 152.856 2.626C152.828 2.346 152.744 2.052 152.604 1.744C152.464 1.408 152.212 1.17 151.848 1.03C151.484 0.861999 151.008 0.778 150.42 0.778C149.692 0.778 149.132 0.945999 148.74 1.282C148.348 1.59 148.11 1.926 148.026 2.29C147.97 2.626 147.942 3.102 147.942 3.718C147.942 4.306 147.97 4.782 148.026 5.146C148.11 5.482 148.348 5.818 148.74 6.154C149.132 6.462 149.692 6.616 150.42 6.616ZM158.23 12.832H162.01V28.246C162.01 28.974 162.024 29.576 162.052 30.052C162.108 30.528 162.22 31.088 162.388 31.732C162.584 32.348 162.85 32.852 163.186 33.244C163.55 33.608 164.068 33.916 164.74 34.168C165.412 34.448 166.21 34.588 167.134 34.588C168.366 34.588 169.738 34.336 171.25 33.832L170.746 31.06C169.766 31.284 169.024 31.396 168.52 31.396C167.708 31.396 167.12 31.144 166.756 30.64C166.42 30.136 166.252 29.254 166.252 27.994V12.832H170.662V9.976H166.252V4.6L162.01 5.188V9.976H158.23V12.832ZM190.951 34H196.243V31.144H193.723V16.108C193.723 11.628 190.839 9.388 185.071 9.388C181.851 9.388 179.597 10.032 178.309 11.32C177.049 12.58 176.321 14.498 176.125 17.074L179.653 17.242C179.737 15.674 180.143 14.54 180.871 13.84C181.627 13.112 182.985 12.748 184.945 12.748C186.289 12.748 187.381 13.042 188.221 13.63C189.061 14.19 189.481 15.1 189.481 16.36V20.098L182.635 20.518C179.695 20.742 177.707 21.414 176.671 22.534C175.635 23.654 175.117 25.432 175.117 27.868C175.117 30.052 175.663 31.718 176.755 32.866C177.847 34.014 179.653 34.588 182.173 34.588C185.057 34.588 187.759 33.594 190.279 31.606L190.951 34ZM183.265 31.396C181.809 31.396 180.773 31.102 180.157 30.514C179.541 29.926 179.233 29.002 179.233 27.742C179.233 26.174 179.513 25.096 180.073 24.508C180.661 23.892 181.781 23.542 183.433 23.458L189.481 23.08V28.834C187.689 30.542 185.617 31.396 183.265 31.396ZM200.627 5.692H203.147V31.144H200.627V34H209.909V31.144H207.389V2.836H200.627V5.692Z" fill="white"/>
</svg>
