<svg width="202" height="39" viewBox="0 0 202 39" fill="none" xmlns="http://www.w3.org/2000/svg">
<path d="M0.486 30V9.462H3.72V12.948H4.308C4.756 11.968 5.512 11.086 6.576 10.302C7.668 9.49 9.264 9.084 11.364 9.084C12.904 9.084 14.276 9.406 15.48 10.05C16.712 10.694 17.692 11.646 18.42 12.906C19.148 14.166 19.512 15.72 19.512 17.568V30H16.194V17.82C16.194 15.776 15.676 14.292 14.64 13.368C13.632 12.444 12.26 11.982 10.524 11.982C8.536 11.982 6.912 12.626 5.652 13.914C4.42 15.202 3.804 17.12 3.804 19.668V30H0.486ZM35.6518 30.588C33.5798 30.588 31.7598 30.154 30.1918 29.286C28.6238 28.39 27.4058 27.144 26.5378 25.548C25.6698 23.952 25.2358 22.104 25.2358 20.004V19.5C25.2358 17.372 25.6698 15.51 26.5378 13.914C27.4058 12.318 28.6098 11.086 30.1498 10.218C31.6898 9.322 33.4538 8.874 35.4418 8.874C37.3738 8.874 39.0818 9.294 40.5658 10.134C42.0498 10.946 43.2118 12.122 44.0518 13.662C44.8918 15.202 45.3118 17.008 45.3118 19.08V20.592H28.5538C28.6378 22.804 29.3518 24.54 30.6958 25.8C32.0398 27.032 33.7198 27.648 35.7358 27.648C37.4998 27.648 38.8578 27.242 39.8098 26.43C40.7618 25.618 41.4898 24.652 41.9938 23.532L44.8498 24.918C44.4298 25.786 43.8418 26.654 43.0858 27.522C42.3578 28.39 41.3918 29.118 40.1878 29.706C39.0118 30.294 37.4998 30.588 35.6518 30.588ZM28.5958 17.862H41.9518C41.8398 15.958 41.1818 14.474 39.9778 13.41C38.8018 12.346 37.2898 11.814 35.4418 11.814C33.5658 11.814 32.0258 12.346 30.8218 13.41C29.6178 14.474 28.8758 15.958 28.5958 17.862ZM60.5913 30.588C58.5193 30.588 56.6853 30.154 55.0893 29.286C53.5213 28.418 52.2893 27.2 51.3933 25.632C50.5253 24.036 50.0913 22.16 50.0913 20.004V19.458C50.0913 17.33 50.5253 15.468 51.3933 13.872C52.2893 12.276 53.5213 11.044 55.0893 10.176C56.6853 9.308 58.5193 8.874 60.5913 8.874C62.6633 8.874 64.4833 9.308 66.0513 10.176C67.6473 11.044 68.8793 12.276 69.7473 13.872C70.6433 15.468 71.0913 17.33 71.0913 19.458V20.004C71.0913 22.16 70.6433 24.036 69.7473 25.632C68.8793 27.2 67.6473 28.418 66.0513 29.286C64.4833 30.154 62.6633 30.588 60.5913 30.588ZM60.5913 27.606C62.7753 27.606 64.5113 26.92 65.7993 25.548C67.1153 24.148 67.7733 22.272 67.7733 19.92V19.542C67.7733 17.19 67.1153 15.328 65.7993 13.956C64.5113 12.556 62.7753 11.856 60.5913 11.856C58.4353 11.856 56.6993 12.556 55.3833 13.956C54.0673 15.328 53.4093 17.19 53.4093 19.542V19.92C53.4093 22.272 54.0673 24.148 55.3833 25.548C56.6993 26.92 58.4353 27.606 60.5913 27.606Z" fill="#F7F7F7"/>
<path d="M84.9162 30.588C83.2642 30.588 81.7102 30.182 80.2542 29.37C78.8262 28.53 77.6782 27.312 76.8102 25.716C75.9422 24.12 75.5082 22.188 75.5082 19.92V19.248C75.5082 16.98 75.9422 15.048 76.8102 13.452C77.6782 11.856 78.8262 10.652 80.2542 9.84C81.6822 9 83.2362 8.58 84.9162 8.58C86.1762 8.58 87.2262 8.734 88.0662 9.042C88.9342 9.322 89.6342 9.686 90.1662 10.134C90.6982 10.582 91.1042 11.058 91.3842 11.562H92.1402V0.599998H97.4322V30H92.2242V27.48H91.4682C90.9922 28.264 90.2502 28.978 89.2422 29.622C88.2622 30.266 86.8202 30.588 84.9162 30.588ZM86.5122 25.968C88.1362 25.968 89.4942 25.45 90.5862 24.414C91.6782 23.35 92.2242 21.81 92.2242 19.794V19.374C92.2242 17.358 91.6782 15.832 90.5862 14.796C89.5222 13.732 88.1642 13.2 86.5122 13.2C84.8882 13.2 83.5302 13.732 82.4382 14.796C81.3462 15.832 80.8002 17.358 80.8002 19.374V19.794C80.8002 21.81 81.3462 23.35 82.4382 24.414C83.5302 25.45 84.8882 25.968 86.5122 25.968ZM103.299 30V9.168H108.591V30H103.299ZM105.945 6.732C104.993 6.732 104.181 6.424 103.509 5.808C102.865 5.192 102.543 4.38 102.543 3.372C102.543 2.364 102.865 1.552 103.509 0.935999C104.181 0.319998 104.993 0.0119981 105.945 0.0119981C106.925 0.0119981 107.737 0.319998 108.381 0.935999C109.025 1.552 109.347 2.364 109.347 3.372C109.347 4.38 109.025 5.192 108.381 5.808C107.737 6.424 106.925 6.732 105.945 6.732ZM113.448 19.668V18.996C113.448 16.812 113.882 14.95 114.75 13.41C115.618 11.842 116.766 10.652 118.194 9.84C119.65 9 121.232 8.58 122.94 8.58C124.844 8.58 126.286 8.916 127.266 9.588C128.246 10.26 128.96 10.96 129.408 11.688H130.164V9.168H135.372V33.696C135.372 35.124 134.952 36.258 134.112 37.098C133.272 37.966 132.152 38.4 130.752 38.4H116.808V33.78H128.904C129.688 33.78 130.08 33.36 130.08 32.52V27.102H129.324C129.044 27.55 128.652 28.012 128.148 28.488C127.644 28.936 126.972 29.314 126.132 29.622C125.292 29.93 124.228 30.084 122.94 30.084C121.232 30.084 119.65 29.678 118.194 28.866C116.766 28.026 115.618 26.836 114.75 25.296C113.882 23.728 113.448 21.852 113.448 19.668ZM124.452 25.464C126.076 25.464 127.434 24.946 128.526 23.91C129.618 22.874 130.164 21.418 130.164 19.542V19.122C130.164 17.218 129.618 15.762 128.526 14.754C127.462 13.718 126.104 13.2 124.452 13.2C122.828 13.2 121.47 13.718 120.378 14.754C119.286 15.762 118.74 17.218 118.74 19.122V19.542C118.74 21.418 119.286 22.874 120.378 23.91C121.47 24.946 122.828 25.464 124.452 25.464ZM141.239 30V9.168H146.531V30H141.239ZM143.885 6.732C142.933 6.732 142.121 6.424 141.449 5.808C140.805 5.192 140.483 4.38 140.483 3.372C140.483 2.364 140.805 1.552 141.449 0.935999C142.121 0.319998 142.933 0.0119981 143.885 0.0119981C144.865 0.0119981 145.677 0.319998 146.321 0.935999C146.965 1.552 147.287 2.364 147.287 3.372C147.287 4.38 146.965 5.192 146.321 5.808C145.677 6.424 144.865 6.732 143.885 6.732ZM160.375 30C159.003 30 157.883 29.58 157.015 28.74C156.175 27.872 155.755 26.724 155.755 25.296V13.536H150.547V9.168H155.755V2.7H161.047V9.168H166.759V13.536H161.047V24.372C161.047 25.212 161.439 25.632 162.223 25.632H166.255V30H160.375ZM178.017 30.588C176.533 30.588 175.203 30.336 174.027 29.832C172.851 29.3 171.913 28.544 171.213 27.564C170.541 26.556 170.205 25.338 170.205 23.91C170.205 22.482 170.541 21.292 171.213 20.34C171.913 19.36 172.865 18.632 174.069 18.156C175.301 17.652 176.701 17.4 178.269 17.4H183.981V16.224C183.981 15.244 183.673 14.446 183.057 13.83C182.441 13.186 181.461 12.864 180.117 12.864C178.801 12.864 177.821 13.172 177.177 13.788C176.533 14.376 176.113 15.146 175.917 16.098L171.045 14.46C171.381 13.396 171.913 12.43 172.641 11.562C173.397 10.666 174.391 9.952 175.623 9.42C176.883 8.86 178.409 8.58 180.201 8.58C182.945 8.58 185.115 9.266 186.711 10.638C188.307 12.01 189.105 13.998 189.105 16.602V24.372C189.105 25.212 189.497 25.632 190.281 25.632H191.961V30H188.433C187.397 30 186.543 29.748 185.871 29.244C185.199 28.74 184.863 28.068 184.863 27.228V27.186H184.065C183.953 27.522 183.701 27.97 183.309 28.53C182.917 29.062 182.301 29.538 181.461 29.958C180.621 30.378 179.473 30.588 178.017 30.588ZM178.941 26.304C180.425 26.304 181.629 25.898 182.553 25.086C183.505 24.246 183.981 23.14 183.981 21.768V21.348H178.647C177.667 21.348 176.897 21.558 176.337 21.978C175.777 22.398 175.497 22.986 175.497 23.742C175.497 24.498 175.791 25.114 176.379 25.59C176.967 26.066 177.821 26.304 178.941 26.304ZM195.831 30V0.599998H201.123V30H195.831Z" fill="white"/>
</svg>
